<svg width="201" height="252" viewBox="0 0 201 252" fill="none" xmlns="http://www.w3.org/2000/svg">
<path d="M1 22H176V251H1V22Z" stroke="#801723" stroke-width="2"/>
<path d="M177 250.431V21.4346L198.894 1H200V222.64L177 250.431Z" fill="white" stroke="#801723" stroke-width="2"/>
<path d="M5 26H172V247H5V26Z" fill="white" stroke="#801723" stroke-width="2"/>
<path d="M176.252 21L1.53167 21L24.7351 1L198.4 1L176.252 21Z" fill="white" stroke="#801723" stroke-width="2"/>
<rect x="18" y="119" width="140" height="92" stroke="#801723" stroke-width="4"/>
<path d="M128.52 201L143 173H114L128.52 201Z" fill="#D12135"/>
<ellipse cx="128.5" cy="172.5" rx="14.5" ry="5.5" fill="#B02333"/>
<path d="M50.0207 202L65 174H35L50.0207 202Z" fill="#D12135"/>
<ellipse cx="50" cy="173" rx="15" ry="5" fill="#B02333"/>
<path d="M42.1911 152.015H136.769C138.613 152.015 140.329 151.068 141.312 149.508L141.542 149.143C142.382 147.809 143.864 147 145.44 147V147C147.434 147 149.215 148.301 149.8 150.207V150.207C149.933 150.638 150 151.087 150 151.539V152.318C150 154.008 148.997 155.537 147.447 156.21V156.21C146.79 156.495 146.072 156.61 145.36 156.543L144.864 156.496C143.306 156.35 141.948 155.374 141.312 153.944V153.944M42.1911 152.015L39.1637 154.35C36.734 156.224 36.3796 159.755 38.3885 162.075V162.075C38.8138 162.566 39.3252 162.975 39.8974 163.282L40.0607 163.37C42.8628 164.876 46.3467 164.075 48.2097 161.496L49.6943 159.442M42.1911 152.015H31.1338H26" stroke="black"/>
<path d="M54.8261 145L50.9128 141.666C50.6525 141.445 50.4094 141.203 50.1858 140.945L48.3953 138.873C47.5628 137.91 47.4429 136.521 48.0981 135.43V135.43C48.6307 134.543 49.5896 134 50.6244 134H56.7826H128" stroke="black"/>
<path d="M74 75.5004L80.5 70.0004L85 65.0003L86 62.5V58.9999L85.5 55.9999L84.5 53L87.5 55L91 58.5L93.5 62.5L94.2335 64.5V67.5L94 70.0004L92.5 73L90.5 75.5L89.5 78L90 80L92.5 81.5L95 81L97 79.5L97.5 78L98 76.5L97.5 74L98 71.5L99.5 68.5L101 67.5L102.5 67L104 66.7482H104.242L103.5 68L103 70.0004V72L104 74.5L105.5 77L107 79.5L108 82L108.5 84.5V87L108 90L107.5 92.5L106.5 95L104.5 98.5L102 101L99 103L96 104.5L92.5 105.5L94.5 104L95.5 102.5L96 100.5V98.5L95.5 96.5L94.5 94.5L92.5 93H89.5L86 93.5H84L82.5 92L81.5 90.5L81 88V85.5L81.5 83.5L79.5 85L78.5 86.5L77 89.5L76 93V94V98L77 100.5L79 104L82.102 106.5L76.0001 104.5L73.5 102.5L72.5 102L72 101.5L71.2765 100.736L69.5 98.5L68.1489 96.2643L67 92.5V89.0004L67.5 85L69 81.5004L71.5 78L74 75.5004Z" fill="#010101"/>
</svg>
