<svg width="274" height="50" viewBox="0 0 274 50" fill="none" xmlns="http://www.w3.org/2000/svg">
<rect width="50" height="50" rx="11" fill="#1D3A6D"/>
<path d="M12.1568 11.8182H15.9409L24.8386 33.5511H25.1454L34.0431 11.8182H37.8272V38H34.8613V18.108H34.6056L26.4238 38H23.5602L15.3784 18.108H15.1227V38H12.1568V11.8182Z" fill="white"/>
<rect x="122" width="50" height="50" rx="11" fill="#1D3A6D"/>
<path d="M134.157 11.8182H137.941L146.839 33.5511H147.145L156.043 11.8182H159.827V38H156.861V18.108H156.606L148.424 38H145.56L137.378 18.108H137.123V38H134.157V11.8182Z" fill="white"/>
<path d="M77.1239 38L74.0279 30.044H63.8399L60.7799 38H57.5039L67.5479 12.188H70.4639L80.4719 38H77.1239ZM70.1759 19.388C70.1039 19.196 69.9839 18.848 69.8159 18.344C69.6479 17.84 69.4799 17.324 69.3119 16.796C69.1679 16.244 69.0479 15.824 68.9519 15.536C68.8319 16.016 68.6999 16.508 68.5559 17.012C68.4359 17.492 68.3039 17.936 68.1599 18.344C68.0399 18.752 67.9319 19.1 67.8359 19.388L64.9199 27.164H73.0559L70.1759 19.388Z" fill="#1D3A6D"/>
<path d="M102.398 12.296C105.758 12.296 108.206 12.956 109.742 14.276C111.278 15.596 112.046 17.456 112.046 19.856C112.046 20.912 111.866 21.932 111.506 22.916C111.17 23.876 110.606 24.74 109.814 25.508C109.022 26.276 107.966 26.888 106.646 27.344C105.326 27.776 103.706 27.992 101.786 27.992H98.8336V38H95.5936V12.296H102.398ZM102.11 15.068H98.8336V25.22H101.426C103.058 25.22 104.414 25.052 105.494 24.716C106.574 24.356 107.378 23.792 107.906 23.024C108.434 22.256 108.698 21.248 108.698 20C108.698 18.344 108.17 17.108 107.114 16.292C106.058 15.476 104.39 15.068 102.11 15.068Z" fill="#1D3A6D"/>
<path d="M199.124 38L196.028 30.044H185.84L182.78 38H179.504L189.548 12.188H192.464L202.472 38H199.124ZM192.176 19.388C192.104 19.196 191.984 18.848 191.816 18.344C191.648 17.84 191.48 17.324 191.312 16.796C191.168 16.244 191.048 15.824 190.952 15.536C190.832 16.016 190.7 16.508 190.556 17.012C190.436 17.492 190.304 17.936 190.16 18.344C190.04 18.752 189.932 19.1 189.836 19.388L186.92 27.164H195.056L192.176 19.388Z" fill="#1D3A6D"/>
<path d="M236.121 38H232.233L220.605 24.968V38H217.365V12.296H220.605V24.752L231.945 12.296H235.617L224.457 24.788L236.121 38Z" fill="#1D3A6D"/>
<path d="M262.135 14.78C260.767 14.78 259.531 15.02 258.427 15.5C257.323 15.956 256.387 16.64 255.619 17.552C254.851 18.44 254.263 19.532 253.855 20.828C253.447 22.1 253.243 23.54 253.243 25.148C253.243 27.26 253.567 29.096 254.215 30.656C254.887 32.216 255.871 33.416 257.167 34.256C258.487 35.096 260.131 35.516 262.099 35.516C263.227 35.516 264.295 35.42 265.303 35.228C266.311 35.036 267.295 34.796 268.255 34.508V37.316C267.295 37.676 266.299 37.94 265.267 38.108C264.259 38.276 263.047 38.36 261.631 38.36C259.015 38.36 256.831 37.82 255.079 36.74C253.327 35.66 252.007 34.124 251.119 32.132C250.255 30.14 249.823 27.8 249.823 25.112C249.823 23.168 250.087 21.392 250.615 19.784C251.167 18.176 251.959 16.784 252.991 15.608C254.047 14.432 255.343 13.532 256.879 12.908C258.415 12.26 260.179 11.936 262.171 11.936C263.491 11.936 264.763 12.068 265.987 12.332C267.211 12.596 268.303 12.968 269.263 13.448L267.967 16.184C267.175 15.824 266.287 15.5 265.303 15.212C264.343 14.924 263.287 14.78 262.135 14.78Z" fill="#1D3A6D"/>
</svg>
