<svg width="41" height="41" viewBox="0 0 41 41" fill="none" xmlns="http://www.w3.org/2000/svg">
<path d="M25.6252 5.12565C28.2415 5.41631 30.5959 6.68206 32.4585 8.54232C34.3211 10.4026 35.5812 12.7597 35.8752 15.3757M24.771 11.1048C26.0303 11.3505 27.2804 11.9059 28.1877 12.8132C29.0949 13.7204 29.6503 14.9705 29.896 16.2298M14.0093 26.9906C2.22527 15.2052 3.90094 9.80845 5.14318 8.06938C5.30277 7.7883 9.23622 1.90011 13.4526 5.35468C23.9182 13.9739 11.1043 13.6673 19.4571 21.5449C27.8098 29.4225 27.0284 17.0839 35.6461 27.5474C39.1008 31.7654 33.2124 35.6987 32.9331 35.8565C31.194 37.1005 25.7952 38.7761 14.0093 26.9906Z" stroke="#001A72" stroke-width="1.5" stroke-linecap="round" stroke-linejoin="round"/>
</svg>
