<svg width="46" height="38" viewBox="0 0 46 38" fill="none" xmlns="http://www.w3.org/2000/svg">
<path d="M28.2162 4.69469C31.0971 4.96099 33.6896 6.12067 35.7405 7.82503C37.7915 9.52939 39.179 11.6889 39.5027 14.0857M27.2757 10.1728C28.6623 10.3979 30.0388 10.9067 31.0378 11.738C32.0368 12.5692 32.6484 13.7145 32.9189 14.8683M15.4257 24.7273C2.45004 13.9295 4.29516 8.98506 5.66302 7.39173C5.83874 7.1342 10.17 1.73947 14.8127 4.90453C26.3367 12.8014 12.227 12.5205 21.4243 19.738C30.6217 26.9554 29.7613 15.6508 39.2504 25.2374C43.0545 29.1019 36.5706 32.7056 36.2631 32.8502C34.3481 33.9899 28.4034 35.5251 15.4257 24.7273Z" stroke="white" stroke-width="1.5" stroke-linecap="round" stroke-linejoin="round"/>
</svg>
