<svg width="412" height="412" viewBox="0 0 412 412" fill="none" xmlns="http://www.w3.org/2000/svg">
<g clip-path="url(#clip0_1507_3334)">
<path fill-rule="evenodd" clip-rule="evenodd" d="M412 206C412 319.771 319.771 412 206 412C92.2293 412 0 319.771 0 206C0 92.2293 92.2293 0 206 0C319.771 0 412 92.2293 412 206ZM213.382 152.078C193.346 160.412 153.301 177.661 93.2475 203.825C83.4958 207.703 78.3874 211.497 77.9224 215.207C77.1365 221.476 84.9872 223.944 95.6779 227.306C97.1321 227.763 98.6389 228.237 100.184 228.739C110.702 232.158 124.85 236.158 132.205 236.317C138.877 236.461 146.324 233.71 154.545 228.065C210.655 190.189 239.619 171.045 241.437 170.633C242.72 170.342 244.498 169.975 245.702 171.046C246.907 172.117 246.789 174.144 246.661 174.688C245.883 178.004 215.066 206.654 199.118 221.481C194.147 226.103 190.62 229.381 189.899 230.13C188.284 231.807 186.638 233.394 185.056 234.919C175.285 244.339 167.957 251.403 185.462 262.938C193.874 268.482 200.606 273.066 207.321 277.639C214.655 282.633 221.97 287.615 231.434 293.819C233.846 295.4 236.149 297.041 238.392 298.64C246.927 304.725 254.595 310.192 264.068 309.32C269.572 308.813 275.258 303.637 278.146 288.2C284.97 251.717 298.385 172.67 301.485 140.097C301.756 137.243 301.415 133.59 301.14 131.987C300.866 130.384 300.292 128.1 298.208 126.408C295.74 124.406 291.93 123.983 290.226 124.013C282.478 124.15 270.59 128.283 213.382 152.078Z" fill="#1D3A6D"/>
</g>
<defs>
<clipPath id="clip0_1507_3334">
<rect width="412" height="412" fill="white"/>
</clipPath>
</defs>
</svg>
