<svg width="406" height="407" viewBox="0 0 406 407" fill="none" xmlns="http://www.w3.org/2000/svg">
<path fill-rule="evenodd" clip-rule="evenodd" d="M279.3 228.622C271.036 223.683 260.278 218.173 250.565 222.139C243.108 225.203 238.335 236.887 233.49 242.847C230.997 245.911 228.052 246.386 224.229 244.866C196.206 233.704 174.738 214.991 159.254 189.224C156.642 185.211 157.093 182.052 160.251 178.348C164.93 172.838 170.796 166.592 172.054 159.183C173.313 151.774 169.846 143.106 166.782 136.504C162.864 128.073 158.494 116.033 150.04 111.26C142.274 106.866 132.039 109.336 125.128 114.964C113.183 124.701 107.412 139.923 107.602 155.027C107.65 159.326 108.172 163.6 109.193 167.732C111.592 177.707 116.199 186.992 121.4 195.85C125.318 202.523 129.545 208.983 134.129 215.205C149.114 235.557 167.78 253.273 189.367 266.477C200.148 273.079 211.785 278.873 223.801 282.863C237.29 287.327 249.33 291.958 263.888 289.203C279.158 286.306 294.19 276.855 300.246 262.155C302.027 257.809 302.929 252.964 301.932 248.357C299.866 238.858 286.994 233.206 279.3 228.599V228.622Z" fill="#1D3A6D"/>
<path d="M0 406.352L29.1388 297.657C12.634 267.901 3.96587 234.559 3.96587 200.694C3.96587 90.0287 93.9945 0 204.66 0C315.326 0 405.354 90.0287 405.354 200.694C405.354 311.36 315.326 401.389 204.66 401.389C171.437 401.389 138.617 393.005 109.265 377.071L0.0237712 406.328L0 406.352ZM114.679 336.343L121.566 340.451C146.834 355.507 175.545 363.463 204.66 363.463C294.404 363.463 367.405 290.462 367.405 200.718C367.405 110.974 294.404 37.973 204.66 37.973C114.916 37.973 41.9151 110.974 41.9151 200.718C41.9151 230.356 50.1557 259.518 65.7106 285.095L69.9379 292.029L53.6704 352.705L114.703 336.343H114.679Z" fill="#1D3A6D"/>
</svg>
