<svg width="190" height="276" viewBox="0 0 190 276" fill="none" xmlns="http://www.w3.org/2000/svg">
<rect x="3.25" y="3.25" width="183.5" height="269.367" stroke="#1D3A6D" stroke-width="0.5"/>
<rect x="0.25" y="0.25" width="189.5" height="275.5" stroke="#1D3A6D" stroke-width="0.5"/>
<ellipse cx="116.956" cy="31.1329" rx="1.41111" ry="1.22667" fill="#D9D9D9"/>
<ellipse cx="116.956" cy="34.8126" rx="1.41111" ry="1.22667" fill="#D9D9D9"/>
<ellipse cx="116.956" cy="38.4933" rx="1.41111" ry="1.22667" fill="#D9D9D9"/>
<rect x="21.25" y="25.25" width="101.1" height="19.1267" rx="2.75" stroke="#1D3A6D" stroke-width="0.5"/>
<path d="M30 31.6074V29.8207H29.6781V29.3861H29.2998V28.9998H26.7002V29.3861H26.3219V29.8207H26V31.6074H30ZM26.0644 29.9012H26.3863V29.4666H26.7646V29.0803H29.2032V29.4666H29.5815V29.9012H29.9034V31.5269H26.0644V29.9012Z" fill="#1D3A6D"/>
<path d="M29.2032 31.3584H29.2837V30.457H29.2032V31.3584Z" fill="#1D3A6D"/>
<path d="M28.8492 31.3584H28.9297V30.457H28.8492V31.3584Z" fill="#1D3A6D"/>
<path d="M28.4869 31.3584H28.5674V30.457H28.4869V31.3584Z" fill="#1D3A6D"/>
<path d="M28.1329 31.3584H28.2134V30.457H28.1329V31.3584Z" fill="#1D3A6D"/>
<path d="M27.7789 31.3584H27.8594V30.457H27.7789V31.3584Z" fill="#1D3A6D"/>
<path d="M27.4166 31.3584H27.4971V30.457H27.4166V31.3584Z" fill="#1D3A6D"/>
<path d="M27.0626 31.3584H27.1431V30.457H27.0626V31.3584Z" fill="#1D3A6D"/>
<path d="M26.7003 31.3584H26.7808V30.457H26.7003V31.3584Z" fill="#1D3A6D"/>
<path d="M35 31.6074V29.8207H34.6781V29.3861H34.2998V28.9998H31.7002V29.3861H31.3219V29.8207H31V31.6074H35ZM31.0644 29.9012H31.3863V29.4666H31.7646V29.0803H34.2032V29.4666H34.5815V29.9012H34.9034V31.5269H31.0644V29.9012Z" fill="#1D3A6D"/>
<path d="M34.2032 31.3584H34.2837V30.457H34.2032V31.3584Z" fill="#1D3A6D"/>
<path d="M33.8492 31.3584H33.9297V30.457H33.8492V31.3584Z" fill="#1D3A6D"/>
<path d="M33.4869 31.3584H33.5674V30.457H33.4869V31.3584Z" fill="#1D3A6D"/>
<path d="M33.1329 31.3584H33.2134V30.457H33.1329V31.3584Z" fill="#1D3A6D"/>
<path d="M32.7789 31.3584H32.8594V30.457H32.7789V31.3584Z" fill="#1D3A6D"/>
<path d="M32.4166 31.3584H32.4971V30.457H32.4166V31.3584Z" fill="#1D3A6D"/>
<path d="M32.0626 31.3584H32.1431V30.457H32.0626V31.3584Z" fill="#1D3A6D"/>
<path d="M31.7003 31.3584H31.7808V30.457H31.7003V31.3584Z" fill="#1D3A6D"/>
<path d="M40 31.6074V29.8207H39.6781V29.3861H39.2998V28.9998H36.7002V29.3861H36.3219V29.8207H36V31.6074H40ZM36.0644 29.9012H36.3863V29.4666H36.7646V29.0803H39.2032V29.4666H39.5815V29.9012H39.9034V31.5269H36.0644V29.9012Z" fill="#1D3A6D"/>
<path d="M39.2032 31.3584H39.2837V30.457H39.2032V31.3584Z" fill="#1D3A6D"/>
<path d="M38.8492 31.3584H38.9297V30.457H38.8492V31.3584Z" fill="#1D3A6D"/>
<path d="M38.4869 31.3584H38.5674V30.457H38.4869V31.3584Z" fill="#1D3A6D"/>
<path d="M38.1329 31.3584H38.2134V30.457H38.1329V31.3584Z" fill="#1D3A6D"/>
<path d="M37.7789 31.3584H37.8594V30.457H37.7789V31.3584Z" fill="#1D3A6D"/>
<path d="M37.4166 31.3584H37.4971V30.457H37.4166V31.3584Z" fill="#1D3A6D"/>
<path d="M37.0626 31.3584H37.1431V30.457H37.0626V31.3584Z" fill="#1D3A6D"/>
<path d="M36.7003 31.3584H36.7808V30.457H36.7003V31.3584Z" fill="#1D3A6D"/>
<path d="M45 31.6074V29.8207H44.6781V29.3861H44.2998V28.9998H41.7002V29.3861H41.3219V29.8207H41V31.6074H45ZM41.0644 29.9012H41.3863V29.4666H41.7646V29.0803H44.2032V29.4666H44.5815V29.9012H44.9034V31.5269H41.0644V29.9012Z" fill="#1D3A6D"/>
<path d="M44.2032 31.3584H44.2837V30.457H44.2032V31.3584Z" fill="#1D3A6D"/>
<path d="M43.8492 31.3584H43.9297V30.457H43.8492V31.3584Z" fill="#1D3A6D"/>
<path d="M43.4869 31.3584H43.5674V30.457H43.4869V31.3584Z" fill="#1D3A6D"/>
<path d="M43.1329 31.3584H43.2134V30.457H43.1329V31.3584Z" fill="#1D3A6D"/>
<path d="M42.7789 31.3584H42.8594V30.457H42.7789V31.3584Z" fill="#1D3A6D"/>
<path d="M42.4166 31.3584H42.4971V30.457H42.4166V31.3584Z" fill="#1D3A6D"/>
<path d="M42.0626 31.3584H42.1431V30.457H42.0626V31.3584Z" fill="#1D3A6D"/>
<path d="M41.7003 31.3584H41.7808V30.457H41.7003V31.3584Z" fill="#1D3A6D"/>
<path d="M50 31.6074V29.8207H49.6781V29.3861H49.2998V28.9998H46.7002V29.3861H46.3219V29.8207H46V31.6074H50ZM46.0644 29.9012H46.3863V29.4666H46.7646V29.0803H49.2032V29.4666H49.5815V29.9012H49.9034V31.5269H46.0644V29.9012Z" fill="#1D3A6D"/>
<path d="M49.2032 31.3584H49.2837V30.457H49.2032V31.3584Z" fill="#1D3A6D"/>
<path d="M48.8492 31.3584H48.9297V30.457H48.8492V31.3584Z" fill="#1D3A6D"/>
<path d="M48.4869 31.3584H48.5674V30.457H48.4869V31.3584Z" fill="#1D3A6D"/>
<path d="M48.1329 31.3584H48.2134V30.457H48.1329V31.3584Z" fill="#1D3A6D"/>
<path d="M47.7789 31.3584H47.8594V30.457H47.7789V31.3584Z" fill="#1D3A6D"/>
<path d="M47.4166 31.3584H47.4971V30.457H47.4166V31.3584Z" fill="#1D3A6D"/>
<path d="M47.0626 31.3584H47.1431V30.457H47.0626V31.3584Z" fill="#1D3A6D"/>
<path d="M46.7003 31.3584H46.7808V30.457H46.7003V31.3584Z" fill="#1D3A6D"/>
<path d="M55 31.6074V29.8207H54.6781V29.3861H54.2998V28.9998H51.7002V29.3861H51.3219V29.8207H51V31.6074H55ZM51.0644 29.9012H51.3863V29.4666H51.7646V29.0803H54.2032V29.4666H54.5815V29.9012H54.9034V31.5269H51.0644V29.9012Z" fill="#1D3A6D"/>
<path d="M54.2032 31.3584H54.2837V30.457H54.2032V31.3584Z" fill="#1D3A6D"/>
<path d="M53.8492 31.3584H53.9297V30.457H53.8492V31.3584Z" fill="#1D3A6D"/>
<path d="M53.4869 31.3584H53.5674V30.457H53.4869V31.3584Z" fill="#1D3A6D"/>
<path d="M53.1329 31.3584H53.2134V30.457H53.1329V31.3584Z" fill="#1D3A6D"/>
<path d="M52.7789 31.3584H52.8594V30.457H52.7789V31.3584Z" fill="#1D3A6D"/>
<path d="M52.4166 31.3584H52.4971V30.457H52.4166V31.3584Z" fill="#1D3A6D"/>
<path d="M52.0626 31.3584H52.1431V30.457H52.0626V31.3584Z" fill="#1D3A6D"/>
<path d="M51.7003 31.3584H51.7808V30.457H51.7003V31.3584Z" fill="#1D3A6D"/>
<path d="M60 31.6074V29.8207H59.6781V29.3861H59.2998V28.9998H56.7002V29.3861H56.3219V29.8207H56V31.6074H60ZM56.0644 29.9012H56.3863V29.4666H56.7646V29.0803H59.2032V29.4666H59.5815V29.9012H59.9034V31.5269H56.0644V29.9012Z" fill="#1D3A6D"/>
<path d="M59.2032 31.3584H59.2837V30.457H59.2032V31.3584Z" fill="#1D3A6D"/>
<path d="M58.8492 31.3584H58.9297V30.457H58.8492V31.3584Z" fill="#1D3A6D"/>
<path d="M58.4869 31.3584H58.5674V30.457H58.4869V31.3584Z" fill="#1D3A6D"/>
<path d="M58.1329 31.3584H58.2134V30.457H58.1329V31.3584Z" fill="#1D3A6D"/>
<path d="M57.7789 31.3584H57.8594V30.457H57.7789V31.3584Z" fill="#1D3A6D"/>
<path d="M57.4166 31.3584H57.4971V30.457H57.4166V31.3584Z" fill="#1D3A6D"/>
<path d="M57.0626 31.3584H57.1431V30.457H57.0626V31.3584Z" fill="#1D3A6D"/>
<path d="M56.7003 31.3584H56.7808V30.457H56.7003V31.3584Z" fill="#1D3A6D"/>
<path d="M65 31.6074V29.8207H64.6781V29.3861H64.2998V28.9998H61.7002V29.3861H61.3219V29.8207H61V31.6074H65ZM61.0644 29.9012H61.3863V29.4666H61.7646V29.0803H64.2032V29.4666H64.5815V29.9012H64.9034V31.5269H61.0644V29.9012Z" fill="#1D3A6D"/>
<path d="M64.2032 31.3584H64.2837V30.457H64.2032V31.3584Z" fill="#1D3A6D"/>
<path d="M63.8492 31.3584H63.9297V30.457H63.8492V31.3584Z" fill="#1D3A6D"/>
<path d="M63.4869 31.3584H63.5674V30.457H63.4869V31.3584Z" fill="#1D3A6D"/>
<path d="M63.1329 31.3584H63.2134V30.457H63.1329V31.3584Z" fill="#1D3A6D"/>
<path d="M62.7789 31.3584H62.8594V30.457H62.7789V31.3584Z" fill="#1D3A6D"/>
<path d="M62.4166 31.3584H62.4971V30.457H62.4166V31.3584Z" fill="#1D3A6D"/>
<path d="M62.0626 31.3584H62.1431V30.457H62.0626V31.3584Z" fill="#1D3A6D"/>
<path d="M61.7003 31.3584H61.7808V30.457H61.7003V31.3584Z" fill="#1D3A6D"/>
<path d="M69.999 31.6084V29.8217H69.6771V29.3871H69.2988V29.0007H66.6992V29.3871H66.321V29.8217H65.999V31.6084H69.999ZM66.0634 29.9022H66.3853V29.4676H66.7636V29.0812H69.2022V29.4676H69.5805V29.9022H69.9024V31.5279H66.0634V29.9022Z" fill="#1D3A6D"/>
<path d="M69.2022 31.3594H69.2827V30.458H69.2022V31.3594Z" fill="#1D3A6D"/>
<path d="M68.8482 31.3594H68.9287V30.458H68.8482V31.3594Z" fill="#1D3A6D"/>
<path d="M68.4859 31.3594H68.5664V30.458H68.4859V31.3594Z" fill="#1D3A6D"/>
<path d="M68.1319 31.3594H68.2124V30.458H68.1319V31.3594Z" fill="#1D3A6D"/>
<path d="M67.7779 31.3594H67.8584V30.458H67.7779V31.3594Z" fill="#1D3A6D"/>
<path d="M67.4156 31.3594H67.4961V30.458H67.4156V31.3594Z" fill="#1D3A6D"/>
<path d="M67.0616 31.3594H67.1421V30.458H67.0616V31.3594Z" fill="#1D3A6D"/>
<path d="M66.6993 31.3594H66.7798V30.458H66.6993V31.3594Z" fill="#1D3A6D"/>
<path d="M74.999 31.6084V29.8217H74.6771V29.3871H74.2988V29.0007H71.6992V29.3871H71.321V29.8217H70.999V31.6084H74.999ZM71.0634 29.9022H71.3853V29.4676H71.7636V29.0812H74.2022V29.4676H74.5805V29.9022H74.9024V31.5279H71.0634V29.9022Z" fill="#1D3A6D"/>
<path d="M74.2022 31.3594H74.2827V30.458H74.2022V31.3594Z" fill="#1D3A6D"/>
<path d="M73.8482 31.3594H73.9287V30.458H73.8482V31.3594Z" fill="#1D3A6D"/>
<path d="M73.4859 31.3594H73.5664V30.458H73.4859V31.3594Z" fill="#1D3A6D"/>
<path d="M73.1319 31.3594H73.2124V30.458H73.1319V31.3594Z" fill="#1D3A6D"/>
<path d="M72.7779 31.3594H72.8584V30.458H72.7779V31.3594Z" fill="#1D3A6D"/>
<path d="M72.4156 31.3594H72.4961V30.458H72.4156V31.3594Z" fill="#1D3A6D"/>
<path d="M72.0616 31.3594H72.1421V30.458H72.0616V31.3594Z" fill="#1D3A6D"/>
<path d="M71.6993 31.3594H71.7798V30.458H71.6993V31.3594Z" fill="#1D3A6D"/>
<path d="M79.999 31.6084V29.8217H79.6771V29.3871H79.2988V29.0007H76.6992V29.3871H76.321V29.8217H75.999V31.6084H79.999ZM76.0634 29.9022H76.3853V29.4676H76.7636V29.0812H79.2022V29.4676H79.5805V29.9022H79.9024V31.5279H76.0634V29.9022Z" fill="#1D3A6D"/>
<path d="M79.2022 31.3594H79.2827V30.458H79.2022V31.3594Z" fill="#1D3A6D"/>
<path d="M78.8482 31.3594H78.9287V30.458H78.8482V31.3594Z" fill="#1D3A6D"/>
<path d="M78.4859 31.3594H78.5664V30.458H78.4859V31.3594Z" fill="#1D3A6D"/>
<path d="M78.1319 31.3594H78.2124V30.458H78.1319V31.3594Z" fill="#1D3A6D"/>
<path d="M77.7779 31.3594H77.8584V30.458H77.7779V31.3594Z" fill="#1D3A6D"/>
<path d="M77.4156 31.3594H77.4961V30.458H77.4156V31.3594Z" fill="#1D3A6D"/>
<path d="M77.0616 31.3594H77.1421V30.458H77.0616V31.3594Z" fill="#1D3A6D"/>
<path d="M76.6993 31.3594H76.7798V30.458H76.6993V31.3594Z" fill="#1D3A6D"/>
<path d="M84.999 31.6084V29.8217H84.6771V29.3871H84.2988V29.0007H81.6992V29.3871H81.321V29.8217H80.999V31.6084H84.999ZM81.0634 29.9022H81.3853V29.4676H81.7636V29.0812H84.2022V29.4676H84.5805V29.9022H84.9024V31.5279H81.0634V29.9022Z" fill="#1D3A6D"/>
<path d="M84.2022 31.3594H84.2827V30.458H84.2022V31.3594Z" fill="#1D3A6D"/>
<path d="M83.8482 31.3594H83.9287V30.458H83.8482V31.3594Z" fill="#1D3A6D"/>
<path d="M83.4859 31.3594H83.5664V30.458H83.4859V31.3594Z" fill="#1D3A6D"/>
<path d="M83.1319 31.3594H83.2124V30.458H83.1319V31.3594Z" fill="#1D3A6D"/>
<path d="M82.7779 31.3594H82.8584V30.458H82.7779V31.3594Z" fill="#1D3A6D"/>
<path d="M82.4156 31.3594H82.4961V30.458H82.4156V31.3594Z" fill="#1D3A6D"/>
<path d="M82.0616 31.3594H82.1421V30.458H82.0616V31.3594Z" fill="#1D3A6D"/>
<path d="M81.6993 31.3594H81.7798V30.458H81.6993V31.3594Z" fill="#1D3A6D"/>
<path d="M89.999 31.6084V29.8217H89.6771V29.3871H89.2988V29.0007H86.6992V29.3871H86.321V29.8217H85.999V31.6084H89.999ZM86.0634 29.9022H86.3853V29.4676H86.7636V29.0812H89.2022V29.4676H89.5805V29.9022H89.9024V31.5279H86.0634V29.9022Z" fill="#1D3A6D"/>
<path d="M89.2022 31.3594H89.2827V30.458H89.2022V31.3594Z" fill="#1D3A6D"/>
<path d="M88.8482 31.3594H88.9287V30.458H88.8482V31.3594Z" fill="#1D3A6D"/>
<path d="M88.4859 31.3594H88.5664V30.458H88.4859V31.3594Z" fill="#1D3A6D"/>
<path d="M88.1319 31.3594H88.2124V30.458H88.1319V31.3594Z" fill="#1D3A6D"/>
<path d="M87.7779 31.3594H87.8584V30.458H87.7779V31.3594Z" fill="#1D3A6D"/>
<path d="M87.4156 31.3594H87.4961V30.458H87.4156V31.3594Z" fill="#1D3A6D"/>
<path d="M87.0616 31.3594H87.1421V30.458H87.0616V31.3594Z" fill="#1D3A6D"/>
<path d="M86.6993 31.3594H86.7798V30.458H86.6993V31.3594Z" fill="#1D3A6D"/>
<path d="M94.999 31.6084V29.8217H94.6771V29.3871H94.2988V29.0007H91.6992V29.3871H91.321V29.8217H90.999V31.6084H94.999ZM91.0634 29.9022H91.3853V29.4676H91.7636V29.0812H94.2022V29.4676H94.5805V29.9022H94.9024V31.5279H91.0634V29.9022Z" fill="#1D3A6D"/>
<path d="M94.2022 31.3594H94.2827V30.458H94.2022V31.3594Z" fill="#1D3A6D"/>
<path d="M93.8482 31.3594H93.9287V30.458H93.8482V31.3594Z" fill="#1D3A6D"/>
<path d="M93.4859 31.3594H93.5664V30.458H93.4859V31.3594Z" fill="#1D3A6D"/>
<path d="M93.1319 31.3594H93.2124V30.458H93.1319V31.3594Z" fill="#1D3A6D"/>
<path d="M92.7779 31.3594H92.8584V30.458H92.7779V31.3594Z" fill="#1D3A6D"/>
<path d="M92.4156 31.3594H92.4961V30.458H92.4156V31.3594Z" fill="#1D3A6D"/>
<path d="M92.0616 31.3594H92.1421V30.458H92.0616V31.3594Z" fill="#1D3A6D"/>
<path d="M91.6993 31.3594H91.7798V30.458H91.6993V31.3594Z" fill="#1D3A6D"/>
<path d="M99.999 31.6084V29.8217H99.6771V29.3871H99.2988V29.0007H96.6992V29.3871H96.321V29.8217H95.999V31.6084H99.999ZM96.0634 29.9022H96.3853V29.4676H96.7636V29.0812H99.2022V29.4676H99.5805V29.9022H99.9024V31.5279H96.0634V29.9022Z" fill="#1D3A6D"/>
<path d="M99.2022 31.3594H99.2827V30.458H99.2022V31.3594Z" fill="#1D3A6D"/>
<path d="M98.8482 31.3594H98.9287V30.458H98.8482V31.3594Z" fill="#1D3A6D"/>
<path d="M98.4859 31.3594H98.5664V30.458H98.4859V31.3594Z" fill="#1D3A6D"/>
<path d="M98.1319 31.3594H98.2124V30.458H98.1319V31.3594Z" fill="#1D3A6D"/>
<path d="M97.7779 31.3594H97.8584V30.458H97.7779V31.3594Z" fill="#1D3A6D"/>
<path d="M97.4156 31.3594H97.4961V30.458H97.4156V31.3594Z" fill="#1D3A6D"/>
<path d="M97.0616 31.3594H97.1421V30.458H97.0616V31.3594Z" fill="#1D3A6D"/>
<path d="M96.6993 31.3594H96.7798V30.458H96.6993V31.3594Z" fill="#1D3A6D"/>
<path d="M104.999 31.6084V29.8217H104.677V29.3871H104.299V29.0007H101.699V29.3871H101.321V29.8217H100.999V31.6084H104.999ZM101.063 29.9022H101.385V29.4676H101.764V29.0812H104.202V29.4676H104.581V29.9022H104.902V31.5279H101.063V29.9022Z" fill="#1D3A6D"/>
<path d="M104.202 31.3594H104.283V30.458H104.202V31.3594Z" fill="#1D3A6D"/>
<path d="M103.848 31.3594H103.929V30.458H103.848V31.3594Z" fill="#1D3A6D"/>
<path d="M103.486 31.3594H103.566V30.458H103.486V31.3594Z" fill="#1D3A6D"/>
<path d="M103.132 31.3594H103.212V30.458H103.132V31.3594Z" fill="#1D3A6D"/>
<path d="M102.778 31.3594H102.858V30.458H102.778V31.3594Z" fill="#1D3A6D"/>
<path d="M102.416 31.3594H102.496V30.458H102.416V31.3594Z" fill="#1D3A6D"/>
<path d="M102.062 31.3594H102.142V30.458H102.062V31.3594Z" fill="#1D3A6D"/>
<path d="M101.699 31.3594H101.78V30.458H101.699V31.3594Z" fill="#1D3A6D"/>
<path d="M26 37.002V38.7887H26.3219V39.2233H26.7002V39.6096H29.2998V39.2233H29.6781V38.7887H30V37.002H26ZM29.9356 38.7082H29.6137V39.1428H29.2354V39.5291H26.7968V39.1428H26.4185V38.7082H26.0966V37.0824H29.9356V38.7082Z" fill="#1D3A6D"/>
<path d="M26.7968 37.251H26.7163V38.1524H26.7968V37.251Z" fill="#1D3A6D"/>
<path d="M27.1508 37.251H27.0703V38.1524H27.1508V37.251Z" fill="#1D3A6D"/>
<path d="M27.5131 37.251H27.4326V38.1524H27.5131V37.251Z" fill="#1D3A6D"/>
<path d="M27.8671 37.251H27.7866V38.1524H27.8671V37.251Z" fill="#1D3A6D"/>
<path d="M28.2211 37.251H28.1406V38.1524H28.2211V37.251Z" fill="#1D3A6D"/>
<path d="M28.5834 37.251H28.5029V38.1524H28.5834V37.251Z" fill="#1D3A6D"/>
<path d="M28.9374 37.251H28.8569V38.1524H28.9374V37.251Z" fill="#1D3A6D"/>
<path d="M29.2997 37.251H29.2192V38.1524H29.2997V37.251Z" fill="#1D3A6D"/>
<path d="M31 37.002V38.7887H31.3219V39.2233H31.7002V39.6096H34.2998V39.2233H34.6781V38.7887H35V37.002H31ZM34.9356 38.7082H34.6137V39.1428H34.2354V39.5291H31.7968V39.1428H31.4185V38.7082H31.0966V37.0824H34.9356V38.7082Z" fill="#1D3A6D"/>
<path d="M31.7968 37.251H31.7163V38.1524H31.7968V37.251Z" fill="#1D3A6D"/>
<path d="M32.1508 37.251H32.0703V38.1524H32.1508V37.251Z" fill="#1D3A6D"/>
<path d="M32.5131 37.251H32.4326V38.1524H32.5131V37.251Z" fill="#1D3A6D"/>
<path d="M32.8671 37.251H32.7866V38.1524H32.8671V37.251Z" fill="#1D3A6D"/>
<path d="M33.2211 37.251H33.1406V38.1524H33.2211V37.251Z" fill="#1D3A6D"/>
<path d="M33.5834 37.251H33.5029V38.1524H33.5834V37.251Z" fill="#1D3A6D"/>
<path d="M33.9374 37.251H33.8569V38.1524H33.9374V37.251Z" fill="#1D3A6D"/>
<path d="M34.2997 37.251H34.2192V38.1524H34.2997V37.251Z" fill="#1D3A6D"/>
<path d="M36 37.002V38.7887H36.3219V39.2233H36.7002V39.6096H39.2998V39.2233H39.6781V38.7887H40V37.002H36ZM39.9356 38.7082H39.6137V39.1428H39.2354V39.5291H36.7968V39.1428H36.4185V38.7082H36.0966V37.0824H39.9356V38.7082Z" fill="#1D3A6D"/>
<path d="M36.7968 37.251H36.7163V38.1524H36.7968V37.251Z" fill="#1D3A6D"/>
<path d="M37.1508 37.251H37.0703V38.1524H37.1508V37.251Z" fill="#1D3A6D"/>
<path d="M37.5131 37.251H37.4326V38.1524H37.5131V37.251Z" fill="#1D3A6D"/>
<path d="M37.8671 37.251H37.7866V38.1524H37.8671V37.251Z" fill="#1D3A6D"/>
<path d="M38.2211 37.251H38.1406V38.1524H38.2211V37.251Z" fill="#1D3A6D"/>
<path d="M38.5834 37.251H38.5029V38.1524H38.5834V37.251Z" fill="#1D3A6D"/>
<path d="M38.9374 37.251H38.8569V38.1524H38.9374V37.251Z" fill="#1D3A6D"/>
<path d="M39.2997 37.251H39.2192V38.1524H39.2997V37.251Z" fill="#1D3A6D"/>
<path d="M41 37.002V38.7887H41.3219V39.2233H41.7002V39.6096H44.2998V39.2233H44.6781V38.7887H45V37.002H41ZM44.9356 38.7082H44.6137V39.1428H44.2354V39.5291H41.7968V39.1428H41.4185V38.7082H41.0966V37.0824H44.9356V38.7082Z" fill="#1D3A6D"/>
<path d="M41.7968 37.251H41.7163V38.1524H41.7968V37.251Z" fill="#1D3A6D"/>
<path d="M42.1508 37.251H42.0703V38.1524H42.1508V37.251Z" fill="#1D3A6D"/>
<path d="M42.5131 37.251H42.4326V38.1524H42.5131V37.251Z" fill="#1D3A6D"/>
<path d="M42.8671 37.251H42.7866V38.1524H42.8671V37.251Z" fill="#1D3A6D"/>
<path d="M43.2211 37.251H43.1406V38.1524H43.2211V37.251Z" fill="#1D3A6D"/>
<path d="M43.5834 37.251H43.5029V38.1524H43.5834V37.251Z" fill="#1D3A6D"/>
<path d="M43.9374 37.251H43.8569V38.1524H43.9374V37.251Z" fill="#1D3A6D"/>
<path d="M44.2997 37.251H44.2192V38.1524H44.2997V37.251Z" fill="#1D3A6D"/>
<path d="M46 37.002V38.7887H46.3219V39.2233H46.7002V39.6096H49.2998V39.2233H49.6781V38.7887H50V37.002H46ZM49.9356 38.7082H49.6137V39.1428H49.2354V39.5291H46.7968V39.1428H46.4185V38.7082H46.0966V37.0824H49.9356V38.7082Z" fill="#1D3A6D"/>
<path d="M46.7968 37.251H46.7163V38.1524H46.7968V37.251Z" fill="#1D3A6D"/>
<path d="M47.1508 37.251H47.0703V38.1524H47.1508V37.251Z" fill="#1D3A6D"/>
<path d="M47.5131 37.251H47.4326V38.1524H47.5131V37.251Z" fill="#1D3A6D"/>
<path d="M47.8671 37.251H47.7866V38.1524H47.8671V37.251Z" fill="#1D3A6D"/>
<path d="M48.2211 37.251H48.1406V38.1524H48.2211V37.251Z" fill="#1D3A6D"/>
<path d="M48.5834 37.251H48.5029V38.1524H48.5834V37.251Z" fill="#1D3A6D"/>
<path d="M48.9374 37.251H48.8569V38.1524H48.9374V37.251Z" fill="#1D3A6D"/>
<path d="M49.2997 37.251H49.2192V38.1524H49.2997V37.251Z" fill="#1D3A6D"/>
<path d="M51 37.002V38.7887H51.3219V39.2233H51.7002V39.6096H54.2998V39.2233H54.6781V38.7887H55V37.002H51ZM54.9356 38.7082H54.6137V39.1428H54.2354V39.5291H51.7968V39.1428H51.4185V38.7082H51.0966V37.0824H54.9356V38.7082Z" fill="#1D3A6D"/>
<path d="M51.7968 37.251H51.7163V38.1524H51.7968V37.251Z" fill="#1D3A6D"/>
<path d="M52.1508 37.251H52.0703V38.1524H52.1508V37.251Z" fill="#1D3A6D"/>
<path d="M52.5131 37.251H52.4326V38.1524H52.5131V37.251Z" fill="#1D3A6D"/>
<path d="M52.8671 37.251H52.7866V38.1524H52.8671V37.251Z" fill="#1D3A6D"/>
<path d="M53.2211 37.251H53.1406V38.1524H53.2211V37.251Z" fill="#1D3A6D"/>
<path d="M53.5834 37.251H53.5029V38.1524H53.5834V37.251Z" fill="#1D3A6D"/>
<path d="M53.9374 37.251H53.8569V38.1524H53.9374V37.251Z" fill="#1D3A6D"/>
<path d="M54.2997 37.251H54.2192V38.1524H54.2997V37.251Z" fill="#1D3A6D"/>
<path d="M56 37.002V38.7887H56.3219V39.2233H56.7002V39.6096H59.2998V39.2233H59.6781V38.7887H60V37.002H56ZM59.9356 38.7082H59.6137V39.1428H59.2354V39.5291H56.7968V39.1428H56.4185V38.7082H56.0966V37.0824H59.9356V38.7082Z" fill="#1D3A6D"/>
<path d="M56.7968 37.251H56.7163V38.1524H56.7968V37.251Z" fill="#1D3A6D"/>
<path d="M57.1508 37.251H57.0703V38.1524H57.1508V37.251Z" fill="#1D3A6D"/>
<path d="M57.5131 37.251H57.4326V38.1524H57.5131V37.251Z" fill="#1D3A6D"/>
<path d="M57.8671 37.251H57.7866V38.1524H57.8671V37.251Z" fill="#1D3A6D"/>
<path d="M58.2211 37.251H58.1406V38.1524H58.2211V37.251Z" fill="#1D3A6D"/>
<path d="M58.5834 37.251H58.5029V38.1524H58.5834V37.251Z" fill="#1D3A6D"/>
<path d="M58.9374 37.251H58.8569V38.1524H58.9374V37.251Z" fill="#1D3A6D"/>
<path d="M59.2997 37.251H59.2192V38.1524H59.2997V37.251Z" fill="#1D3A6D"/>
<path d="M61 37.002V38.7887H61.3219V39.2233H61.7002V39.6096H64.2998V39.2233H64.6781V38.7887H65V37.002H61ZM64.9356 38.7082H64.6137V39.1428H64.2354V39.5291H61.7968V39.1428H61.4185V38.7082H61.0966V37.0824H64.9356V38.7082Z" fill="#1D3A6D"/>
<path d="M61.7968 37.251H61.7163V38.1524H61.7968V37.251Z" fill="#1D3A6D"/>
<path d="M62.1508 37.251H62.0703V38.1524H62.1508V37.251Z" fill="#1D3A6D"/>
<path d="M62.5131 37.251H62.4326V38.1524H62.5131V37.251Z" fill="#1D3A6D"/>
<path d="M62.8671 37.251H62.7866V38.1524H62.8671V37.251Z" fill="#1D3A6D"/>
<path d="M63.2211 37.251H63.1406V38.1524H63.2211V37.251Z" fill="#1D3A6D"/>
<path d="M63.5834 37.251H63.5029V38.1524H63.5834V37.251Z" fill="#1D3A6D"/>
<path d="M63.9374 37.251H63.8569V38.1524H63.9374V37.251Z" fill="#1D3A6D"/>
<path d="M64.2997 37.251H64.2192V38.1524H64.2997V37.251Z" fill="#1D3A6D"/>
<path d="M65.9985 37.0029V38.7897H66.3205V39.2243H66.6987V39.6106H69.2983V39.2243H69.6766V38.7897H69.9985V37.0029H65.9985ZM69.9341 38.7092H69.6122V39.1438H69.2339V39.5301H66.7953V39.1438H66.417V38.7092H66.0951V37.0834H69.9341V38.7092Z" fill="#1D3A6D"/>
<path d="M66.7953 37.252H66.7148V38.1534H66.7953V37.252Z" fill="#1D3A6D"/>
<path d="M67.1493 37.252H67.0688V38.1534H67.1493V37.252Z" fill="#1D3A6D"/>
<path d="M67.5116 37.252H67.4312V38.1534H67.5116V37.252Z" fill="#1D3A6D"/>
<path d="M67.8656 37.252H67.7852V38.1534H67.8656V37.252Z" fill="#1D3A6D"/>
<path d="M68.2196 37.252H68.1392V38.1534H68.2196V37.252Z" fill="#1D3A6D"/>
<path d="M68.5819 37.252H68.5015V38.1534H68.5819V37.252Z" fill="#1D3A6D"/>
<path d="M68.936 37.252H68.8555V38.1534H68.936V37.252Z" fill="#1D3A6D"/>
<path d="M69.2983 37.252H69.2178V38.1534H69.2983V37.252Z" fill="#1D3A6D"/>
<path d="M70.9985 37.0029V38.7897H71.3205V39.2243H71.6987V39.6106H74.2983V39.2243H74.6766V38.7897H74.9985V37.0029H70.9985ZM74.9341 38.7092H74.6122V39.1438H74.2339V39.5301H71.7953V39.1438H71.417V38.7092H71.0951V37.0834H74.9341V38.7092Z" fill="#1D3A6D"/>
<path d="M71.7953 37.252H71.7148V38.1534H71.7953V37.252Z" fill="#1D3A6D"/>
<path d="M72.1493 37.252H72.0688V38.1534H72.1493V37.252Z" fill="#1D3A6D"/>
<path d="M72.5116 37.252H72.4312V38.1534H72.5116V37.252Z" fill="#1D3A6D"/>
<path d="M72.8656 37.252H72.7852V38.1534H72.8656V37.252Z" fill="#1D3A6D"/>
<path d="M73.2196 37.252H73.1392V38.1534H73.2196V37.252Z" fill="#1D3A6D"/>
<path d="M73.5819 37.252H73.5015V38.1534H73.5819V37.252Z" fill="#1D3A6D"/>
<path d="M73.936 37.252H73.8555V38.1534H73.936V37.252Z" fill="#1D3A6D"/>
<path d="M74.2983 37.252H74.2178V38.1534H74.2983V37.252Z" fill="#1D3A6D"/>
<path d="M75.9985 37.0029V38.7897H76.3205V39.2243H76.6987V39.6106H79.2983V39.2243H79.6766V38.7897H79.9985V37.0029H75.9985ZM79.9341 38.7092H79.6122V39.1438H79.2339V39.5301H76.7953V39.1438H76.417V38.7092H76.0951V37.0834H79.9341V38.7092Z" fill="#1D3A6D"/>
<path d="M76.7953 37.252H76.7148V38.1534H76.7953V37.252Z" fill="#1D3A6D"/>
<path d="M77.1493 37.252H77.0688V38.1534H77.1493V37.252Z" fill="#1D3A6D"/>
<path d="M77.5116 37.252H77.4312V38.1534H77.5116V37.252Z" fill="#1D3A6D"/>
<path d="M77.8656 37.252H77.7852V38.1534H77.8656V37.252Z" fill="#1D3A6D"/>
<path d="M78.2196 37.252H78.1392V38.1534H78.2196V37.252Z" fill="#1D3A6D"/>
<path d="M78.5819 37.252H78.5015V38.1534H78.5819V37.252Z" fill="#1D3A6D"/>
<path d="M78.936 37.252H78.8555V38.1534H78.936V37.252Z" fill="#1D3A6D"/>
<path d="M79.2983 37.252H79.2178V38.1534H79.2983V37.252Z" fill="#1D3A6D"/>
<path d="M80.9985 37.0029V38.7897H81.3205V39.2243H81.6987V39.6106H84.2983V39.2243H84.6766V38.7897H84.9985V37.0029H80.9985ZM84.9341 38.7092H84.6122V39.1438H84.2339V39.5301H81.7953V39.1438H81.417V38.7092H81.0951V37.0834H84.9341V38.7092Z" fill="#1D3A6D"/>
<path d="M81.7953 37.252H81.7148V38.1534H81.7953V37.252Z" fill="#1D3A6D"/>
<path d="M82.1493 37.252H82.0688V38.1534H82.1493V37.252Z" fill="#1D3A6D"/>
<path d="M82.5116 37.252H82.4312V38.1534H82.5116V37.252Z" fill="#1D3A6D"/>
<path d="M82.8656 37.252H82.7852V38.1534H82.8656V37.252Z" fill="#1D3A6D"/>
<path d="M83.2196 37.252H83.1392V38.1534H83.2196V37.252Z" fill="#1D3A6D"/>
<path d="M83.5819 37.252H83.5015V38.1534H83.5819V37.252Z" fill="#1D3A6D"/>
<path d="M83.936 37.252H83.8555V38.1534H83.936V37.252Z" fill="#1D3A6D"/>
<path d="M84.2983 37.252H84.2178V38.1534H84.2983V37.252Z" fill="#1D3A6D"/>
<path d="M85.9985 37.0029V38.7897H86.3205V39.2243H86.6987V39.6106H89.2983V39.2243H89.6766V38.7897H89.9985V37.0029H85.9985ZM89.9341 38.7092H89.6122V39.1438H89.2339V39.5301H86.7953V39.1438H86.417V38.7092H86.0951V37.0834H89.9341V38.7092Z" fill="#1D3A6D"/>
<path d="M86.7953 37.252H86.7148V38.1534H86.7953V37.252Z" fill="#1D3A6D"/>
<path d="M87.1493 37.252H87.0688V38.1534H87.1493V37.252Z" fill="#1D3A6D"/>
<path d="M87.5116 37.252H87.4312V38.1534H87.5116V37.252Z" fill="#1D3A6D"/>
<path d="M87.8656 37.252H87.7852V38.1534H87.8656V37.252Z" fill="#1D3A6D"/>
<path d="M88.2196 37.252H88.1392V38.1534H88.2196V37.252Z" fill="#1D3A6D"/>
<path d="M88.5819 37.252H88.5015V38.1534H88.5819V37.252Z" fill="#1D3A6D"/>
<path d="M88.936 37.252H88.8555V38.1534H88.936V37.252Z" fill="#1D3A6D"/>
<path d="M89.2983 37.252H89.2178V38.1534H89.2983V37.252Z" fill="#1D3A6D"/>
<path d="M90.9985 37.0029V38.7897H91.3205V39.2243H91.6987V39.6106H94.2983V39.2243H94.6766V38.7897H94.9985V37.0029H90.9985ZM94.9341 38.7092H94.6122V39.1438H94.2339V39.5301H91.7953V39.1438H91.417V38.7092H91.0951V37.0834H94.9341V38.7092Z" fill="#1D3A6D"/>
<path d="M91.7953 37.252H91.7148V38.1534H91.7953V37.252Z" fill="#1D3A6D"/>
<path d="M92.1493 37.252H92.0688V38.1534H92.1493V37.252Z" fill="#1D3A6D"/>
<path d="M92.5116 37.252H92.4312V38.1534H92.5116V37.252Z" fill="#1D3A6D"/>
<path d="M92.8656 37.252H92.7852V38.1534H92.8656V37.252Z" fill="#1D3A6D"/>
<path d="M93.2196 37.252H93.1392V38.1534H93.2196V37.252Z" fill="#1D3A6D"/>
<path d="M93.5819 37.252H93.5015V38.1534H93.5819V37.252Z" fill="#1D3A6D"/>
<path d="M93.936 37.252H93.8555V38.1534H93.936V37.252Z" fill="#1D3A6D"/>
<path d="M94.2983 37.252H94.2178V38.1534H94.2983V37.252Z" fill="#1D3A6D"/>
<path d="M95.9985 37.0029V38.7897H96.3205V39.2243H96.6987V39.6106H99.2983V39.2243H99.6766V38.7897H99.9985V37.0029H95.9985ZM99.9341 38.7092H99.6122V39.1438H99.2339V39.5301H96.7953V39.1438H96.417V38.7092H96.0951V37.0834H99.9341V38.7092Z" fill="#1D3A6D"/>
<path d="M96.7953 37.252H96.7148V38.1534H96.7953V37.252Z" fill="#1D3A6D"/>
<path d="M97.1493 37.252H97.0688V38.1534H97.1493V37.252Z" fill="#1D3A6D"/>
<path d="M97.5116 37.252H97.4312V38.1534H97.5116V37.252Z" fill="#1D3A6D"/>
<path d="M97.8656 37.252H97.7852V38.1534H97.8656V37.252Z" fill="#1D3A6D"/>
<path d="M98.2196 37.252H98.1392V38.1534H98.2196V37.252Z" fill="#1D3A6D"/>
<path d="M98.5819 37.252H98.5015V38.1534H98.5819V37.252Z" fill="#1D3A6D"/>
<path d="M98.936 37.252H98.8555V38.1534H98.936V37.252Z" fill="#1D3A6D"/>
<path d="M99.2983 37.252H99.2178V38.1534H99.2983V37.252Z" fill="#1D3A6D"/>
<path d="M100.999 37.0029V38.7897H101.321V39.2243H101.699V39.6106H104.299V39.2243H104.677V38.7897H104.999V37.0029H100.999ZM104.935 38.7092H104.613V39.1438H104.234V39.5301H101.796V39.1438H101.418V38.7092H101.096V37.0834H104.935V38.7092Z" fill="#1D3A6D"/>
<path d="M101.796 37.252H101.715V38.1534H101.796V37.252Z" fill="#1D3A6D"/>
<path d="M102.15 37.252H102.069V38.1534H102.15V37.252Z" fill="#1D3A6D"/>
<path d="M102.512 37.252H102.432V38.1534H102.512V37.252Z" fill="#1D3A6D"/>
<path d="M102.866 37.252H102.786V38.1534H102.866V37.252Z" fill="#1D3A6D"/>
<path d="M103.22 37.252H103.14V38.1534H103.22V37.252Z" fill="#1D3A6D"/>
<path d="M103.582 37.252H103.502V38.1534H103.582V37.252Z" fill="#1D3A6D"/>
<path d="M103.936 37.252H103.856V38.1534H103.936V37.252Z" fill="#1D3A6D"/>
<path d="M104.299 37.252H104.218V38.1534H104.299V37.252Z" fill="#1D3A6D"/>
<rect x="16.7432" y="187.25" width="156.513" height="26.4867" rx="2.75" stroke="#1D3A6D" stroke-width="0.5"/>
<rect x="16.7432" y="103.836" width="156.513" height="26.4867" rx="2.75" stroke="#1D3A6D" stroke-width="0.5"/>
<rect x="16.7432" y="20.4229" width="156.513" height="26.4867" rx="2.75" stroke="#1D3A6D" stroke-width="0.5"/>
<rect x="16.7432" y="62.1299" width="156.513" height="26.4867" rx="2.75" stroke="#1D3A6D" stroke-width="0.5"/>
<rect x="16.7432" y="145.543" width="156.513" height="26.4867" rx="2.75" stroke="#1D3A6D" stroke-width="0.5"/>
<rect x="24.1035" y="190.93" width="141.793" height="19.1267" rx="2.75" stroke="#1D3A6D" stroke-width="0.5"/>
<circle cx="35" cy="202" r="4.75" stroke="#1D3A6D" stroke-width="0.5"/>
<circle cx="47.1603" cy="195.586" r="1.22667" fill="url(#paint0_radial_1118_5625)"/>
<path d="M35 198V201.68" stroke="#1D3A6D" stroke-width="0.5"/>
<path d="M35.9491 199.216C36.6335 199.422 37.2218 199.866 37.6078 200.467C37.9939 201.068 38.1523 201.788 38.0545 202.496C37.9568 203.204 37.6092 203.854 37.0746 204.328C36.54 204.802 35.8535 205.07 35.139 205.082C34.4244 205.095 33.7289 204.852 33.1778 204.397C32.6267 203.942 32.2563 203.305 32.1335 202.601C32.0107 201.897 32.1435 201.172 32.508 200.557C32.8725 199.943 33.4446 199.478 34.1213 199.248L34.2266 199.558C33.6238 199.763 33.1141 200.177 32.7894 200.724C32.4646 201.272 32.3463 201.918 32.4557 202.545C32.5651 203.172 32.8951 203.739 33.386 204.145C33.877 204.55 34.4966 204.767 35.1332 204.755C35.7697 204.744 36.3813 204.506 36.8575 204.083C37.3338 203.661 37.6434 203.082 37.7305 202.451C37.8176 201.82 37.6765 201.179 37.3326 200.644C36.9886 200.108 36.4646 199.713 35.8549 199.529L35.9491 199.216Z" fill="#1D3A6D"/>
<rect x="16.7432" y="228.957" width="156.513" height="16.6733" rx="2.75" stroke="#1D3A6D" stroke-width="0.5"/>
<circle cx="98.9067" cy="236.907" r="4.85667" fill="#F3F5FA" stroke="#1D3A6D" stroke-width="0.1"/>
<circle cx="100.747" cy="238.746" r="0.613333" fill="#1D3A6D"/>
<circle cx="97.0665" cy="235.066" r="0.613333" fill="#1D3A6D"/>
<circle cx="49.6132" cy="237.293" r="4.85667" fill="#F3F5FA" stroke="#1D3A6D" stroke-width="0.1"/>
<circle cx="47.7735" cy="235.453" r="0.613333" fill="#1D3A6D"/>
<circle cx="51.4532" cy="239.133" r="0.613333" fill="#1D3A6D"/>
<circle cx="61.8798" cy="237.293" r="4.85667" fill="#F3F5FA" stroke="#1D3A6D" stroke-width="0.1"/>
<circle cx="60.0401" cy="235.453" r="0.613333" fill="#1D3A6D"/>
<circle cx="63.7198" cy="239.133" r="0.613333" fill="#1D3A6D"/>
<circle cx="74.1464" cy="237.293" r="4.85667" fill="#F3F5FA" stroke="#1D3A6D" stroke-width="0.1"/>
<circle cx="72.3067" cy="235.453" r="0.613333" fill="#1D3A6D"/>
<circle cx="75.9864" cy="239.133" r="0.613333" fill="#1D3A6D"/>
<circle cx="86.4135" cy="237.293" r="4.85667" fill="#F3F5FA" stroke="#1D3A6D" stroke-width="0.1"/>
<circle cx="84.5733" cy="235.453" r="0.613333" fill="#1D3A6D"/>
<circle cx="88.2535" cy="239.133" r="0.613333" fill="#1D3A6D"/>
<circle cx="110.947" cy="237.293" r="4.85667" fill="#F3F5FA" stroke="#1D3A6D" stroke-width="0.1"/>
<circle cx="109.106" cy="235.453" r="0.613333" fill="#1D3A6D"/>
<circle cx="112.787" cy="239.133" r="0.613333" fill="#1D3A6D"/>
<circle cx="123.213" cy="237.293" r="4.85667" fill="#F3F5FA" stroke="#1D3A6D" stroke-width="0.1"/>
<circle cx="121.373" cy="235.453" r="0.613333" fill="#1D3A6D"/>
<circle cx="125.054" cy="239.133" r="0.613333" fill="#1D3A6D"/>
<circle cx="135.48" cy="237.293" r="4.85667" fill="#F3F5FA" stroke="#1D3A6D" stroke-width="0.1"/>
<circle cx="133.64" cy="235.453" r="0.613333" fill="#1D3A6D"/>
<circle cx="137.32" cy="239.133" r="0.613333" fill="#1D3A6D"/>
<circle cx="147.747" cy="237.293" r="4.85667" fill="#F3F5FA" stroke="#1D3A6D" stroke-width="0.1"/>
<circle cx="145.906" cy="235.453" r="0.613333" fill="#1D3A6D"/>
<circle cx="149.586" cy="239.133" r="0.613333" fill="#1D3A6D"/>
<circle cx="160.013" cy="237.293" r="4.85667" fill="#F3F5FA" stroke="#1D3A6D" stroke-width="0.1"/>
<circle cx="158.173" cy="235.453" r="0.613333" fill="#1D3A6D"/>
<circle cx="161.853" cy="239.133" r="0.613333" fill="#1D3A6D"/>
<path d="M33 233.613H37V240.973H33V233.613Z" fill="#F50000"/>
<path d="M35 234V236" stroke="white" stroke-width="0.5"/>
<circle cx="35" cy="239" r="0.9" stroke="white" stroke-width="0.2"/>
<rect x="22.8765" y="107.517" width="146.7" height="20.3533" rx="2.75" stroke="#1D3A6D" stroke-width="0.5"/>
<circle cx="162.466" cy="112.173" r="1.22667" fill="url(#paint1_radial_1118_5625)"/>
<circle cx="162.466" cy="115.854" r="1.22667" fill="url(#paint2_radial_1118_5625)"/>
<circle cx="162.466" cy="119.533" r="1.22667" fill="url(#paint3_radial_1118_5625)"/>
<circle cx="162.466" cy="123.213" r="1.22667" fill="url(#paint4_radial_1118_5625)"/>
<rect x="27.25" y="118.25" width="38.5" height="5.5" rx="0.75" stroke="#1D3A6D" stroke-width="0.5"/>
<rect x="27.25" y="110.25" width="38.5" height="5.5" rx="0.75" stroke="#1D3A6D" stroke-width="0.5"/>
<rect x="69.25" y="118.25" width="38.5" height="5.5" rx="0.75" stroke="#1D3A6D" stroke-width="0.5"/>
<rect x="69.25" y="110.25" width="38.5" height="5.5" rx="0.75" stroke="#1D3A6D" stroke-width="0.5"/>
<rect x="111.25" y="110.25" width="38.5" height="5.5" rx="0.75" stroke="#1D3A6D" stroke-width="0.5"/>
<rect x="111.25" y="118.25" width="38.5" height="5.5" rx="0.75" stroke="#1D3A6D" stroke-width="0.5"/>
<path d="M105.4 113C105.4 113.773 104.773 114.4 104 114.4C103.227 114.4 102.6 113.773 102.6 113C102.6 112.227 103.227 111.6 104 111.6C104.773 111.6 105.4 112.227 105.4 113Z" stroke="#1D3A6D" stroke-width="0.2"/>
<path d="M105.4 121C105.4 121.773 104.773 122.4 104 122.4C103.227 122.4 102.6 121.773 102.6 121C102.6 120.227 103.227 119.6 104 119.6C104.773 119.6 105.4 120.227 105.4 121Z" stroke="#1D3A6D" stroke-width="0.2"/>
<path d="M147.4 121C147.4 121.773 146.773 122.4 146 122.4C145.227 122.4 144.6 121.773 144.6 121C144.6 120.227 145.227 119.6 146 119.6C146.773 119.6 147.4 120.227 147.4 121Z" stroke="#1D3A6D" stroke-width="0.2"/>
<path d="M147.4 113C147.4 113.773 146.773 114.4 146 114.4C145.227 114.4 144.6 113.773 144.6 113C144.6 112.227 145.227 111.6 146 111.6C146.773 111.6 147.4 112.227 147.4 113Z" stroke="#1D3A6D" stroke-width="0.2"/>
<path d="M63.4 113C63.4 113.773 62.7732 114.4 62 114.4C61.2268 114.4 60.6 113.773 60.6 113C60.6 112.227 61.2268 111.6 62 111.6C62.7732 111.6 63.4 112.227 63.4 113Z" stroke="#1D3A6D" stroke-width="0.2"/>
<path d="M63.4 121C63.4 121.773 62.7732 122.4 62 122.4C61.2268 122.4 60.6 121.773 60.6 121C60.6 120.227 61.2268 119.6 62 119.6C62.7732 119.6 63.4 120.227 63.4 121Z" stroke="#1D3A6D" stroke-width="0.2"/>
<rect x="23.25" y="65.25" width="146.7" height="20.3533" rx="2.75" stroke="#1D3A6D" stroke-width="0.5"/>
<circle cx="162.84" cy="69.9064" r="1.22667" fill="url(#paint5_radial_1118_5625)"/>
<circle cx="162.84" cy="73.587" r="1.22667" fill="url(#paint6_radial_1118_5625)"/>
<circle cx="162.84" cy="77.2667" r="1.22667" fill="url(#paint7_radial_1118_5625)"/>
<circle cx="162.84" cy="80.9464" r="1.22667" fill="url(#paint8_radial_1118_5625)"/>
<rect x="27.6235" y="75.9834" width="38.5" height="5.5" rx="0.75" stroke="#1D3A6D" stroke-width="0.5"/>
<rect x="27.6235" y="67.9834" width="38.5" height="5.5" rx="0.75" stroke="#1D3A6D" stroke-width="0.5"/>
<rect x="69.6235" y="75.9834" width="38.5" height="5.5" rx="0.75" stroke="#1D3A6D" stroke-width="0.5"/>
<rect x="69.6235" y="67.9834" width="38.5" height="5.5" rx="0.75" stroke="#1D3A6D" stroke-width="0.5"/>
<rect x="111.624" y="67.9834" width="38.5" height="5.5" rx="0.75" stroke="#1D3A6D" stroke-width="0.5"/>
<rect x="111.624" y="75.9834" width="38.5" height="5.5" rx="0.75" stroke="#1D3A6D" stroke-width="0.5"/>
<path d="M105.774 70.7334C105.774 71.5066 105.147 72.1334 104.374 72.1334C103.6 72.1334 102.974 71.5066 102.974 70.7334C102.974 69.9602 103.6 69.3334 104.374 69.3334C105.147 69.3334 105.774 69.9602 105.774 70.7334Z" stroke="#1D3A6D" stroke-width="0.2"/>
<path d="M105.774 78.7334C105.774 79.5066 105.147 80.1334 104.374 80.1334C103.6 80.1334 102.974 79.5066 102.974 78.7334C102.974 77.9602 103.6 77.3334 104.374 77.3334C105.147 77.3334 105.774 77.9602 105.774 78.7334Z" stroke="#1D3A6D" stroke-width="0.2"/>
<path d="M147.774 78.7334C147.774 79.5066 147.147 80.1334 146.374 80.1334C145.6 80.1334 144.974 79.5066 144.974 78.7334C144.974 77.9602 145.6 77.3334 146.374 77.3334C147.147 77.3334 147.774 77.9602 147.774 78.7334Z" stroke="#1D3A6D" stroke-width="0.2"/>
<path d="M147.774 70.7334C147.774 71.5066 147.147 72.1334 146.374 72.1334C145.6 72.1334 144.974 71.5066 144.974 70.7334C144.974 69.9602 145.6 69.3334 146.374 69.3334C147.147 69.3334 147.774 69.9602 147.774 70.7334Z" stroke="#1D3A6D" stroke-width="0.2"/>
<path d="M63.7735 70.7334C63.7735 71.5066 63.1467 72.1334 62.3735 72.1334C61.6003 72.1334 60.9735 71.5066 60.9735 70.7334C60.9735 69.9602 61.6003 69.3334 62.3735 69.3334C63.1467 69.3334 63.7735 69.9602 63.7735 70.7334Z" stroke="#1D3A6D" stroke-width="0.2"/>
<path d="M63.7735 78.7334C63.7735 79.5066 63.1467 80.1334 62.3735 80.1334C61.6003 80.1334 60.9735 79.5066 60.9735 78.7334C60.9735 77.9602 61.6003 77.3334 62.3735 77.3334C63.1467 77.3334 63.7735 77.9602 63.7735 78.7334Z" stroke="#1D3A6D" stroke-width="0.2"/>
<rect x="25.3301" y="151.677" width="102.54" height="17.9" rx="2.75" stroke="#1D3A6D" stroke-width="0.5"/>
<path d="M66.1733 157.047H66.6866V158.687H59.5266V157.867V157.047H60.04H60.0636L60.0847 157.037L61.2902 156.434L64.923 156.434L66.1286 157.037L66.1497 157.047H66.1733Z" stroke="#1D3A6D" stroke-width="0.2"/>
<circle cx="121.987" cy="155.107" r="1.22667" fill="url(#paint9_radial_1118_5625)"/>
<circle cx="121.987" cy="158.787" r="1.22667" fill="url(#paint10_radial_1118_5625)"/>
<circle cx="121.987" cy="162.467" r="1.22667" fill="url(#paint11_radial_1118_5625)"/>
<circle cx="121.987" cy="166.147" r="1.22667" fill="url(#paint12_radial_1118_5625)"/>
<rect x="75.4735" y="153.98" width="41.5067" height="13.2933" rx="1.9" fill="#F3F5FA" stroke="#1D3A6D" stroke-width="0.2"/>
<rect x="33.6167" y="161.29" width="5.45146" height="2.35333" transform="rotate(89.7547 33.6167 161.29)" fill="#F3F5FA" stroke="#1D3A6D" stroke-width="0.1"/>
<rect x="37.2969" y="161.29" width="5.47313" height="2.35333" transform="rotate(89.7547 37.2969 161.29)" fill="#F3F5FA" stroke="#1D3A6D" stroke-width="0.1"/>
<path d="M36 157.607V155.821H35.6781V155.386H35.2998V155H32.7002V155.386H32.3219V155.821H32V157.607H36ZM32.0644 155.901H32.3863V155.467H32.7646V155.08H35.2032V155.467H35.5815V155.901H35.9034V157.527H32.0644V155.901Z" fill="#1D3A6D"/>
<path d="M35.2032 157.358H35.2837V156.457H35.2032V157.358Z" fill="#1D3A6D"/>
<path d="M34.8492 157.358H34.9297V156.457H34.8492V157.358Z" fill="#1D3A6D"/>
<path d="M34.4869 157.358H34.5674V156.457H34.4869V157.358Z" fill="#1D3A6D"/>
<path d="M34.1329 157.358H34.2134V156.457H34.1329V157.358Z" fill="#1D3A6D"/>
<path d="M33.7789 157.358H33.8594V156.457H33.7789V157.358Z" fill="#1D3A6D"/>
<path d="M33.4166 157.358H33.4971V156.457H33.4166V157.358Z" fill="#1D3A6D"/>
<path d="M33.0626 157.358H33.1431V156.457H33.0626V157.358Z" fill="#1D3A6D"/>
<path d="M32.7003 157.358H32.7808V156.457H32.7003V157.358Z" fill="#1D3A6D"/>
<defs>
<radialGradient id="paint0_radial_1118_5625" cx="0" cy="0" r="1" gradientUnits="userSpaceOnUse" gradientTransform="translate(47.1603 195.586) rotate(90) scale(1.22667)">
<stop offset="0.817708" stop-color="#4AEA5A"/>
<stop offset="1"/>
</radialGradient>
<radialGradient id="paint1_radial_1118_5625" cx="0" cy="0" r="1" gradientUnits="userSpaceOnUse" gradientTransform="translate(162.466 112.173) rotate(90) scale(1.22667)">
<stop offset="0.828125" stop-color="#45FA35"/>
<stop offset="1"/>
</radialGradient>
<radialGradient id="paint2_radial_1118_5625" cx="0" cy="0" r="1" gradientUnits="userSpaceOnUse" gradientTransform="translate(162.466 115.854) rotate(90) scale(1.22667)">
<stop offset="0.828125" stop-color="#45FA35"/>
<stop offset="1"/>
</radialGradient>
<radialGradient id="paint3_radial_1118_5625" cx="0" cy="0" r="1" gradientUnits="userSpaceOnUse" gradientTransform="translate(162.466 119.533) rotate(90) scale(1.22667)">
<stop offset="0.828125" stop-color="#45FA35"/>
<stop offset="1"/>
</radialGradient>
<radialGradient id="paint4_radial_1118_5625" cx="0" cy="0" r="1" gradientUnits="userSpaceOnUse" gradientTransform="translate(162.466 123.213) rotate(90) scale(1.22667)">
<stop offset="0.828125" stop-color="#45FA35"/>
<stop offset="1"/>
</radialGradient>
<radialGradient id="paint5_radial_1118_5625" cx="0" cy="0" r="1" gradientUnits="userSpaceOnUse" gradientTransform="translate(162.84 69.9064) rotate(90) scale(1.22667)">
<stop offset="0.828125" stop-color="#45FA35"/>
<stop offset="1"/>
</radialGradient>
<radialGradient id="paint6_radial_1118_5625" cx="0" cy="0" r="1" gradientUnits="userSpaceOnUse" gradientTransform="translate(162.84 73.587) rotate(90) scale(1.22667)">
<stop offset="0.828125" stop-color="#45FA35"/>
<stop offset="1"/>
</radialGradient>
<radialGradient id="paint7_radial_1118_5625" cx="0" cy="0" r="1" gradientUnits="userSpaceOnUse" gradientTransform="translate(162.84 77.2667) rotate(90) scale(1.22667)">
<stop offset="0.828125" stop-color="#45FA35"/>
<stop offset="1"/>
</radialGradient>
<radialGradient id="paint8_radial_1118_5625" cx="0" cy="0" r="1" gradientUnits="userSpaceOnUse" gradientTransform="translate(162.84 80.9464) rotate(90) scale(1.22667)">
<stop offset="0.828125" stop-color="#45FA35"/>
<stop offset="1"/>
</radialGradient>
<radialGradient id="paint9_radial_1118_5625" cx="0" cy="0" r="1" gradientUnits="userSpaceOnUse" gradientTransform="translate(121.987 155.107) rotate(90) scale(1.22667)">
<stop offset="0.828125" stop-color="#45FA35"/>
<stop offset="1"/>
</radialGradient>
<radialGradient id="paint10_radial_1118_5625" cx="0" cy="0" r="1" gradientUnits="userSpaceOnUse" gradientTransform="translate(121.987 158.787) rotate(90) scale(1.22667)">
<stop offset="0.828125" stop-color="#45FA35"/>
<stop offset="1"/>
</radialGradient>
<radialGradient id="paint11_radial_1118_5625" cx="0" cy="0" r="1" gradientUnits="userSpaceOnUse" gradientTransform="translate(121.987 162.467) rotate(90) scale(1.22667)">
<stop offset="0.828125" stop-color="#45FA35"/>
<stop offset="1"/>
</radialGradient>
<radialGradient id="paint12_radial_1118_5625" cx="0" cy="0" r="1" gradientUnits="userSpaceOnUse" gradientTransform="translate(121.987 166.147) rotate(90) scale(1.22667)">
<stop offset="0.828125" stop-color="#45FA35"/>
<stop offset="1"/>
</radialGradient>
</defs>
</svg>
