<svg width="510" height="286" viewBox="0 0 510 286" fill="none" xmlns="http://www.w3.org/2000/svg">
<rect x="163.25" y="8.25" width="183.5" height="269.367" stroke="#1D3A6D" stroke-width="0.5"/>
<rect x="160.25" y="5.25" width="189.5" height="275.5" stroke="#1D3A6D" stroke-width="0.5"/>
<ellipse cx="276.956" cy="36.1329" rx="1.41111" ry="1.22667" fill="#D9D9D9"/>
<ellipse cx="276.956" cy="39.8126" rx="1.41111" ry="1.22667" fill="#D9D9D9"/>
<ellipse cx="276.956" cy="43.4933" rx="1.41111" ry="1.22667" fill="#D9D9D9"/>
<rect x="181.25" y="30.25" width="101.1" height="19.1267" rx="2.75" stroke="#1D3A6D" stroke-width="0.5"/>
<path d="M190 36.6074V34.8207H189.678V34.3861H189.3V33.9998H186.7V34.3861H186.322V34.8207H186V36.6074H190ZM186.064 34.9012H186.386V34.4666H186.765V34.0803H189.203V34.4666H189.581V34.9012H189.903V36.5269H186.064V34.9012Z" fill="#1D3A6D"/>
<path d="M189.203 36.3584H189.284V35.457H189.203V36.3584Z" fill="#1D3A6D"/>
<path d="M188.849 36.3584H188.93V35.457H188.849V36.3584Z" fill="#1D3A6D"/>
<path d="M188.487 36.3584H188.567V35.457H188.487V36.3584Z" fill="#1D3A6D"/>
<path d="M188.133 36.3584H188.213V35.457H188.133V36.3584Z" fill="#1D3A6D"/>
<path d="M187.779 36.3584H187.859V35.457H187.779V36.3584Z" fill="#1D3A6D"/>
<path d="M187.417 36.3584H187.497V35.457H187.417V36.3584Z" fill="#1D3A6D"/>
<path d="M187.063 36.3584H187.143V35.457H187.063V36.3584Z" fill="#1D3A6D"/>
<path d="M186.7 36.3584H186.781V35.457H186.7V36.3584Z" fill="#1D3A6D"/>
<path d="M195 36.6074V34.8207H194.678V34.3861H194.3V33.9998H191.7V34.3861H191.322V34.8207H191V36.6074H195ZM191.064 34.9012H191.386V34.4666H191.765V34.0803H194.203V34.4666H194.581V34.9012H194.903V36.5269H191.064V34.9012Z" fill="#1D3A6D"/>
<path d="M194.203 36.3584H194.284V35.457H194.203V36.3584Z" fill="#1D3A6D"/>
<path d="M193.849 36.3584H193.93V35.457H193.849V36.3584Z" fill="#1D3A6D"/>
<path d="M193.487 36.3584H193.567V35.457H193.487V36.3584Z" fill="#1D3A6D"/>
<path d="M193.133 36.3584H193.213V35.457H193.133V36.3584Z" fill="#1D3A6D"/>
<path d="M192.779 36.3584H192.859V35.457H192.779V36.3584Z" fill="#1D3A6D"/>
<path d="M192.417 36.3584H192.497V35.457H192.417V36.3584Z" fill="#1D3A6D"/>
<path d="M192.063 36.3584H192.143V35.457H192.063V36.3584Z" fill="#1D3A6D"/>
<path d="M191.7 36.3584H191.781V35.457H191.7V36.3584Z" fill="#1D3A6D"/>
<path d="M200 36.6074V34.8207H199.678V34.3861H199.3V33.9998H196.7V34.3861H196.322V34.8207H196V36.6074H200ZM196.064 34.9012H196.386V34.4666H196.765V34.0803H199.203V34.4666H199.581V34.9012H199.903V36.5269H196.064V34.9012Z" fill="#1D3A6D"/>
<path d="M199.203 36.3584H199.284V35.457H199.203V36.3584Z" fill="#1D3A6D"/>
<path d="M198.849 36.3584H198.93V35.457H198.849V36.3584Z" fill="#1D3A6D"/>
<path d="M198.487 36.3584H198.567V35.457H198.487V36.3584Z" fill="#1D3A6D"/>
<path d="M198.133 36.3584H198.213V35.457H198.133V36.3584Z" fill="#1D3A6D"/>
<path d="M197.779 36.3584H197.859V35.457H197.779V36.3584Z" fill="#1D3A6D"/>
<path d="M197.417 36.3584H197.497V35.457H197.417V36.3584Z" fill="#1D3A6D"/>
<path d="M197.063 36.3584H197.143V35.457H197.063V36.3584Z" fill="#1D3A6D"/>
<path d="M196.7 36.3584H196.781V35.457H196.7V36.3584Z" fill="#1D3A6D"/>
<path d="M205 36.6074V34.8207H204.678V34.3861H204.3V33.9998H201.7V34.3861H201.322V34.8207H201V36.6074H205ZM201.064 34.9012H201.386V34.4666H201.765V34.0803H204.203V34.4666H204.581V34.9012H204.903V36.5269H201.064V34.9012Z" fill="#1D3A6D"/>
<path d="M204.203 36.3584H204.284V35.457H204.203V36.3584Z" fill="#1D3A6D"/>
<path d="M203.849 36.3584H203.93V35.457H203.849V36.3584Z" fill="#1D3A6D"/>
<path d="M203.487 36.3584H203.567V35.457H203.487V36.3584Z" fill="#1D3A6D"/>
<path d="M203.133 36.3584H203.213V35.457H203.133V36.3584Z" fill="#1D3A6D"/>
<path d="M202.779 36.3584H202.859V35.457H202.779V36.3584Z" fill="#1D3A6D"/>
<path d="M202.417 36.3584H202.497V35.457H202.417V36.3584Z" fill="#1D3A6D"/>
<path d="M202.063 36.3584H202.143V35.457H202.063V36.3584Z" fill="#1D3A6D"/>
<path d="M201.7 36.3584H201.781V35.457H201.7V36.3584Z" fill="#1D3A6D"/>
<path d="M210 36.6074V34.8207H209.678V34.3861H209.3V33.9998H206.7V34.3861H206.322V34.8207H206V36.6074H210ZM206.064 34.9012H206.386V34.4666H206.765V34.0803H209.203V34.4666H209.581V34.9012H209.903V36.5269H206.064V34.9012Z" fill="#1D3A6D"/>
<path d="M209.203 36.3584H209.284V35.457H209.203V36.3584Z" fill="#1D3A6D"/>
<path d="M208.849 36.3584H208.93V35.457H208.849V36.3584Z" fill="#1D3A6D"/>
<path d="M208.487 36.3584H208.567V35.457H208.487V36.3584Z" fill="#1D3A6D"/>
<path d="M208.133 36.3584H208.213V35.457H208.133V36.3584Z" fill="#1D3A6D"/>
<path d="M207.779 36.3584H207.859V35.457H207.779V36.3584Z" fill="#1D3A6D"/>
<path d="M207.417 36.3584H207.497V35.457H207.417V36.3584Z" fill="#1D3A6D"/>
<path d="M207.063 36.3584H207.143V35.457H207.063V36.3584Z" fill="#1D3A6D"/>
<path d="M206.7 36.3584H206.781V35.457H206.7V36.3584Z" fill="#1D3A6D"/>
<path d="M215 36.6074V34.8207H214.678V34.3861H214.3V33.9998H211.7V34.3861H211.322V34.8207H211V36.6074H215ZM211.064 34.9012H211.386V34.4666H211.765V34.0803H214.203V34.4666H214.581V34.9012H214.903V36.5269H211.064V34.9012Z" fill="#1D3A6D"/>
<path d="M214.203 36.3584H214.284V35.457H214.203V36.3584Z" fill="#1D3A6D"/>
<path d="M213.849 36.3584H213.93V35.457H213.849V36.3584Z" fill="#1D3A6D"/>
<path d="M213.487 36.3584H213.567V35.457H213.487V36.3584Z" fill="#1D3A6D"/>
<path d="M213.133 36.3584H213.213V35.457H213.133V36.3584Z" fill="#1D3A6D"/>
<path d="M212.779 36.3584H212.859V35.457H212.779V36.3584Z" fill="#1D3A6D"/>
<path d="M212.417 36.3584H212.497V35.457H212.417V36.3584Z" fill="#1D3A6D"/>
<path d="M212.063 36.3584H212.143V35.457H212.063V36.3584Z" fill="#1D3A6D"/>
<path d="M211.7 36.3584H211.781V35.457H211.7V36.3584Z" fill="#1D3A6D"/>
<path d="M220 36.6074V34.8207H219.678V34.3861H219.3V33.9998H216.7V34.3861H216.322V34.8207H216V36.6074H220ZM216.064 34.9012H216.386V34.4666H216.765V34.0803H219.203V34.4666H219.581V34.9012H219.903V36.5269H216.064V34.9012Z" fill="#1D3A6D"/>
<path d="M219.203 36.3584H219.284V35.457H219.203V36.3584Z" fill="#1D3A6D"/>
<path d="M218.849 36.3584H218.93V35.457H218.849V36.3584Z" fill="#1D3A6D"/>
<path d="M218.487 36.3584H218.567V35.457H218.487V36.3584Z" fill="#1D3A6D"/>
<path d="M218.133 36.3584H218.213V35.457H218.133V36.3584Z" fill="#1D3A6D"/>
<path d="M217.779 36.3584H217.859V35.457H217.779V36.3584Z" fill="#1D3A6D"/>
<path d="M217.417 36.3584H217.497V35.457H217.417V36.3584Z" fill="#1D3A6D"/>
<path d="M217.063 36.3584H217.143V35.457H217.063V36.3584Z" fill="#1D3A6D"/>
<path d="M216.7 36.3584H216.781V35.457H216.7V36.3584Z" fill="#1D3A6D"/>
<path d="M225 36.6074V34.8207H224.678V34.3861H224.3V33.9998H221.7V34.3861H221.322V34.8207H221V36.6074H225ZM221.064 34.9012H221.386V34.4666H221.765V34.0803H224.203V34.4666H224.581V34.9012H224.903V36.5269H221.064V34.9012Z" fill="#1D3A6D"/>
<path d="M224.203 36.3584H224.284V35.457H224.203V36.3584Z" fill="#1D3A6D"/>
<path d="M223.849 36.3584H223.93V35.457H223.849V36.3584Z" fill="#1D3A6D"/>
<path d="M223.487 36.3584H223.567V35.457H223.487V36.3584Z" fill="#1D3A6D"/>
<path d="M223.133 36.3584H223.213V35.457H223.133V36.3584Z" fill="#1D3A6D"/>
<path d="M222.779 36.3584H222.859V35.457H222.779V36.3584Z" fill="#1D3A6D"/>
<path d="M222.417 36.3584H222.497V35.457H222.417V36.3584Z" fill="#1D3A6D"/>
<path d="M222.063 36.3584H222.143V35.457H222.063V36.3584Z" fill="#1D3A6D"/>
<path d="M221.7 36.3584H221.781V35.457H221.7V36.3584Z" fill="#1D3A6D"/>
<path d="M229.999 36.6084V34.8217H229.677V34.3871H229.299V34.0007H226.699V34.3871H226.321V34.8217H225.999V36.6084H229.999ZM226.063 34.9022H226.385V34.4676H226.764V34.0812H229.202V34.4676H229.581V34.9022H229.902V36.5279H226.063V34.9022Z" fill="#1D3A6D"/>
<path d="M229.202 36.3594H229.283V35.458H229.202V36.3594Z" fill="#1D3A6D"/>
<path d="M228.848 36.3594H228.929V35.458H228.848V36.3594Z" fill="#1D3A6D"/>
<path d="M228.486 36.3594H228.566V35.458H228.486V36.3594Z" fill="#1D3A6D"/>
<path d="M228.132 36.3594H228.212V35.458H228.132V36.3594Z" fill="#1D3A6D"/>
<path d="M227.778 36.3594H227.858V35.458H227.778V36.3594Z" fill="#1D3A6D"/>
<path d="M227.416 36.3594H227.496V35.458H227.416V36.3594Z" fill="#1D3A6D"/>
<path d="M227.062 36.3594H227.142V35.458H227.062V36.3594Z" fill="#1D3A6D"/>
<path d="M226.699 36.3594H226.78V35.458H226.699V36.3594Z" fill="#1D3A6D"/>
<path d="M234.999 36.6084V34.8217H234.677V34.3871H234.299V34.0007H231.699V34.3871H231.321V34.8217H230.999V36.6084H234.999ZM231.063 34.9022H231.385V34.4676H231.764V34.0812H234.202V34.4676H234.581V34.9022H234.902V36.5279H231.063V34.9022Z" fill="#1D3A6D"/>
<path d="M234.202 36.3594H234.283V35.458H234.202V36.3594Z" fill="#1D3A6D"/>
<path d="M233.848 36.3594H233.929V35.458H233.848V36.3594Z" fill="#1D3A6D"/>
<path d="M233.486 36.3594H233.566V35.458H233.486V36.3594Z" fill="#1D3A6D"/>
<path d="M233.132 36.3594H233.212V35.458H233.132V36.3594Z" fill="#1D3A6D"/>
<path d="M232.778 36.3594H232.858V35.458H232.778V36.3594Z" fill="#1D3A6D"/>
<path d="M232.416 36.3594H232.496V35.458H232.416V36.3594Z" fill="#1D3A6D"/>
<path d="M232.062 36.3594H232.142V35.458H232.062V36.3594Z" fill="#1D3A6D"/>
<path d="M231.699 36.3594H231.78V35.458H231.699V36.3594Z" fill="#1D3A6D"/>
<path d="M239.999 36.6084V34.8217H239.677V34.3871H239.299V34.0007H236.699V34.3871H236.321V34.8217H235.999V36.6084H239.999ZM236.063 34.9022H236.385V34.4676H236.764V34.0812H239.202V34.4676H239.581V34.9022H239.902V36.5279H236.063V34.9022Z" fill="#1D3A6D"/>
<path d="M239.202 36.3594H239.283V35.458H239.202V36.3594Z" fill="#1D3A6D"/>
<path d="M238.848 36.3594H238.929V35.458H238.848V36.3594Z" fill="#1D3A6D"/>
<path d="M238.486 36.3594H238.566V35.458H238.486V36.3594Z" fill="#1D3A6D"/>
<path d="M238.132 36.3594H238.212V35.458H238.132V36.3594Z" fill="#1D3A6D"/>
<path d="M237.778 36.3594H237.858V35.458H237.778V36.3594Z" fill="#1D3A6D"/>
<path d="M237.416 36.3594H237.496V35.458H237.416V36.3594Z" fill="#1D3A6D"/>
<path d="M237.062 36.3594H237.142V35.458H237.062V36.3594Z" fill="#1D3A6D"/>
<path d="M236.699 36.3594H236.78V35.458H236.699V36.3594Z" fill="#1D3A6D"/>
<path d="M244.999 36.6084V34.8217H244.677V34.3871H244.299V34.0007H241.699V34.3871H241.321V34.8217H240.999V36.6084H244.999ZM241.063 34.9022H241.385V34.4676H241.764V34.0812H244.202V34.4676H244.581V34.9022H244.902V36.5279H241.063V34.9022Z" fill="#1D3A6D"/>
<path d="M244.202 36.3594H244.283V35.458H244.202V36.3594Z" fill="#1D3A6D"/>
<path d="M243.848 36.3594H243.929V35.458H243.848V36.3594Z" fill="#1D3A6D"/>
<path d="M243.486 36.3594H243.566V35.458H243.486V36.3594Z" fill="#1D3A6D"/>
<path d="M243.132 36.3594H243.212V35.458H243.132V36.3594Z" fill="#1D3A6D"/>
<path d="M242.778 36.3594H242.858V35.458H242.778V36.3594Z" fill="#1D3A6D"/>
<path d="M242.416 36.3594H242.496V35.458H242.416V36.3594Z" fill="#1D3A6D"/>
<path d="M242.062 36.3594H242.142V35.458H242.062V36.3594Z" fill="#1D3A6D"/>
<path d="M241.699 36.3594H241.78V35.458H241.699V36.3594Z" fill="#1D3A6D"/>
<path d="M249.999 36.6084V34.8217H249.677V34.3871H249.299V34.0007H246.699V34.3871H246.321V34.8217H245.999V36.6084H249.999ZM246.063 34.9022H246.385V34.4676H246.764V34.0812H249.202V34.4676H249.581V34.9022H249.902V36.5279H246.063V34.9022Z" fill="#1D3A6D"/>
<path d="M249.202 36.3594H249.283V35.458H249.202V36.3594Z" fill="#1D3A6D"/>
<path d="M248.848 36.3594H248.929V35.458H248.848V36.3594Z" fill="#1D3A6D"/>
<path d="M248.486 36.3594H248.566V35.458H248.486V36.3594Z" fill="#1D3A6D"/>
<path d="M248.132 36.3594H248.212V35.458H248.132V36.3594Z" fill="#1D3A6D"/>
<path d="M247.778 36.3594H247.858V35.458H247.778V36.3594Z" fill="#1D3A6D"/>
<path d="M247.416 36.3594H247.496V35.458H247.416V36.3594Z" fill="#1D3A6D"/>
<path d="M247.062 36.3594H247.142V35.458H247.062V36.3594Z" fill="#1D3A6D"/>
<path d="M246.699 36.3594H246.78V35.458H246.699V36.3594Z" fill="#1D3A6D"/>
<path d="M254.999 36.6084V34.8217H254.677V34.3871H254.299V34.0007H251.699V34.3871H251.321V34.8217H250.999V36.6084H254.999ZM251.063 34.9022H251.385V34.4676H251.764V34.0812H254.202V34.4676H254.581V34.9022H254.902V36.5279H251.063V34.9022Z" fill="#1D3A6D"/>
<path d="M254.202 36.3594H254.283V35.458H254.202V36.3594Z" fill="#1D3A6D"/>
<path d="M253.848 36.3594H253.929V35.458H253.848V36.3594Z" fill="#1D3A6D"/>
<path d="M253.486 36.3594H253.566V35.458H253.486V36.3594Z" fill="#1D3A6D"/>
<path d="M253.132 36.3594H253.212V35.458H253.132V36.3594Z" fill="#1D3A6D"/>
<path d="M252.778 36.3594H252.858V35.458H252.778V36.3594Z" fill="#1D3A6D"/>
<path d="M252.416 36.3594H252.496V35.458H252.416V36.3594Z" fill="#1D3A6D"/>
<path d="M252.062 36.3594H252.142V35.458H252.062V36.3594Z" fill="#1D3A6D"/>
<path d="M251.699 36.3594H251.78V35.458H251.699V36.3594Z" fill="#1D3A6D"/>
<path d="M259.999 36.6084V34.8217H259.677V34.3871H259.299V34.0007H256.699V34.3871H256.321V34.8217H255.999V36.6084H259.999ZM256.063 34.9022H256.385V34.4676H256.764V34.0812H259.202V34.4676H259.581V34.9022H259.902V36.5279H256.063V34.9022Z" fill="#1D3A6D"/>
<path d="M259.202 36.3594H259.283V35.458H259.202V36.3594Z" fill="#1D3A6D"/>
<path d="M258.848 36.3594H258.929V35.458H258.848V36.3594Z" fill="#1D3A6D"/>
<path d="M258.486 36.3594H258.566V35.458H258.486V36.3594Z" fill="#1D3A6D"/>
<path d="M258.132 36.3594H258.212V35.458H258.132V36.3594Z" fill="#1D3A6D"/>
<path d="M257.778 36.3594H257.858V35.458H257.778V36.3594Z" fill="#1D3A6D"/>
<path d="M257.416 36.3594H257.496V35.458H257.416V36.3594Z" fill="#1D3A6D"/>
<path d="M257.062 36.3594H257.142V35.458H257.062V36.3594Z" fill="#1D3A6D"/>
<path d="M256.699 36.3594H256.78V35.458H256.699V36.3594Z" fill="#1D3A6D"/>
<path d="M264.999 36.6084V34.8217H264.677V34.3871H264.299V34.0007H261.699V34.3871H261.321V34.8217H260.999V36.6084H264.999ZM261.063 34.9022H261.385V34.4676H261.764V34.0812H264.202V34.4676H264.581V34.9022H264.902V36.5279H261.063V34.9022Z" fill="#1D3A6D"/>
<path d="M264.202 36.3594H264.283V35.458H264.202V36.3594Z" fill="#1D3A6D"/>
<path d="M263.848 36.3594H263.929V35.458H263.848V36.3594Z" fill="#1D3A6D"/>
<path d="M263.486 36.3594H263.566V35.458H263.486V36.3594Z" fill="#1D3A6D"/>
<path d="M263.132 36.3594H263.212V35.458H263.132V36.3594Z" fill="#1D3A6D"/>
<path d="M262.778 36.3594H262.858V35.458H262.778V36.3594Z" fill="#1D3A6D"/>
<path d="M262.416 36.3594H262.496V35.458H262.416V36.3594Z" fill="#1D3A6D"/>
<path d="M262.062 36.3594H262.142V35.458H262.062V36.3594Z" fill="#1D3A6D"/>
<path d="M261.699 36.3594H261.78V35.458H261.699V36.3594Z" fill="#1D3A6D"/>
<path d="M186 42.002V43.7887H186.322V44.2233H186.7V44.6096H189.3V44.2233H189.678V43.7887H190V42.002H186ZM189.936 43.7082H189.614V44.1428H189.235V44.5291H186.797V44.1428H186.419V43.7082H186.097V42.0824H189.936V43.7082Z" fill="#1D3A6D"/>
<path d="M186.797 42.251H186.716V43.1524H186.797V42.251Z" fill="#1D3A6D"/>
<path d="M187.151 42.251H187.07V43.1524H187.151V42.251Z" fill="#1D3A6D"/>
<path d="M187.513 42.251H187.433V43.1524H187.513V42.251Z" fill="#1D3A6D"/>
<path d="M187.867 42.251H187.787V43.1524H187.867V42.251Z" fill="#1D3A6D"/>
<path d="M188.221 42.251H188.141V43.1524H188.221V42.251Z" fill="#1D3A6D"/>
<path d="M188.583 42.251H188.503V43.1524H188.583V42.251Z" fill="#1D3A6D"/>
<path d="M188.937 42.251H188.857V43.1524H188.937V42.251Z" fill="#1D3A6D"/>
<path d="M189.3 42.251H189.219V43.1524H189.3V42.251Z" fill="#1D3A6D"/>
<path d="M191 42.002V43.7887H191.322V44.2233H191.7V44.6096H194.3V44.2233H194.678V43.7887H195V42.002H191ZM194.936 43.7082H194.614V44.1428H194.235V44.5291H191.797V44.1428H191.419V43.7082H191.097V42.0824H194.936V43.7082Z" fill="#1D3A6D"/>
<path d="M191.797 42.251H191.716V43.1524H191.797V42.251Z" fill="#1D3A6D"/>
<path d="M192.151 42.251H192.07V43.1524H192.151V42.251Z" fill="#1D3A6D"/>
<path d="M192.513 42.251H192.433V43.1524H192.513V42.251Z" fill="#1D3A6D"/>
<path d="M192.867 42.251H192.787V43.1524H192.867V42.251Z" fill="#1D3A6D"/>
<path d="M193.221 42.251H193.141V43.1524H193.221V42.251Z" fill="#1D3A6D"/>
<path d="M193.583 42.251H193.503V43.1524H193.583V42.251Z" fill="#1D3A6D"/>
<path d="M193.937 42.251H193.857V43.1524H193.937V42.251Z" fill="#1D3A6D"/>
<path d="M194.3 42.251H194.219V43.1524H194.3V42.251Z" fill="#1D3A6D"/>
<path d="M196 42.002V43.7887H196.322V44.2233H196.7V44.6096H199.3V44.2233H199.678V43.7887H200V42.002H196ZM199.936 43.7082H199.614V44.1428H199.235V44.5291H196.797V44.1428H196.419V43.7082H196.097V42.0824H199.936V43.7082Z" fill="#1D3A6D"/>
<path d="M196.797 42.251H196.716V43.1524H196.797V42.251Z" fill="#1D3A6D"/>
<path d="M197.151 42.251H197.07V43.1524H197.151V42.251Z" fill="#1D3A6D"/>
<path d="M197.513 42.251H197.433V43.1524H197.513V42.251Z" fill="#1D3A6D"/>
<path d="M197.867 42.251H197.787V43.1524H197.867V42.251Z" fill="#1D3A6D"/>
<path d="M198.221 42.251H198.141V43.1524H198.221V42.251Z" fill="#1D3A6D"/>
<path d="M198.583 42.251H198.503V43.1524H198.583V42.251Z" fill="#1D3A6D"/>
<path d="M198.937 42.251H198.857V43.1524H198.937V42.251Z" fill="#1D3A6D"/>
<path d="M199.3 42.251H199.219V43.1524H199.3V42.251Z" fill="#1D3A6D"/>
<path d="M201 42.002V43.7887H201.322V44.2233H201.7V44.6096H204.3V44.2233H204.678V43.7887H205V42.002H201ZM204.936 43.7082H204.614V44.1428H204.235V44.5291H201.797V44.1428H201.419V43.7082H201.097V42.0824H204.936V43.7082Z" fill="#1D3A6D"/>
<path d="M201.797 42.251H201.716V43.1524H201.797V42.251Z" fill="#1D3A6D"/>
<path d="M202.151 42.251H202.07V43.1524H202.151V42.251Z" fill="#1D3A6D"/>
<path d="M202.513 42.251H202.433V43.1524H202.513V42.251Z" fill="#1D3A6D"/>
<path d="M202.867 42.251H202.787V43.1524H202.867V42.251Z" fill="#1D3A6D"/>
<path d="M203.221 42.251H203.141V43.1524H203.221V42.251Z" fill="#1D3A6D"/>
<path d="M203.583 42.251H203.503V43.1524H203.583V42.251Z" fill="#1D3A6D"/>
<path d="M203.937 42.251H203.857V43.1524H203.937V42.251Z" fill="#1D3A6D"/>
<path d="M204.3 42.251H204.219V43.1524H204.3V42.251Z" fill="#1D3A6D"/>
<path d="M206 42.002V43.7887H206.322V44.2233H206.7V44.6096H209.3V44.2233H209.678V43.7887H210V42.002H206ZM209.936 43.7082H209.614V44.1428H209.235V44.5291H206.797V44.1428H206.419V43.7082H206.097V42.0824H209.936V43.7082Z" fill="#1D3A6D"/>
<path d="M206.797 42.251H206.716V43.1524H206.797V42.251Z" fill="#1D3A6D"/>
<path d="M207.151 42.251H207.07V43.1524H207.151V42.251Z" fill="#1D3A6D"/>
<path d="M207.513 42.251H207.433V43.1524H207.513V42.251Z" fill="#1D3A6D"/>
<path d="M207.867 42.251H207.787V43.1524H207.867V42.251Z" fill="#1D3A6D"/>
<path d="M208.221 42.251H208.141V43.1524H208.221V42.251Z" fill="#1D3A6D"/>
<path d="M208.583 42.251H208.503V43.1524H208.583V42.251Z" fill="#1D3A6D"/>
<path d="M208.937 42.251H208.857V43.1524H208.937V42.251Z" fill="#1D3A6D"/>
<path d="M209.3 42.251H209.219V43.1524H209.3V42.251Z" fill="#1D3A6D"/>
<path d="M211 42.002V43.7887H211.322V44.2233H211.7V44.6096H214.3V44.2233H214.678V43.7887H215V42.002H211ZM214.936 43.7082H214.614V44.1428H214.235V44.5291H211.797V44.1428H211.419V43.7082H211.097V42.0824H214.936V43.7082Z" fill="#1D3A6D"/>
<path d="M211.797 42.251H211.716V43.1524H211.797V42.251Z" fill="#1D3A6D"/>
<path d="M212.151 42.251H212.07V43.1524H212.151V42.251Z" fill="#1D3A6D"/>
<path d="M212.513 42.251H212.433V43.1524H212.513V42.251Z" fill="#1D3A6D"/>
<path d="M212.867 42.251H212.787V43.1524H212.867V42.251Z" fill="#1D3A6D"/>
<path d="M213.221 42.251H213.141V43.1524H213.221V42.251Z" fill="#1D3A6D"/>
<path d="M213.583 42.251H213.503V43.1524H213.583V42.251Z" fill="#1D3A6D"/>
<path d="M213.937 42.251H213.857V43.1524H213.937V42.251Z" fill="#1D3A6D"/>
<path d="M214.3 42.251H214.219V43.1524H214.3V42.251Z" fill="#1D3A6D"/>
<path d="M216 42.002V43.7887H216.322V44.2233H216.7V44.6096H219.3V44.2233H219.678V43.7887H220V42.002H216ZM219.936 43.7082H219.614V44.1428H219.235V44.5291H216.797V44.1428H216.419V43.7082H216.097V42.0824H219.936V43.7082Z" fill="#1D3A6D"/>
<path d="M216.797 42.251H216.716V43.1524H216.797V42.251Z" fill="#1D3A6D"/>
<path d="M217.151 42.251H217.07V43.1524H217.151V42.251Z" fill="#1D3A6D"/>
<path d="M217.513 42.251H217.433V43.1524H217.513V42.251Z" fill="#1D3A6D"/>
<path d="M217.867 42.251H217.787V43.1524H217.867V42.251Z" fill="#1D3A6D"/>
<path d="M218.221 42.251H218.141V43.1524H218.221V42.251Z" fill="#1D3A6D"/>
<path d="M218.583 42.251H218.503V43.1524H218.583V42.251Z" fill="#1D3A6D"/>
<path d="M218.937 42.251H218.857V43.1524H218.937V42.251Z" fill="#1D3A6D"/>
<path d="M219.3 42.251H219.219V43.1524H219.3V42.251Z" fill="#1D3A6D"/>
<path d="M221 42.002V43.7887H221.322V44.2233H221.7V44.6096H224.3V44.2233H224.678V43.7887H225V42.002H221ZM224.936 43.7082H224.614V44.1428H224.235V44.5291H221.797V44.1428H221.419V43.7082H221.097V42.0824H224.936V43.7082Z" fill="#1D3A6D"/>
<path d="M221.797 42.251H221.716V43.1524H221.797V42.251Z" fill="#1D3A6D"/>
<path d="M222.151 42.251H222.07V43.1524H222.151V42.251Z" fill="#1D3A6D"/>
<path d="M222.513 42.251H222.433V43.1524H222.513V42.251Z" fill="#1D3A6D"/>
<path d="M222.867 42.251H222.787V43.1524H222.867V42.251Z" fill="#1D3A6D"/>
<path d="M223.221 42.251H223.141V43.1524H223.221V42.251Z" fill="#1D3A6D"/>
<path d="M223.583 42.251H223.503V43.1524H223.583V42.251Z" fill="#1D3A6D"/>
<path d="M223.937 42.251H223.857V43.1524H223.937V42.251Z" fill="#1D3A6D"/>
<path d="M224.3 42.251H224.219V43.1524H224.3V42.251Z" fill="#1D3A6D"/>
<path d="M225.999 42.0029V43.7897H226.32V44.2243H226.699V44.6106H229.298V44.2243H229.677V43.7897H229.999V42.0029H225.999ZM229.934 43.7092H229.612V44.1438H229.234V44.5301H226.795V44.1438H226.417V43.7092H226.095V42.0834H229.934V43.7092Z" fill="#1D3A6D"/>
<path d="M226.795 42.252H226.715V43.1534H226.795V42.252Z" fill="#1D3A6D"/>
<path d="M227.149 42.252H227.069V43.1534H227.149V42.252Z" fill="#1D3A6D"/>
<path d="M227.512 42.252H227.431V43.1534H227.512V42.252Z" fill="#1D3A6D"/>
<path d="M227.866 42.252H227.785V43.1534H227.866V42.252Z" fill="#1D3A6D"/>
<path d="M228.22 42.252H228.139V43.1534H228.22V42.252Z" fill="#1D3A6D"/>
<path d="M228.582 42.252H228.501V43.1534H228.582V42.252Z" fill="#1D3A6D"/>
<path d="M228.936 42.252H228.855V43.1534H228.936V42.252Z" fill="#1D3A6D"/>
<path d="M229.298 42.252H229.218V43.1534H229.298V42.252Z" fill="#1D3A6D"/>
<path d="M230.999 42.0029V43.7897H231.32V44.2243H231.699V44.6106H234.298V44.2243H234.677V43.7897H234.999V42.0029H230.999ZM234.934 43.7092H234.612V44.1438H234.234V44.5301H231.795V44.1438H231.417V43.7092H231.095V42.0834H234.934V43.7092Z" fill="#1D3A6D"/>
<path d="M231.795 42.252H231.715V43.1534H231.795V42.252Z" fill="#1D3A6D"/>
<path d="M232.149 42.252H232.069V43.1534H232.149V42.252Z" fill="#1D3A6D"/>
<path d="M232.512 42.252H232.431V43.1534H232.512V42.252Z" fill="#1D3A6D"/>
<path d="M232.866 42.252H232.785V43.1534H232.866V42.252Z" fill="#1D3A6D"/>
<path d="M233.22 42.252H233.139V43.1534H233.22V42.252Z" fill="#1D3A6D"/>
<path d="M233.582 42.252H233.501V43.1534H233.582V42.252Z" fill="#1D3A6D"/>
<path d="M233.936 42.252H233.855V43.1534H233.936V42.252Z" fill="#1D3A6D"/>
<path d="M234.298 42.252H234.218V43.1534H234.298V42.252Z" fill="#1D3A6D"/>
<path d="M235.999 42.0029V43.7897H236.32V44.2243H236.699V44.6106H239.298V44.2243H239.677V43.7897H239.999V42.0029H235.999ZM239.934 43.7092H239.612V44.1438H239.234V44.5301H236.795V44.1438H236.417V43.7092H236.095V42.0834H239.934V43.7092Z" fill="#1D3A6D"/>
<path d="M236.795 42.252H236.715V43.1534H236.795V42.252Z" fill="#1D3A6D"/>
<path d="M237.149 42.252H237.069V43.1534H237.149V42.252Z" fill="#1D3A6D"/>
<path d="M237.512 42.252H237.431V43.1534H237.512V42.252Z" fill="#1D3A6D"/>
<path d="M237.866 42.252H237.785V43.1534H237.866V42.252Z" fill="#1D3A6D"/>
<path d="M238.22 42.252H238.139V43.1534H238.22V42.252Z" fill="#1D3A6D"/>
<path d="M238.582 42.252H238.501V43.1534H238.582V42.252Z" fill="#1D3A6D"/>
<path d="M238.936 42.252H238.855V43.1534H238.936V42.252Z" fill="#1D3A6D"/>
<path d="M239.298 42.252H239.218V43.1534H239.298V42.252Z" fill="#1D3A6D"/>
<path d="M240.999 42.0029V43.7897H241.32V44.2243H241.699V44.6106H244.298V44.2243H244.677V43.7897H244.999V42.0029H240.999ZM244.934 43.7092H244.612V44.1438H244.234V44.5301H241.795V44.1438H241.417V43.7092H241.095V42.0834H244.934V43.7092Z" fill="#1D3A6D"/>
<path d="M241.795 42.252H241.715V43.1534H241.795V42.252Z" fill="#1D3A6D"/>
<path d="M242.149 42.252H242.069V43.1534H242.149V42.252Z" fill="#1D3A6D"/>
<path d="M242.512 42.252H242.431V43.1534H242.512V42.252Z" fill="#1D3A6D"/>
<path d="M242.866 42.252H242.785V43.1534H242.866V42.252Z" fill="#1D3A6D"/>
<path d="M243.22 42.252H243.139V43.1534H243.22V42.252Z" fill="#1D3A6D"/>
<path d="M243.582 42.252H243.501V43.1534H243.582V42.252Z" fill="#1D3A6D"/>
<path d="M243.936 42.252H243.855V43.1534H243.936V42.252Z" fill="#1D3A6D"/>
<path d="M244.298 42.252H244.218V43.1534H244.298V42.252Z" fill="#1D3A6D"/>
<path d="M245.999 42.0029V43.7897H246.32V44.2243H246.699V44.6106H249.298V44.2243H249.677V43.7897H249.999V42.0029H245.999ZM249.934 43.7092H249.612V44.1438H249.234V44.5301H246.795V44.1438H246.417V43.7092H246.095V42.0834H249.934V43.7092Z" fill="#1D3A6D"/>
<path d="M246.795 42.252H246.715V43.1534H246.795V42.252Z" fill="#1D3A6D"/>
<path d="M247.149 42.252H247.069V43.1534H247.149V42.252Z" fill="#1D3A6D"/>
<path d="M247.512 42.252H247.431V43.1534H247.512V42.252Z" fill="#1D3A6D"/>
<path d="M247.866 42.252H247.785V43.1534H247.866V42.252Z" fill="#1D3A6D"/>
<path d="M248.22 42.252H248.139V43.1534H248.22V42.252Z" fill="#1D3A6D"/>
<path d="M248.582 42.252H248.501V43.1534H248.582V42.252Z" fill="#1D3A6D"/>
<path d="M248.936 42.252H248.855V43.1534H248.936V42.252Z" fill="#1D3A6D"/>
<path d="M249.298 42.252H249.218V43.1534H249.298V42.252Z" fill="#1D3A6D"/>
<path d="M250.999 42.0029V43.7897H251.32V44.2243H251.699V44.6106H254.298V44.2243H254.677V43.7897H254.999V42.0029H250.999ZM254.934 43.7092H254.612V44.1438H254.234V44.5301H251.795V44.1438H251.417V43.7092H251.095V42.0834H254.934V43.7092Z" fill="#1D3A6D"/>
<path d="M251.795 42.252H251.715V43.1534H251.795V42.252Z" fill="#1D3A6D"/>
<path d="M252.149 42.252H252.069V43.1534H252.149V42.252Z" fill="#1D3A6D"/>
<path d="M252.512 42.252H252.431V43.1534H252.512V42.252Z" fill="#1D3A6D"/>
<path d="M252.866 42.252H252.785V43.1534H252.866V42.252Z" fill="#1D3A6D"/>
<path d="M253.22 42.252H253.139V43.1534H253.22V42.252Z" fill="#1D3A6D"/>
<path d="M253.582 42.252H253.501V43.1534H253.582V42.252Z" fill="#1D3A6D"/>
<path d="M253.936 42.252H253.855V43.1534H253.936V42.252Z" fill="#1D3A6D"/>
<path d="M254.298 42.252H254.218V43.1534H254.298V42.252Z" fill="#1D3A6D"/>
<path d="M255.999 42.0029V43.7897H256.32V44.2243H256.699V44.6106H259.298V44.2243H259.677V43.7897H259.999V42.0029H255.999ZM259.934 43.7092H259.612V44.1438H259.234V44.5301H256.795V44.1438H256.417V43.7092H256.095V42.0834H259.934V43.7092Z" fill="#1D3A6D"/>
<path d="M256.795 42.252H256.715V43.1534H256.795V42.252Z" fill="#1D3A6D"/>
<path d="M257.149 42.252H257.069V43.1534H257.149V42.252Z" fill="#1D3A6D"/>
<path d="M257.512 42.252H257.431V43.1534H257.512V42.252Z" fill="#1D3A6D"/>
<path d="M257.866 42.252H257.785V43.1534H257.866V42.252Z" fill="#1D3A6D"/>
<path d="M258.22 42.252H258.139V43.1534H258.22V42.252Z" fill="#1D3A6D"/>
<path d="M258.582 42.252H258.501V43.1534H258.582V42.252Z" fill="#1D3A6D"/>
<path d="M258.936 42.252H258.855V43.1534H258.936V42.252Z" fill="#1D3A6D"/>
<path d="M259.298 42.252H259.218V43.1534H259.298V42.252Z" fill="#1D3A6D"/>
<path d="M260.999 42.0029V43.7897H261.321V44.2243H261.699V44.6106H264.299V44.2243H264.677V43.7897H264.999V42.0029H260.999ZM264.935 43.7092H264.613V44.1438H264.234V44.5301H261.796V44.1438H261.418V43.7092H261.096V42.0834H264.935V43.7092Z" fill="#1D3A6D"/>
<path d="M261.796 42.252H261.715V43.1534H261.796V42.252Z" fill="#1D3A6D"/>
<path d="M262.15 42.252H262.069V43.1534H262.15V42.252Z" fill="#1D3A6D"/>
<path d="M262.512 42.252H262.432V43.1534H262.512V42.252Z" fill="#1D3A6D"/>
<path d="M262.866 42.252H262.786V43.1534H262.866V42.252Z" fill="#1D3A6D"/>
<path d="M263.22 42.252H263.14V43.1534H263.22V42.252Z" fill="#1D3A6D"/>
<path d="M263.582 42.252H263.502V43.1534H263.582V42.252Z" fill="#1D3A6D"/>
<path d="M263.936 42.252H263.856V43.1534H263.936V42.252Z" fill="#1D3A6D"/>
<path d="M264.299 42.252H264.218V43.1534H264.299V42.252Z" fill="#1D3A6D"/>
<rect x="176.743" y="192.25" width="156.513" height="26.4867" rx="2.75" stroke="#1D3A6D" stroke-width="0.5"/>
<rect x="176.743" y="108.836" width="156.513" height="26.4867" rx="2.75" stroke="#1D3A6D" stroke-width="0.5"/>
<rect x="176.743" y="25.4229" width="156.513" height="26.4867" rx="2.75" stroke="#1D3A6D" stroke-width="0.5"/>
<rect x="176.743" y="67.1299" width="156.513" height="26.4867" rx="2.75" stroke="#1D3A6D" stroke-width="0.5"/>
<rect x="176.743" y="150.543" width="156.513" height="26.4867" rx="2.75" stroke="#1D3A6D" stroke-width="0.5"/>
<rect x="184.104" y="195.93" width="141.793" height="19.1267" rx="2.75" stroke="#1D3A6D" stroke-width="0.5"/>
<circle cx="195" cy="207" r="4.75" stroke="#1D3A6D" stroke-width="0.5"/>
<circle cx="207.16" cy="200.586" r="1.22667" fill="url(#paint0_radial_915_4630)"/>
<path d="M195 203V206.68" stroke="#1D3A6D" stroke-width="0.5"/>
<path d="M195.949 204.216C196.633 204.422 197.222 204.866 197.608 205.467C197.994 206.068 198.152 206.788 198.055 207.496C197.957 208.204 197.609 208.854 197.075 209.328C196.54 209.802 195.854 210.07 195.139 210.082C194.424 210.095 193.729 209.852 193.178 209.397C192.627 208.942 192.256 208.305 192.134 207.601C192.011 206.897 192.144 206.172 192.508 205.557C192.872 204.943 193.445 204.478 194.121 204.248L194.227 204.558C193.624 204.763 193.114 205.177 192.789 205.724C192.465 206.272 192.346 206.918 192.456 207.545C192.565 208.172 192.895 208.739 193.386 209.145C193.877 209.55 194.497 209.767 195.133 209.755C195.77 209.744 196.381 209.506 196.858 209.083C197.334 208.661 197.643 208.082 197.731 207.451C197.818 206.82 197.676 206.179 197.333 205.644C196.989 205.108 196.465 204.713 195.855 204.529L195.949 204.216Z" fill="#1D3A6D"/>
<rect x="176.743" y="233.957" width="156.513" height="16.6733" rx="2.75" stroke="#1D3A6D" stroke-width="0.5"/>
<circle cx="258.907" cy="241.907" r="4.85667" fill="#F3F5FA" stroke="#1D3A6D" stroke-width="0.1"/>
<circle cx="260.747" cy="243.746" r="0.613333" fill="#1D3A6D"/>
<circle cx="257.066" cy="240.066" r="0.613333" fill="#1D3A6D"/>
<circle cx="209.613" cy="242.293" r="4.85667" fill="#F3F5FA" stroke="#1D3A6D" stroke-width="0.1"/>
<circle cx="207.773" cy="240.453" r="0.613333" fill="#1D3A6D"/>
<circle cx="211.453" cy="244.133" r="0.613333" fill="#1D3A6D"/>
<circle cx="221.88" cy="242.293" r="4.85667" fill="#F3F5FA" stroke="#1D3A6D" stroke-width="0.1"/>
<circle cx="220.04" cy="240.453" r="0.613333" fill="#1D3A6D"/>
<circle cx="223.72" cy="244.133" r="0.613333" fill="#1D3A6D"/>
<circle cx="234.146" cy="242.293" r="4.85667" fill="#F3F5FA" stroke="#1D3A6D" stroke-width="0.1"/>
<circle cx="232.307" cy="240.453" r="0.613333" fill="#1D3A6D"/>
<circle cx="235.986" cy="244.133" r="0.613333" fill="#1D3A6D"/>
<circle cx="246.413" cy="242.293" r="4.85667" fill="#F3F5FA" stroke="#1D3A6D" stroke-width="0.1"/>
<circle cx="244.573" cy="240.453" r="0.613333" fill="#1D3A6D"/>
<circle cx="248.253" cy="244.133" r="0.613333" fill="#1D3A6D"/>
<circle cx="270.947" cy="242.293" r="4.85667" fill="#F3F5FA" stroke="#1D3A6D" stroke-width="0.1"/>
<circle cx="269.107" cy="240.453" r="0.613333" fill="#1D3A6D"/>
<circle cx="272.787" cy="244.133" r="0.613333" fill="#1D3A6D"/>
<circle cx="283.213" cy="242.293" r="4.85667" fill="#F3F5FA" stroke="#1D3A6D" stroke-width="0.1"/>
<circle cx="281.373" cy="240.453" r="0.613333" fill="#1D3A6D"/>
<circle cx="285.054" cy="244.133" r="0.613333" fill="#1D3A6D"/>
<circle cx="295.48" cy="242.293" r="4.85667" fill="#F3F5FA" stroke="#1D3A6D" stroke-width="0.1"/>
<circle cx="293.64" cy="240.453" r="0.613333" fill="#1D3A6D"/>
<circle cx="297.32" cy="244.133" r="0.613333" fill="#1D3A6D"/>
<circle cx="307.747" cy="242.293" r="4.85667" fill="#F3F5FA" stroke="#1D3A6D" stroke-width="0.1"/>
<circle cx="305.906" cy="240.453" r="0.613333" fill="#1D3A6D"/>
<circle cx="309.586" cy="244.133" r="0.613333" fill="#1D3A6D"/>
<circle cx="320.013" cy="242.293" r="4.85667" fill="#F3F5FA" stroke="#1D3A6D" stroke-width="0.1"/>
<circle cx="318.173" cy="240.453" r="0.613333" fill="#1D3A6D"/>
<circle cx="321.853" cy="244.133" r="0.613333" fill="#1D3A6D"/>
<path d="M193 238.613H197V245.973H193V238.613Z" fill="#F50000"/>
<path d="M195 239V241" stroke="white" stroke-width="0.5"/>
<circle cx="195" cy="244" r="0.9" stroke="white" stroke-width="0.2"/>
<rect x="182.876" y="112.517" width="146.7" height="20.3533" rx="2.75" stroke="#1D3A6D" stroke-width="0.5"/>
<circle cx="322.466" cy="117.173" r="1.22667" fill="url(#paint1_radial_915_4630)"/>
<circle cx="322.466" cy="120.854" r="1.22667" fill="url(#paint2_radial_915_4630)"/>
<circle cx="322.466" cy="124.533" r="1.22667" fill="url(#paint3_radial_915_4630)"/>
<circle cx="322.466" cy="128.213" r="1.22667" fill="url(#paint4_radial_915_4630)"/>
<rect x="187.25" y="123.25" width="38.5" height="5.5" rx="0.75" stroke="#1D3A6D" stroke-width="0.5"/>
<rect x="187.25" y="115.25" width="38.5" height="5.5" rx="0.75" stroke="#1D3A6D" stroke-width="0.5"/>
<rect x="229.25" y="123.25" width="38.5" height="5.5" rx="0.75" stroke="#1D3A6D" stroke-width="0.5"/>
<rect x="229.25" y="115.25" width="38.5" height="5.5" rx="0.75" stroke="#1D3A6D" stroke-width="0.5"/>
<rect x="271.25" y="115.25" width="38.5" height="5.5" rx="0.75" stroke="#1D3A6D" stroke-width="0.5"/>
<rect x="271.25" y="123.25" width="38.5" height="5.5" rx="0.75" stroke="#1D3A6D" stroke-width="0.5"/>
<path d="M265.4 118C265.4 118.773 264.773 119.4 264 119.4C263.227 119.4 262.6 118.773 262.6 118C262.6 117.227 263.227 116.6 264 116.6C264.773 116.6 265.4 117.227 265.4 118Z" stroke="#1D3A6D" stroke-width="0.2"/>
<path d="M265.4 126C265.4 126.773 264.773 127.4 264 127.4C263.227 127.4 262.6 126.773 262.6 126C262.6 125.227 263.227 124.6 264 124.6C264.773 124.6 265.4 125.227 265.4 126Z" stroke="#1D3A6D" stroke-width="0.2"/>
<path d="M307.4 126C307.4 126.773 306.773 127.4 306 127.4C305.227 127.4 304.6 126.773 304.6 126C304.6 125.227 305.227 124.6 306 124.6C306.773 124.6 307.4 125.227 307.4 126Z" stroke="#1D3A6D" stroke-width="0.2"/>
<path d="M307.4 118C307.4 118.773 306.773 119.4 306 119.4C305.227 119.4 304.6 118.773 304.6 118C304.6 117.227 305.227 116.6 306 116.6C306.773 116.6 307.4 117.227 307.4 118Z" stroke="#1D3A6D" stroke-width="0.2"/>
<path d="M223.4 118C223.4 118.773 222.773 119.4 222 119.4C221.227 119.4 220.6 118.773 220.6 118C220.6 117.227 221.227 116.6 222 116.6C222.773 116.6 223.4 117.227 223.4 118Z" stroke="#1D3A6D" stroke-width="0.2"/>
<path d="M223.4 126C223.4 126.773 222.773 127.4 222 127.4C221.227 127.4 220.6 126.773 220.6 126C220.6 125.227 221.227 124.6 222 124.6C222.773 124.6 223.4 125.227 223.4 126Z" stroke="#1D3A6D" stroke-width="0.2"/>
<rect x="183.25" y="70.25" width="146.7" height="20.3533" rx="2.75" stroke="#1D3A6D" stroke-width="0.5"/>
<circle cx="322.84" cy="74.9064" r="1.22667" fill="url(#paint5_radial_915_4630)"/>
<circle cx="322.84" cy="78.587" r="1.22667" fill="url(#paint6_radial_915_4630)"/>
<circle cx="322.84" cy="82.2667" r="1.22667" fill="url(#paint7_radial_915_4630)"/>
<circle cx="322.84" cy="85.9464" r="1.22667" fill="url(#paint8_radial_915_4630)"/>
<rect x="187.624" y="80.9834" width="38.5" height="5.5" rx="0.75" stroke="#1D3A6D" stroke-width="0.5"/>
<rect x="187.624" y="72.9834" width="38.5" height="5.5" rx="0.75" stroke="#1D3A6D" stroke-width="0.5"/>
<rect x="229.624" y="80.9834" width="38.5" height="5.5" rx="0.75" stroke="#1D3A6D" stroke-width="0.5"/>
<rect x="229.624" y="72.9834" width="38.5" height="5.5" rx="0.75" stroke="#1D3A6D" stroke-width="0.5"/>
<rect x="271.624" y="72.9834" width="38.5" height="5.5" rx="0.75" stroke="#1D3A6D" stroke-width="0.5"/>
<rect x="271.624" y="80.9834" width="38.5" height="5.5" rx="0.75" stroke="#1D3A6D" stroke-width="0.5"/>
<path d="M265.774 75.7334C265.774 76.5066 265.147 77.1334 264.374 77.1334C263.6 77.1334 262.974 76.5066 262.974 75.7334C262.974 74.9602 263.6 74.3334 264.374 74.3334C265.147 74.3334 265.774 74.9602 265.774 75.7334Z" stroke="#1D3A6D" stroke-width="0.2"/>
<path d="M265.774 83.7334C265.774 84.5066 265.147 85.1334 264.374 85.1334C263.6 85.1334 262.974 84.5066 262.974 83.7334C262.974 82.9602 263.6 82.3334 264.374 82.3334C265.147 82.3334 265.774 82.9602 265.774 83.7334Z" stroke="#1D3A6D" stroke-width="0.2"/>
<path d="M307.774 83.7334C307.774 84.5066 307.147 85.1334 306.374 85.1334C305.6 85.1334 304.974 84.5066 304.974 83.7334C304.974 82.9602 305.6 82.3334 306.374 82.3334C307.147 82.3334 307.774 82.9602 307.774 83.7334Z" stroke="#1D3A6D" stroke-width="0.2"/>
<path d="M307.774 75.7334C307.774 76.5066 307.147 77.1334 306.374 77.1334C305.6 77.1334 304.974 76.5066 304.974 75.7334C304.974 74.9602 305.6 74.3334 306.374 74.3334C307.147 74.3334 307.774 74.9602 307.774 75.7334Z" stroke="#1D3A6D" stroke-width="0.2"/>
<path d="M223.774 75.7334C223.774 76.5066 223.147 77.1334 222.374 77.1334C221.6 77.1334 220.974 76.5066 220.974 75.7334C220.974 74.9602 221.6 74.3334 222.374 74.3334C223.147 74.3334 223.774 74.9602 223.774 75.7334Z" stroke="#1D3A6D" stroke-width="0.2"/>
<path d="M223.774 83.7334C223.774 84.5066 223.147 85.1334 222.374 85.1334C221.6 85.1334 220.974 84.5066 220.974 83.7334C220.974 82.9602 221.6 82.3334 222.374 82.3334C223.147 82.3334 223.774 82.9602 223.774 83.7334Z" stroke="#1D3A6D" stroke-width="0.2"/>
<rect x="185.33" y="156.677" width="102.54" height="17.9" rx="2.75" stroke="#1D3A6D" stroke-width="0.5"/>
<path d="M226.173 162.047H226.687V163.687H219.527V162.867V162.047H220.04H220.064L220.085 162.037L221.29 161.434L224.923 161.434L226.129 162.037L226.15 162.047H226.173Z" stroke="#1D3A6D" stroke-width="0.2"/>
<circle cx="281.987" cy="160.107" r="1.22667" fill="url(#paint9_radial_915_4630)"/>
<circle cx="281.987" cy="163.787" r="1.22667" fill="url(#paint10_radial_915_4630)"/>
<circle cx="281.987" cy="167.467" r="1.22667" fill="url(#paint11_radial_915_4630)"/>
<circle cx="281.987" cy="171.147" r="1.22667" fill="url(#paint12_radial_915_4630)"/>
<rect x="235.474" y="158.98" width="41.5067" height="13.2933" rx="1.9" fill="#F3F5FA" stroke="#1D3A6D" stroke-width="0.2"/>
<rect x="193.617" y="166.29" width="5.45146" height="2.35333" transform="rotate(89.7547 193.617 166.29)" fill="#F3F5FA" stroke="#1D3A6D" stroke-width="0.1"/>
<rect x="197.297" y="166.29" width="5.47313" height="2.35333" transform="rotate(89.7547 197.297 166.29)" fill="#F3F5FA" stroke="#1D3A6D" stroke-width="0.1"/>
<path d="M196 162.607V160.821H195.678V160.386H195.3V160H192.7V160.386H192.322V160.821H192V162.607H196ZM192.064 160.901H192.386V160.467H192.765V160.08H195.203V160.467H195.581V160.901H195.903V162.527H192.064V160.901Z" fill="#1D3A6D"/>
<path d="M195.203 162.358H195.284V161.457H195.203V162.358Z" fill="#1D3A6D"/>
<path d="M194.849 162.358H194.93V161.457H194.849V162.358Z" fill="#1D3A6D"/>
<path d="M194.487 162.358H194.567V161.457H194.487V162.358Z" fill="#1D3A6D"/>
<path d="M194.133 162.358H194.213V161.457H194.133V162.358Z" fill="#1D3A6D"/>
<path d="M193.779 162.358H193.859V161.457H193.779V162.358Z" fill="#1D3A6D"/>
<path d="M193.417 162.358H193.497V161.457H193.417V162.358Z" fill="#1D3A6D"/>
<path d="M193.063 162.358H193.143V161.457H193.063V162.358Z" fill="#1D3A6D"/>
<path d="M192.7 162.358H192.781V161.457H192.7V162.358Z" fill="#1D3A6D"/>
<rect width="510" height="286" stroke="#1D3A6D"/>
<defs>
<radialGradient id="paint0_radial_915_4630" cx="0" cy="0" r="1" gradientUnits="userSpaceOnUse" gradientTransform="translate(207.16 200.586) rotate(90) scale(1.22667)">
<stop offset="0.817708" stop-color="#4AEA5A"/>
<stop offset="1"/>
</radialGradient>
<radialGradient id="paint1_radial_915_4630" cx="0" cy="0" r="1" gradientUnits="userSpaceOnUse" gradientTransform="translate(322.466 117.173) rotate(90) scale(1.22667)">
<stop offset="0.828125" stop-color="#45FA35"/>
<stop offset="1"/>
</radialGradient>
<radialGradient id="paint2_radial_915_4630" cx="0" cy="0" r="1" gradientUnits="userSpaceOnUse" gradientTransform="translate(322.466 120.854) rotate(90) scale(1.22667)">
<stop offset="0.828125" stop-color="#45FA35"/>
<stop offset="1"/>
</radialGradient>
<radialGradient id="paint3_radial_915_4630" cx="0" cy="0" r="1" gradientUnits="userSpaceOnUse" gradientTransform="translate(322.466 124.533) rotate(90) scale(1.22667)">
<stop offset="0.828125" stop-color="#45FA35"/>
<stop offset="1"/>
</radialGradient>
<radialGradient id="paint4_radial_915_4630" cx="0" cy="0" r="1" gradientUnits="userSpaceOnUse" gradientTransform="translate(322.466 128.213) rotate(90) scale(1.22667)">
<stop offset="0.828125" stop-color="#45FA35"/>
<stop offset="1"/>
</radialGradient>
<radialGradient id="paint5_radial_915_4630" cx="0" cy="0" r="1" gradientUnits="userSpaceOnUse" gradientTransform="translate(322.84 74.9064) rotate(90) scale(1.22667)">
<stop offset="0.828125" stop-color="#45FA35"/>
<stop offset="1"/>
</radialGradient>
<radialGradient id="paint6_radial_915_4630" cx="0" cy="0" r="1" gradientUnits="userSpaceOnUse" gradientTransform="translate(322.84 78.587) rotate(90) scale(1.22667)">
<stop offset="0.828125" stop-color="#45FA35"/>
<stop offset="1"/>
</radialGradient>
<radialGradient id="paint7_radial_915_4630" cx="0" cy="0" r="1" gradientUnits="userSpaceOnUse" gradientTransform="translate(322.84 82.2667) rotate(90) scale(1.22667)">
<stop offset="0.828125" stop-color="#45FA35"/>
<stop offset="1"/>
</radialGradient>
<radialGradient id="paint8_radial_915_4630" cx="0" cy="0" r="1" gradientUnits="userSpaceOnUse" gradientTransform="translate(322.84 85.9464) rotate(90) scale(1.22667)">
<stop offset="0.828125" stop-color="#45FA35"/>
<stop offset="1"/>
</radialGradient>
<radialGradient id="paint9_radial_915_4630" cx="0" cy="0" r="1" gradientUnits="userSpaceOnUse" gradientTransform="translate(281.987 160.107) rotate(90) scale(1.22667)">
<stop offset="0.828125" stop-color="#45FA35"/>
<stop offset="1"/>
</radialGradient>
<radialGradient id="paint10_radial_915_4630" cx="0" cy="0" r="1" gradientUnits="userSpaceOnUse" gradientTransform="translate(281.987 163.787) rotate(90) scale(1.22667)">
<stop offset="0.828125" stop-color="#45FA35"/>
<stop offset="1"/>
</radialGradient>
<radialGradient id="paint11_radial_915_4630" cx="0" cy="0" r="1" gradientUnits="userSpaceOnUse" gradientTransform="translate(281.987 167.467) rotate(90) scale(1.22667)">
<stop offset="0.828125" stop-color="#45FA35"/>
<stop offset="1"/>
</radialGradient>
<radialGradient id="paint12_radial_915_4630" cx="0" cy="0" r="1" gradientUnits="userSpaceOnUse" gradientTransform="translate(281.987 171.147) rotate(90) scale(1.22667)">
<stop offset="0.828125" stop-color="#45FA35"/>
<stop offset="1"/>
</radialGradient>
</defs>
</svg>
