<svg width="220" height="314" viewBox="0 0 220 314" fill="none" xmlns="http://www.w3.org/2000/svg">
<rect x="0.5" y="16.5" width="190.026" height="297" stroke="#1D3A6D"/>
<path d="M191.5 313.153V16.2952L219.5 0.846914V297.705L191.5 313.153Z" stroke="#1D3A6D"/>
<path d="M19.6789 0.5L218.088 0.5L191.369 15.4999L1.39746 15.5L19.6789 0.5Z" stroke="#1D3A6D"/>
<rect x="6.61768" y="21.3438" width="179.064" height="287.312" stroke="#1D3A6D" stroke-width="0.5"/>
<path d="M60.355 109.418C60.355 108.037 61.4743 106.918 62.855 106.918H128.171C129.552 106.918 130.671 108.037 130.671 109.418V145.444C130.671 146.824 129.552 147.944 128.171 147.944H62.855C61.4743 147.944 60.355 146.824 60.355 145.444V109.418Z" fill="#C6C9D1" stroke="#1D3A6D"/>
<circle cx="38.2781" cy="73.5588" r="4.45726" fill="url(#paint0_radial_915_4543)"/>
<circle cx="61.2014" cy="73.5588" r="4.45726" fill="url(#paint1_radial_915_4543)"/>
<circle cx="84.1243" cy="73.5588" r="4.45726" fill="url(#paint2_radial_915_4543)"/>
<circle cx="107.457" cy="73.4573" r="4.45726" fill="url(#paint3_radial_915_4543)"/>
<circle cx="130.38" cy="73.4573" r="4.45726" fill="url(#paint4_radial_915_4543)"/>
<circle cx="153.303" cy="73.4573" r="4.45726" fill="url(#paint5_radial_915_4543)"/>
<circle cx="117.757" cy="92.4573" r="4.45726" fill="url(#paint6_radial_915_4543)"/>
<circle cx="96.1072" cy="92.4573" r="4.45726" fill="url(#paint7_radial_915_4543)"/>
<circle cx="74.4573" cy="92.4573" r="4.45726" fill="url(#paint8_radial_915_4543)"/>
<rect x="87.8716" y="168.905" width="11.4615" height="11.4615" transform="rotate(-42.3822 87.8716 168.905)" fill="white"/>
<circle cx="95.9677" cy="169.275" r="5.73077" transform="rotate(-42.3822 95.9677 169.275)" fill="#1D3A6D"/>
<path d="M97.8494 167.558C99.5087 169.377 101.13 172.323 99.8309 173.508C98.5321 174.693 95.7459 172.81 94.0866 170.992C92.4272 169.174 90.8062 166.227 92.105 165.042C93.4038 163.857 96.19 165.74 97.8494 167.558Z" fill="#BBC8E8"/>
<path d="M92.9632 165.983L95.0655 166.651L93.4361 168.138L92.9632 165.983Z" fill="#1D3A6D"/>
<rect x="73.9633" y="153.638" width="16.3556" height="6.16752" rx="0.9" stroke="#1D3A6D" stroke-width="0.2"/>
<path d="M74.4161 158.538H74.2286L75.2783 155.629H75.4829L76.5326 158.538H76.3451L75.3877 155.858H75.3735L74.4161 158.538ZM74.6817 157.443H76.0794V157.608H74.6817V157.443ZM77.0141 158.538V156.356H77.8422C78.0723 156.356 78.2523 156.404 78.382 156.5C78.5117 156.594 78.5761 156.725 78.5752 156.89C78.5742 157.017 78.5383 157.122 78.4672 157.206C78.3962 157.288 78.2972 157.348 78.1704 157.386C78.2584 157.404 78.3365 157.438 78.4047 157.487C78.4739 157.536 78.5283 157.599 78.5681 157.676C78.6079 157.752 78.6277 157.84 78.6277 157.941C78.6277 158.057 78.5998 158.16 78.5439 158.25C78.4881 158.339 78.4095 158.409 78.3081 158.461C78.2078 158.513 78.0903 158.538 77.9559 158.538H77.0141ZM77.1817 158.375H77.9559C78.1064 158.375 78.2272 158.334 78.3181 158.253C78.409 158.171 78.4544 158.063 78.4544 157.929C78.4544 157.797 78.4133 157.69 78.3309 157.608C78.2494 157.524 78.1434 157.483 78.0127 157.483H77.1817V158.375ZM77.1817 157.326H77.8721C77.9791 157.326 78.0723 157.309 78.1519 157.274C78.2324 157.238 78.2944 157.188 78.338 157.123C78.3815 157.058 78.4033 156.983 78.4033 156.897C78.4024 156.777 78.3531 156.684 78.2556 156.619C78.159 156.553 78.0212 156.52 77.8422 156.52H77.1817V157.326ZM79.0897 156.521V156.356H80.7261V156.521H79.9988V158.538H79.8255V156.521H79.0897ZM82.001 158.584C81.821 158.584 81.661 158.535 81.5209 158.439C81.3807 158.341 81.2704 158.207 81.1899 158.037C81.1094 157.866 81.0691 157.672 81.0691 157.454C81.0691 157.236 81.1094 157.041 81.1899 156.872C81.2704 156.701 81.3807 156.567 81.5209 156.47C81.661 156.372 81.821 156.324 82.001 156.324C82.1809 156.324 82.3409 156.372 82.4811 156.47C82.6212 156.567 82.7316 156.701 82.812 156.872C82.8925 157.042 82.9328 157.236 82.9328 157.454C82.9328 157.672 82.8925 157.866 82.812 158.037C82.7316 158.207 82.6212 158.341 82.4811 158.439C82.3409 158.535 82.1809 158.584 82.001 158.584ZM82.001 158.423C82.1534 158.423 82.2865 158.38 82.4001 158.294C82.5147 158.208 82.6032 158.091 82.6657 157.944C82.7292 157.798 82.7609 157.634 82.7609 157.454C82.7609 157.274 82.7292 157.111 82.6657 156.966C82.6023 156.819 82.5138 156.702 82.4001 156.616C82.2865 156.529 82.1534 156.486 82.001 156.486C81.8485 156.486 81.7155 156.529 81.6018 156.616C81.4882 156.702 81.3996 156.819 81.3362 156.966C81.2727 157.111 81.241 157.274 81.241 157.454C81.241 157.634 81.2723 157.798 81.3348 157.944C81.3982 158.091 81.4868 158.208 81.6004 158.294C81.715 158.38 81.8485 158.423 82.001 158.423ZM84.6192 158.284L85.4985 156.356H85.6704L84.6831 158.538H84.5553L83.5738 156.356H83.7442L84.6192 158.284ZM83.703 156.356V158.538H83.5297V156.356H83.703ZM85.5354 158.538V156.356H85.7087V158.538H85.5354ZM87.0141 158.585C86.8882 158.585 86.7726 158.56 86.6675 158.51C86.5633 158.459 86.4795 158.386 86.4161 158.29C86.3536 158.193 86.3223 158.075 86.3223 157.937C86.3223 157.846 86.3384 157.766 86.3706 157.697C86.4028 157.628 86.4526 157.568 86.5198 157.518C86.587 157.468 86.6732 157.427 86.7783 157.395C86.8834 157.361 87.0089 157.336 87.1547 157.318C87.2655 157.305 87.3645 157.292 87.4516 157.28C87.5387 157.266 87.6069 157.246 87.6562 157.218C87.7063 157.191 87.7314 157.149 87.7314 157.093V157.003C87.7314 156.843 87.6812 156.717 87.5809 156.623C87.4805 156.53 87.3422 156.483 87.1661 156.483C87.0098 156.483 86.8782 156.517 86.7712 156.586C86.6651 156.655 86.5908 156.743 86.5482 156.851L86.3848 156.79C86.4265 156.685 86.4866 156.599 86.5652 156.53C86.6448 156.46 86.7357 156.409 86.838 156.375C86.9412 156.341 87.0491 156.324 87.1618 156.324C87.2594 156.324 87.3522 156.337 87.4402 156.365C87.5293 156.392 87.6083 156.434 87.6775 156.49C87.7475 156.546 87.8029 156.617 87.8437 156.704C87.8844 156.79 87.9047 156.894 87.9047 157.014V158.538H87.7314V158.145H87.7187C87.6808 158.226 87.6287 158.3 87.5624 158.368C87.4971 158.434 87.418 158.487 87.3252 158.527C87.2333 158.566 87.1296 158.585 87.0141 158.585ZM87.0312 158.424C87.1675 158.424 87.2883 158.391 87.3934 158.325C87.4994 158.258 87.5823 158.166 87.6419 158.049C87.7016 157.933 87.7314 157.801 87.7314 157.653V157.332C87.7097 157.351 87.6779 157.368 87.6363 157.383C87.5955 157.397 87.5491 157.41 87.4971 157.422C87.4459 157.432 87.3919 157.441 87.3351 157.45C87.2793 157.458 87.2248 157.465 87.1718 157.471C87.0127 157.49 86.883 157.52 86.7826 157.559C86.6831 157.598 86.6102 157.649 86.5638 157.713C86.5184 157.776 86.4956 157.853 86.4956 157.943C86.4956 158.092 86.5468 158.209 86.649 158.295C86.7513 158.381 86.8787 158.424 87.0312 158.424ZM88.3202 156.521V156.356H89.9566V156.521H89.2293V158.538H89.056V156.521H88.3202Z" fill="#1D3A6D"/>
<rect x="30.1" y="60.2875" width="16.3556" height="6.16752" rx="0.9" stroke="#1D3A6D" stroke-width="0.2"/>
<path d="M33.1073 62.6477H33.4383C33.6447 62.6477 33.8275 62.6955 33.9866 62.7912C34.1457 62.8859 34.2702 63.0185 34.3602 63.1889C34.4511 63.3584 34.4961 63.5563 34.4951 63.7827C34.4951 64.008 34.4506 64.206 34.3616 64.3764C34.2726 64.5459 34.1495 64.678 33.9923 64.7727C33.8351 64.8674 33.6533 64.9148 33.4468 64.9148H33.1087C32.9014 64.9148 32.7176 64.8674 32.5576 64.7727C32.3985 64.6771 32.274 64.544 32.184 64.3736C32.0941 64.2031 32.0496 64.0047 32.0505 63.7784C32.0515 63.554 32.0964 63.357 32.1854 63.1875C32.2754 63.018 32.3995 62.8859 32.5576 62.7912C32.7167 62.6955 32.8999 62.6477 33.1073 62.6477ZM33.1116 62.8125C32.9212 62.8125 32.7603 62.8556 32.6286 62.9418C32.497 63.027 32.3971 63.143 32.3289 63.2898C32.2617 63.4366 32.2281 63.6032 32.2281 63.7898C32.229 63.9725 32.2631 64.1364 32.3303 64.2812C32.3985 64.4261 32.4979 64.5407 32.6286 64.625C32.7593 64.7083 32.9193 64.75 33.1087 64.75H33.4426C33.631 64.75 33.7901 64.7083 33.9198 64.625C34.0505 64.5407 34.1495 64.4257 34.2167 64.2798C34.2849 64.134 34.3185 63.9683 34.3176 63.7827C34.3166 63.5971 34.2825 63.4313 34.2153 63.2855C34.148 63.1397 34.0491 63.0246 33.9184 62.9403C33.7877 62.8551 33.6267 62.8125 33.4354 62.8125H33.1116ZM33.3644 62.2273V65.3068H33.1869V62.2273H33.3644ZM35.7036 65.2344C35.5776 65.2344 35.4621 65.2093 35.357 65.1591C35.2528 65.1089 35.169 65.0355 35.1055 64.9389C35.043 64.8423 35.0118 64.7249 35.0118 64.5866C35.0118 64.4957 35.0279 64.4157 35.0601 64.3466C35.0923 64.2775 35.142 64.2178 35.2092 64.1676C35.2765 64.1174 35.3626 64.0762 35.4678 64.044C35.5729 64.0109 35.6984 63.9853 35.8442 63.9673C35.955 63.9541 36.0539 63.9413 36.1411 63.929C36.2282 63.9157 36.2964 63.8954 36.3456 63.8679C36.3958 63.8404 36.4209 63.7988 36.4209 63.7429V63.652C36.4209 63.4929 36.3707 63.3665 36.2703 63.2727C36.1699 63.179 36.0317 63.1321 35.8555 63.1321C35.6993 63.1321 35.5677 63.1667 35.4607 63.2358C35.3546 63.304 35.2803 63.392 35.2376 63.5L35.0743 63.4389C35.116 63.3348 35.1761 63.2481 35.2547 63.179C35.3342 63.1098 35.4251 63.0582 35.5274 63.0241C35.6306 62.9901 35.7386 62.973 35.8513 62.973C35.9488 62.973 36.0416 62.9867 36.1297 63.0142C36.2187 63.0417 36.2978 63.0833 36.3669 63.1392C36.437 63.1951 36.4924 63.2666 36.5331 63.3537C36.5738 63.4399 36.5942 63.5431 36.5942 63.6634V65.1875H36.4209V64.794H36.4081C36.3702 64.8755 36.3181 64.9498 36.2519 65.017C36.1865 65.0833 36.1074 65.1364 36.0146 65.1761C35.9228 65.215 35.8191 65.2344 35.7036 65.2344ZM35.7206 65.0739C35.857 65.0739 35.9777 65.0407 36.0828 64.9744C36.1889 64.9072 36.2717 64.8153 36.3314 64.6989C36.3911 64.5824 36.4209 64.4503 36.4209 64.3026V63.9815C36.3991 64.0005 36.3674 64.0175 36.3257 64.0327C36.285 64.0469 36.2386 64.0597 36.1865 64.071C36.1354 64.0814 36.0814 64.0909 36.0246 64.0994C35.9687 64.107 35.9143 64.1141 35.8612 64.1207C35.7021 64.1397 35.5724 64.169 35.472 64.2088C35.3726 64.2476 35.2997 64.2988 35.2533 64.3622C35.2078 64.4257 35.1851 64.5024 35.1851 64.5923C35.1851 64.741 35.2362 64.8584 35.3385 64.9446C35.4408 65.0308 35.5681 65.0739 35.7206 65.0739ZM37.1773 64.6307H37.3577C37.3653 64.7642 37.4207 64.8712 37.5239 64.9517C37.628 65.0322 37.7658 65.0724 37.9372 65.0724C38.1153 65.0724 38.2587 65.0294 38.3676 64.9432C38.4765 64.857 38.531 64.7401 38.531 64.5923C38.531 64.5024 38.5111 64.4238 38.4713 64.3565C38.4315 64.2884 38.3785 64.2353 38.3122 64.1974C38.2459 64.1596 38.173 64.1392 38.0935 64.1364H37.7071V63.9759H38.0864C38.2123 63.9607 38.3103 63.9205 38.3804 63.8551C38.4505 63.7888 38.4855 63.6989 38.4855 63.5852C38.4855 63.4489 38.4382 63.34 38.3435 63.2585C38.2488 63.1771 38.1233 63.1364 37.9671 63.1364C37.808 63.1364 37.6763 63.1776 37.5722 63.2599C37.4689 63.3423 37.4135 63.4489 37.406 63.5795H37.2284C37.2332 63.4602 37.2677 63.3556 37.3321 63.2656C37.3975 63.1747 37.4841 63.1042 37.5921 63.054C37.701 63.0028 37.8241 62.9773 37.9614 62.9773C38.1025 62.9773 38.2251 63.0038 38.3293 63.0568C38.4344 63.1089 38.5158 63.1804 38.5736 63.2713C38.6314 63.3622 38.6602 63.4654 38.6602 63.581C38.6602 63.6984 38.6285 63.7964 38.5651 63.875C38.5026 63.9536 38.4211 64.0085 38.3207 64.0398V64.0611C38.3937 64.0724 38.459 64.1027 38.5168 64.152C38.5755 64.2012 38.6214 64.2642 38.6546 64.3409C38.6886 64.4167 38.7057 64.5005 38.7057 64.5923C38.7057 64.7173 38.6735 64.8281 38.6091 64.9247C38.5457 65.0213 38.4566 65.0971 38.3421 65.152C38.2275 65.206 38.093 65.233 37.9386 65.233C37.7919 65.233 37.6617 65.2079 37.548 65.1577C37.4353 65.1075 37.3463 65.0374 37.281 64.9474C37.2166 64.8565 37.182 64.7509 37.1773 64.6307ZM39.8481 65.2344C39.7221 65.2344 39.6066 65.2093 39.5015 65.1591C39.3973 65.1089 39.3135 65.0355 39.2501 64.9389C39.1876 64.8423 39.1563 64.7249 39.1563 64.5866C39.1563 64.4957 39.1724 64.4157 39.2046 64.3466C39.2368 64.2775 39.2865 64.2178 39.3538 64.1676C39.421 64.1174 39.5072 64.0762 39.6123 64.044C39.7174 64.0109 39.8429 63.9853 39.9887 63.9673C40.0995 63.9541 40.1985 63.9413 40.2856 63.929C40.3727 63.9157 40.4409 63.8954 40.4901 63.8679C40.5403 63.8404 40.5654 63.7988 40.5654 63.7429V63.652C40.5654 63.4929 40.5152 63.3665 40.4149 63.2727C40.3145 63.179 40.1762 63.1321 40.0001 63.1321C39.8438 63.1321 39.7122 63.1667 39.6052 63.2358C39.4991 63.304 39.4248 63.392 39.3822 63.5L39.2188 63.4389C39.2605 63.3348 39.3206 63.2481 39.3992 63.179C39.4788 63.1098 39.5697 63.0582 39.672 63.0241C39.7752 62.9901 39.8831 62.973 39.9958 62.973C40.0934 62.973 40.1862 62.9867 40.2742 63.0142C40.3632 63.0417 40.4423 63.0833 40.5114 63.1392C40.5815 63.1951 40.6369 63.2666 40.6776 63.3537C40.7184 63.4399 40.7387 63.5431 40.7387 63.6634V65.1875H40.5654V64.794H40.5526C40.5148 64.8755 40.4627 64.9498 40.3964 65.017C40.331 65.0833 40.252 65.1364 40.1592 65.1761C40.0673 65.215 39.9636 65.2344 39.8481 65.2344ZM39.8651 65.0739C40.0015 65.0739 40.1222 65.0407 40.2274 64.9744C40.3334 64.9072 40.4163 64.8153 40.4759 64.6989C40.5356 64.5824 40.5654 64.4503 40.5654 64.3026V63.9815C40.5436 64.0005 40.5119 64.0175 40.4702 64.0327C40.4295 64.0469 40.3831 64.0597 40.331 64.071C40.2799 64.0814 40.2259 64.0909 40.1691 64.0994C40.1132 64.107 40.0588 64.1141 40.0058 64.1207C39.8467 64.1397 39.7169 64.169 39.6166 64.2088C39.5171 64.2476 39.4442 64.2988 39.3978 64.3622C39.3524 64.4257 39.3296 64.5024 39.3296 64.5923C39.3296 64.741 39.3808 64.8584 39.483 64.9446C39.5853 65.0308 39.7127 65.0739 39.8651 65.0739ZM42.5391 65.1875H42.3516L43.4014 62.2784H43.6059L44.6556 65.1875H44.4681L43.5107 62.5071H43.4965L42.5391 65.1875ZM42.8048 64.0923H44.2025V64.2571H42.8048V64.0923Z" fill="#1D3A6D"/>
<rect x="30.1" y="50.1" width="62.2017" height="6.16752" rx="0.9" stroke="#1D3A6D" stroke-width="0.2"/>
<path d="M33.2893 55V52.0909H33.4668V53.4616H35.2197V52.0909H35.3972V55H35.2197V53.6264H33.4668V55H33.2893ZM36.7555 55.0469C36.6296 55.0469 36.5141 55.0218 36.4089 54.9716C36.3048 54.9214 36.221 54.848 36.1575 54.7514C36.095 54.6548 36.0638 54.5374 36.0638 54.3991C36.0638 54.3082 36.0799 54.2282 36.1121 54.1591C36.1443 54.09 36.194 54.0303 36.2612 53.9801C36.3285 53.9299 36.4146 53.8887 36.5197 53.8565C36.6249 53.8234 36.7503 53.7978 36.8962 53.7798C37.007 53.7666 37.1059 53.7538 37.193 53.7415C37.2802 53.7282 37.3483 53.7079 37.3976 53.6804C37.4478 53.6529 37.4729 53.6113 37.4729 53.5554V53.4645C37.4729 53.3054 37.4227 53.179 37.3223 53.0852C37.2219 52.9915 37.0837 52.9446 36.9075 52.9446C36.7513 52.9446 36.6197 52.9792 36.5126 53.0483C36.4066 53.1165 36.3322 53.2045 36.2896 53.3125L36.1263 53.2514C36.1679 53.1473 36.2281 53.0606 36.3067 52.9915C36.3862 52.9223 36.4771 52.8707 36.5794 52.8366C36.6826 52.8026 36.7906 52.7855 36.9033 52.7855C37.0008 52.7855 37.0936 52.7992 37.1817 52.8267C37.2707 52.8542 37.3498 52.8958 37.4189 52.9517C37.489 53.0076 37.5444 53.0791 37.5851 53.1662C37.6258 53.2524 37.6462 53.3556 37.6462 53.4759V55H37.4729V54.6065H37.4601C37.4222 54.688 37.3701 54.7623 37.3038 54.8295C37.2385 54.8958 37.1594 54.9489 37.0666 54.9886C36.9748 55.0275 36.8711 55.0469 36.7555 55.0469ZM36.7726 54.8864C36.909 54.8864 37.0297 54.8532 37.1348 54.7869C37.2409 54.7197 37.3237 54.6278 37.3834 54.5114C37.443 54.3949 37.4729 54.2628 37.4729 54.1151V53.794C37.4511 53.813 37.4194 53.83 37.3777 53.8452C37.337 53.8594 37.2906 53.8722 37.2385 53.8835C37.1874 53.8939 37.1334 53.9034 37.0766 53.9119C37.0207 53.9195 36.9662 53.9266 36.9132 53.9332C36.7541 53.9522 36.6244 53.9815 36.524 54.0213C36.4246 54.0601 36.3517 54.1113 36.3053 54.1747C36.2598 54.2382 36.2371 54.3149 36.2371 54.4048C36.2371 54.5535 36.2882 54.6709 36.3905 54.7571C36.4928 54.8433 36.6201 54.8864 36.7726 54.8864ZM38.1384 55V54.8352H38.1952C38.2851 54.8352 38.3562 54.8196 38.4082 54.7884C38.4603 54.7562 38.4991 54.7041 38.5247 54.6321C38.5512 54.5601 38.5702 54.464 38.5815 54.3438C38.5929 54.2225 38.6028 54.0724 38.6114 53.8935L38.6668 52.8182H39.9849V55H39.8131V52.983H38.8301L38.7804 53.9389C38.7719 54.1151 38.7596 54.2694 38.7435 54.402C38.7283 54.5346 38.7023 54.6454 38.6653 54.7344C38.6294 54.8224 38.5749 54.8887 38.502 54.9332C38.4291 54.9777 38.3306 55 38.2065 55H38.1384ZM40.8859 54.7741L42.1373 52.8182H42.3575V55H42.1842V53.044L40.9342 55H40.7126V52.8182H40.8859V54.7741ZM44.6142 52.8182V55H44.4423V52.8182H44.6142ZM44.5574 53.9361V54.1065C44.4598 54.1397 44.3708 54.1671 44.2903 54.1889C44.2108 54.2107 44.1341 54.2268 44.0602 54.2372C43.9864 54.2467 43.9101 54.2514 43.8315 54.2514C43.5891 54.2505 43.4026 54.1922 43.2719 54.0767C43.1412 53.9602 43.0759 53.7794 43.0759 53.5341V52.8082H43.2491V53.5341C43.2491 53.6648 43.2714 53.7708 43.3159 53.8523C43.3604 53.9328 43.4258 53.992 43.5119 54.0298C43.5981 54.0677 43.7027 54.0866 43.8259 54.0866C43.9509 54.0866 44.0725 54.0734 44.1909 54.0469C44.3102 54.0194 44.4324 53.9825 44.5574 53.9361ZM45.5148 54.7741L46.7662 52.8182H46.9864V55H46.8131V53.044L45.5631 55H45.3415V52.8182H45.5148V54.7741ZM48.5556 55.0455C48.3586 55.0455 48.1872 54.9967 48.0414 54.8991C47.8956 54.8016 47.7829 54.6681 47.7033 54.4986C47.6238 54.3291 47.584 54.1359 47.584 53.919C47.584 53.7012 47.6238 53.5071 47.7033 53.3366C47.7838 53.1662 47.8942 53.0317 48.0343 52.9332C48.1745 52.8348 48.3345 52.7855 48.5144 52.7855C48.6366 52.7855 48.7521 52.8101 48.861 52.8594C48.9709 52.9077 49.0674 52.9777 49.1508 53.0696C49.2351 53.1615 49.3009 53.2723 49.3482 53.402C49.3965 53.5317 49.4207 53.6776 49.4207 53.8395V53.9474H47.6934V53.7898H49.2474C49.2474 53.6316 49.2152 53.4891 49.1508 53.3622C49.0864 53.2353 48.9988 53.1345 48.888 53.0597C48.7772 52.9848 48.6527 52.9474 48.5144 52.9474C48.3695 52.9474 48.2403 52.9882 48.1266 53.0696C48.0139 53.1501 47.9245 53.259 47.8582 53.3963C47.7928 53.5336 47.7587 53.687 47.7559 53.8565V53.9276C47.7559 54.1094 47.7876 54.2727 47.8511 54.4176C47.9155 54.5616 48.0073 54.6757 48.1266 54.7599C48.246 54.8433 48.3889 54.8849 48.5556 54.8849C48.6749 54.8849 48.7767 54.8651 48.861 54.8253C48.9462 54.7846 49.0158 54.7353 49.0698 54.6776C49.1238 54.6198 49.1645 54.5639 49.192 54.5099L49.3496 54.5739C49.3165 54.6468 49.2649 54.7197 49.1948 54.7926C49.1257 54.8646 49.0376 54.9247 48.9306 54.973C48.8246 55.0213 48.6996 55.0455 48.5556 55.0455ZM52.6295 53.8281V53.9929H51.2673V53.8281H52.6295ZM51.3156 52.8182V55H51.1423V52.8182H51.3156ZM52.7474 52.8182V55H52.5741V52.8182H52.7474ZM54.0524 55.0469C53.9265 55.0469 53.8109 55.0218 53.7058 54.9716C53.6017 54.9214 53.5179 54.848 53.4544 54.7514C53.3919 54.6548 53.3607 54.5374 53.3607 54.3991C53.3607 54.3082 53.3768 54.2282 53.4089 54.1591C53.4411 54.09 53.4909 54.0303 53.5581 53.9801C53.6253 53.9299 53.7115 53.8887 53.8166 53.8565C53.9217 53.8234 54.0472 53.7978 54.193 53.7798C54.3038 53.7666 54.4028 53.7538 54.4899 53.7415C54.577 53.7282 54.6452 53.7079 54.6945 53.6804C54.7447 53.6529 54.7697 53.6113 54.7697 53.5554V53.4645C54.7697 53.3054 54.7196 53.179 54.6192 53.0852C54.5188 52.9915 54.3805 52.9446 54.2044 52.9446C54.0482 52.9446 53.9165 52.9792 53.8095 53.0483C53.7035 53.1165 53.6291 53.2045 53.5865 53.3125L53.4232 53.2514C53.4648 53.1473 53.525 53.0606 53.6036 52.9915C53.6831 52.9223 53.774 52.8707 53.8763 52.8366C53.9795 52.8026 54.0875 52.7855 54.2001 52.7855C54.2977 52.7855 54.3905 52.7992 54.4786 52.8267C54.5676 52.8542 54.6466 52.8958 54.7158 52.9517C54.7858 53.0076 54.8412 53.0791 54.882 53.1662C54.9227 53.2524 54.943 53.3556 54.943 53.4759V55H54.7697V54.6065H54.757C54.7191 54.688 54.667 54.7623 54.6007 54.8295C54.5354 54.8958 54.4563 54.9489 54.3635 54.9886C54.2716 55.0275 54.1679 55.0469 54.0524 55.0469ZM54.0695 54.8864C54.2058 54.8864 54.3266 54.8532 54.4317 54.7869C54.5377 54.7197 54.6206 54.6278 54.6803 54.5114C54.7399 54.3949 54.7697 54.2628 54.7697 54.1151V53.794C54.748 53.813 54.7162 53.83 54.6746 53.8452C54.6339 53.8594 54.5875 53.8722 54.5354 53.8835C54.4842 53.8939 54.4303 53.9034 54.3734 53.9119C54.3176 53.9195 54.2631 53.9266 54.2101 53.9332C54.051 53.9522 53.9213 53.9815 53.8209 54.0213C53.7214 54.0601 53.6485 54.1113 53.6021 54.1747C53.5567 54.2382 53.5339 54.3149 53.5339 54.4048C53.5339 54.5535 53.5851 54.6709 53.6874 54.7571C53.7896 54.8433 53.917 54.8864 54.0695 54.8864ZM55.6781 55V52.8182H57.2648V55H57.0929V52.983H55.85V55H55.6781ZM57.9938 55.8182V52.8182H58.1629V53.3054H58.1842C58.2183 53.2116 58.2661 53.1255 58.3276 53.0469C58.3901 52.9683 58.4673 52.9053 58.5592 52.858C58.652 52.8097 58.7609 52.7855 58.8859 52.7855C59.062 52.7855 59.2154 52.8338 59.3461 52.9304C59.4768 53.027 59.5781 53.1605 59.6501 53.331C59.722 53.5005 59.758 53.6951 59.758 53.9148C59.758 54.1345 59.7216 54.3295 59.6487 54.5C59.5767 54.6695 59.4754 54.803 59.3447 54.9006C59.2149 54.9972 59.063 55.0455 58.8887 55.0455C58.7647 55.0455 58.6558 55.0218 58.562 54.9744C58.4692 54.9271 58.3911 54.8641 58.3276 54.7855C58.2651 54.706 58.2173 54.6188 58.1842 54.5241H58.1671V55.8182H57.9938ZM58.1643 53.9134C58.1643 54.099 58.1927 54.2652 58.2495 54.4119C58.3063 54.5578 58.3878 54.6733 58.4938 54.7585C58.5999 54.8428 58.7263 54.8849 58.8731 54.8849C59.0218 54.8849 59.1491 54.8423 59.2552 54.7571C59.3622 54.6709 59.4436 54.5545 59.4995 54.4077C59.5563 54.2609 59.5847 54.0961 59.5847 53.9134C59.5847 53.7306 59.5568 53.5663 59.5009 53.4205C59.4451 53.2746 59.3641 53.1596 59.258 53.0753C59.152 52.9901 59.0237 52.9474 58.8731 52.9474C58.7244 52.9474 58.597 52.9896 58.491 53.0739C58.3859 53.1572 58.3049 53.2718 58.2481 53.4176C58.1922 53.5625 58.1643 53.7277 58.1643 53.9134ZM61.6696 55V52.9787L61.0489 52.9815C60.8661 52.9815 60.7312 53.0156 60.644 53.0838C60.5579 53.152 60.5148 53.2618 60.5148 53.4134C60.5148 53.563 60.5574 53.6719 60.6426 53.7401C60.7278 53.8082 60.859 53.8423 61.0361 53.8423H61.7293V54.0071H61.0361C60.8817 54.0071 60.7529 53.9853 60.6497 53.9418C60.5474 53.8973 60.4707 53.831 60.4196 53.7429C60.3685 53.6548 60.3429 53.545 60.3429 53.4134C60.3429 53.2808 60.3689 53.1705 60.421 53.0824C60.4731 52.9943 60.5512 52.9285 60.6554 52.8849C60.7605 52.8404 60.8917 52.8182 61.0489 52.8182H61.8372V55H61.6696ZM60.1852 55L60.8216 53.9148H61.0134L60.377 55H60.1852ZM62.4278 55L63.4704 53.9034L62.4434 52.8182H62.6607L63.6082 53.8253H63.7204V52.8182H63.8923V53.8253H64.0016L64.9491 52.8182H65.1664L64.1423 53.9034L65.182 55H64.9604L64.0002 53.9901H63.8923V55H63.7204V53.9901H63.6124L62.6494 55H62.4278ZM66.5244 55.0455C66.3274 55.0455 66.156 54.9967 66.0102 54.8991C65.8643 54.8016 65.7516 54.6681 65.6721 54.4986C65.5925 54.3291 65.5528 54.1359 65.5528 53.919C65.5528 53.7012 65.5925 53.5071 65.6721 53.3366C65.7526 53.1662 65.8629 53.0317 66.0031 52.9332C66.1432 52.8348 66.3032 52.7855 66.4832 52.7855C66.6053 52.7855 66.7209 52.8101 66.8298 52.8594C66.9396 52.9077 67.0362 52.9777 67.1195 53.0696C67.2038 53.1615 67.2696 53.2723 67.317 53.402C67.3653 53.5317 67.3894 53.6776 67.3894 53.8395V53.9474H65.6621V53.7898H67.2161C67.2161 53.6316 67.1839 53.4891 67.1195 53.3622C67.0551 53.2353 66.9675 53.1345 66.8567 53.0597C66.746 52.9848 66.6214 52.9474 66.4832 52.9474C66.3383 52.9474 66.209 52.9882 66.0954 53.0696C65.9827 53.1501 65.8932 53.259 65.8269 53.3963C65.7616 53.5336 65.7275 53.687 65.7246 53.8565V53.9276C65.7246 54.1094 65.7564 54.2727 65.8198 54.4176C65.8842 54.5616 65.9761 54.6757 66.0954 54.7599C66.2147 54.8433 66.3577 54.8849 66.5244 54.8849C66.6437 54.8849 66.7455 54.8651 66.8298 54.8253C66.915 54.7846 66.9846 54.7353 67.0386 54.6776C67.0925 54.6198 67.1333 54.5639 67.1607 54.5099L67.3184 54.5739C67.2853 54.6468 67.2336 54.7197 67.1636 54.7926C67.0944 54.8646 67.0064 54.9247 66.8994 54.973C66.7933 55.0213 66.6683 55.0455 66.5244 55.0455ZM69.4732 53.8281V53.9929H68.111V53.8281H69.4732ZM68.1593 52.8182V55H67.986V52.8182H68.1593ZM69.5911 52.8182V55H69.4178V52.8182H69.5911ZM70.4913 54.7741L71.7428 52.8182H71.9629V55H71.7896V53.044L70.5396 55H70.318V52.8182H70.4913V54.7741ZM73.9938 55V52.9787L73.3731 52.9815C73.1903 52.9815 73.0554 53.0156 72.9683 53.0838C72.8821 53.152 72.839 53.2618 72.839 53.4134C72.839 53.563 72.8816 53.6719 72.9668 53.7401C73.0521 53.8082 73.1832 53.8423 73.3603 53.8423H74.0535V54.0071H73.3603C73.2059 54.0071 73.0772 53.9853 72.9739 53.9418C72.8717 53.8973 72.795 53.831 72.7438 53.7429C72.6927 53.6548 72.6671 53.545 72.6671 53.4134C72.6671 53.2808 72.6932 53.1705 72.7452 53.0824C72.7973 52.9943 72.8754 52.9285 72.9796 52.8849C73.0847 52.8404 73.2159 52.8182 73.3731 52.8182H74.1614V55H73.9938ZM72.5094 55L73.1458 53.9148H73.3376L72.7012 55H72.5094ZM76.0744 55V52.0909H77.019C77.1952 52.0909 77.3438 52.1222 77.4651 52.1847C77.5863 52.2472 77.6781 52.3348 77.7406 52.4474C77.8041 52.5601 77.8358 52.6913 77.8358 52.8409C77.8358 52.9583 77.8169 53.0625 77.779 53.1534C77.7411 53.2443 77.6881 53.3196 77.6199 53.3793C77.5527 53.438 77.4736 53.4787 77.3827 53.5014V53.5185C77.483 53.526 77.5763 53.5611 77.6625 53.6236C77.7487 53.6851 77.8178 53.7689 77.8699 53.875C77.9229 53.9811 77.9494 54.1046 77.9494 54.2457C77.9494 54.3944 77.9172 54.5256 77.8528 54.6392C77.7894 54.7519 77.6942 54.8404 77.5673 54.9048C77.4404 54.9683 77.2832 55 77.0957 55H76.0744ZM76.252 54.8352H77.0957C77.3145 54.8352 77.4826 54.7803 77.6 54.6705C77.7184 54.5606 77.7776 54.419 77.7776 54.2457C77.7776 54.1236 77.7487 54.0142 77.6909 53.9176C77.6341 53.821 77.555 53.7448 77.4537 53.6889C77.3524 53.6321 77.2349 53.6037 77.1014 53.6037H76.252V54.8352ZM76.252 53.4418H77.0801C77.2042 53.4418 77.3093 53.4148 77.3955 53.3608C77.4826 53.3068 77.5489 53.2344 77.5943 53.1435C77.6407 53.0526 77.6639 52.9517 77.6639 52.8409C77.6639 52.661 77.608 52.5185 77.4963 52.4134C77.3846 52.3082 77.2255 52.2557 77.019 52.2557H76.252V53.4418ZM78.6486 55V52.0909H79.5933C79.7694 52.0909 79.9181 52.1222 80.0393 52.1847C80.1605 52.2472 80.2523 52.3348 80.3148 52.4474C80.3783 52.5601 80.41 52.6913 80.41 52.8409C80.41 52.9583 80.3911 53.0625 80.3532 53.1534C80.3153 53.2443 80.2623 53.3196 80.1941 53.3793C80.1269 53.438 80.0478 53.4787 79.9569 53.5014V53.5185C80.0573 53.526 80.1505 53.5611 80.2367 53.6236C80.3229 53.6851 80.392 53.7689 80.4441 53.875C80.4971 53.9811 80.5236 54.1046 80.5236 54.2457C80.5236 54.3944 80.4915 54.5256 80.4271 54.6392C80.3636 54.7519 80.2684 54.8404 80.1415 54.9048C80.0147 54.9683 79.8575 55 79.67 55H78.6486ZM78.8262 54.8352H79.67C79.8887 54.8352 80.0568 54.7803 80.1742 54.6705C80.2926 54.5606 80.3518 54.419 80.3518 54.2457C80.3518 54.1236 80.3229 54.0142 80.2651 53.9176C80.2083 53.821 80.1292 53.7448 80.0279 53.6889C79.9266 53.6321 79.8092 53.6037 79.6756 53.6037H78.8262V54.8352ZM78.8262 53.4418H79.6543C79.7784 53.4418 79.8835 53.4148 79.9697 53.3608C80.0568 53.3068 80.1231 53.2344 80.1685 53.1435C80.2149 53.0526 80.2381 52.9517 80.2381 52.8409C80.2381 52.661 80.1823 52.5185 80.0705 52.4134C79.9588 52.3082 79.7997 52.2557 79.5933 52.2557H78.8262V53.4418ZM83.5368 53.5455C83.5368 53.8456 83.4847 54.108 83.3805 54.3324C83.2764 54.5559 83.1315 54.7296 82.9459 54.8537C82.7612 54.9777 82.5482 55.0398 82.3067 55.0398C82.0643 55.0398 81.8502 54.9777 81.6646 54.8537C81.48 54.7287 81.3356 54.5545 81.2314 54.331C81.1272 54.1065 81.0751 53.8447 81.0751 53.5455C81.0751 53.2453 81.1272 52.9834 81.2314 52.7599C81.3365 52.5365 81.4814 52.3627 81.6661 52.2386C81.8507 52.1136 82.0643 52.0511 82.3067 52.0511C82.5482 52.0511 82.7612 52.1132 82.9459 52.2372C83.1315 52.3613 83.2764 52.5355 83.3805 52.7599C83.4847 52.9834 83.5368 53.2453 83.5368 53.5455ZM83.3635 53.5455C83.3635 53.2756 83.318 53.0417 83.2271 52.8438C83.1372 52.6458 83.0126 52.4929 82.8536 52.3849C82.6945 52.276 82.5122 52.2216 82.3067 52.2216C82.1012 52.2216 81.9189 52.2756 81.7598 52.3835C81.6007 52.4905 81.4757 52.6435 81.3848 52.8423C81.2948 53.0402 81.2499 53.2746 81.2499 53.5455C81.2499 53.8134 81.2944 54.0469 81.3834 54.2457C81.4733 54.4437 81.5979 54.5971 81.757 54.706C81.9161 54.8149 82.0993 54.8693 82.3067 54.8693C82.5122 54.8693 82.6945 54.8153 82.8536 54.7074C83.0126 54.5985 83.1372 54.4451 83.2271 54.2472C83.318 54.0492 83.3635 53.8153 83.3635 53.5455ZM83.931 55.7088V54.8352H84.1128C84.1838 54.7528 84.2473 54.651 84.3031 54.5298C84.359 54.4077 84.4049 54.2543 84.4409 54.0696C84.4778 53.8849 84.502 53.6586 84.5134 53.3906L84.5659 52.0909H86.1668V54.8352H86.5134V55.6989H86.3401V55H84.1043V55.7088H83.931ZM84.3287 54.8352H85.9935V52.2557H84.7307L84.6852 53.3906C84.6758 53.6217 84.6568 53.8258 84.6284 54.0028C84.6 54.179 84.5607 54.3348 84.5105 54.4702C84.4613 54.6046 84.4007 54.7263 84.3287 54.8352ZM88.9452 52.0909V55H88.7676V52.2784H88.7506L88.0972 52.7116V52.5213L88.7449 52.0909H88.9452Z" fill="#1D3A6D"/>
<rect x="98.8695" y="50.1" width="62.2017" height="6.16752" rx="0.9" stroke="#1D3A6D" stroke-width="0.2"/>
<path d="M101.682 55V52.0909H101.859V53.4616H103.612V52.0909H103.79V55H103.612V53.6264H101.859V55H101.682ZM105.148 55.0469C105.022 55.0469 104.907 55.0218 104.802 54.9716C104.697 54.9214 104.614 54.848 104.55 54.7514C104.488 54.6548 104.456 54.5374 104.456 54.3991C104.456 54.3082 104.472 54.2282 104.505 54.1591C104.537 54.09 104.587 54.0303 104.654 53.9801C104.721 53.9299 104.807 53.8887 104.912 53.8565C105.017 53.8234 105.143 53.7978 105.289 53.7798C105.4 53.7666 105.498 53.7538 105.586 53.7415C105.673 53.7282 105.741 53.7079 105.79 53.6804C105.84 53.6529 105.865 53.6113 105.865 53.5554V53.4645C105.865 53.3054 105.815 53.179 105.715 53.0852C105.615 52.9915 105.476 52.9446 105.3 52.9446C105.144 52.9446 105.012 52.9792 104.905 53.0483C104.799 53.1165 104.725 53.2045 104.682 53.3125L104.519 53.2514C104.561 53.1473 104.621 53.0606 104.699 52.9915C104.779 52.9223 104.87 52.8707 104.972 52.8366C105.075 52.8026 105.183 52.7855 105.296 52.7855C105.393 52.7855 105.486 52.7992 105.574 52.8267C105.663 52.8542 105.742 52.8958 105.811 52.9517C105.882 53.0076 105.937 53.0791 105.978 53.1662C106.018 53.2524 106.039 53.3556 106.039 53.4759V55H105.865V54.6065H105.853C105.815 54.688 105.763 54.7623 105.696 54.8295C105.631 54.8958 105.552 54.9489 105.459 54.9886C105.367 55.0275 105.264 55.0469 105.148 55.0469ZM105.165 54.8864C105.302 54.8864 105.422 54.8532 105.527 54.7869C105.633 54.7197 105.716 54.6278 105.776 54.5114C105.836 54.3949 105.865 54.2628 105.865 54.1151V53.794C105.844 53.813 105.812 53.83 105.77 53.8452C105.73 53.8594 105.683 53.8722 105.631 53.8835C105.58 53.8939 105.526 53.9034 105.469 53.9119C105.413 53.9195 105.359 53.9266 105.306 53.9332C105.147 53.9522 105.017 53.9815 104.917 54.0213C104.817 54.0601 104.744 54.1113 104.698 54.1747C104.652 54.2382 104.63 54.3149 104.63 54.4048C104.63 54.5535 104.681 54.6709 104.783 54.7571C104.885 54.8433 105.013 54.8864 105.165 54.8864ZM106.531 55V54.8352H106.588C106.678 54.8352 106.749 54.8196 106.801 54.7884C106.853 54.7562 106.892 54.7041 106.917 54.6321C106.944 54.5601 106.963 54.464 106.974 54.3438C106.985 54.2225 106.995 54.0724 107.004 53.8935L107.059 52.8182H108.378V55H108.206V52.983H107.223L107.173 53.9389C107.164 54.1151 107.152 54.2694 107.136 54.402C107.121 54.5346 107.095 54.6454 107.058 54.7344C107.022 54.8224 106.967 54.8887 106.895 54.9332C106.822 54.9777 106.723 55 106.599 55H106.531ZM109.278 54.7741L110.53 52.8182H110.75V55H110.577V53.044L109.327 55H109.105V52.8182H109.278V54.7741ZM113.007 52.8182V55H112.835V52.8182H113.007ZM112.95 53.9361V54.1065C112.852 54.1397 112.763 54.1671 112.683 54.1889C112.603 54.2107 112.527 54.2268 112.453 54.2372C112.379 54.2467 112.303 54.2514 112.224 54.2514C111.982 54.2505 111.795 54.1922 111.664 54.0767C111.534 53.9602 111.468 53.7794 111.468 53.5341V52.8082H111.642V53.5341C111.642 53.6648 111.664 53.7708 111.708 53.8523C111.753 53.9328 111.818 53.992 111.905 54.0298C111.991 54.0677 112.095 54.0866 112.218 54.0866C112.343 54.0866 112.465 54.0734 112.583 54.0469C112.703 54.0194 112.825 53.9825 112.95 53.9361ZM113.907 54.7741L115.159 52.8182H115.379V55H115.206V53.044L113.956 55H113.734V52.8182H113.907V54.7741ZM116.948 55.0455C116.751 55.0455 116.58 54.9967 116.434 54.8991C116.288 54.8016 116.175 54.6681 116.096 54.4986C116.016 54.3291 115.977 54.1359 115.977 53.919C115.977 53.7012 116.016 53.5071 116.096 53.3366C116.176 53.1662 116.287 53.0317 116.427 52.9332C116.567 52.8348 116.727 52.7855 116.907 52.7855C117.029 52.7855 117.145 52.8101 117.254 52.8594C117.363 52.9077 117.46 52.9777 117.543 53.0696C117.628 53.1615 117.693 53.2723 117.741 53.402C117.789 53.5317 117.813 53.6776 117.813 53.8395V53.9474H116.086V53.7898H117.64C117.64 53.6316 117.608 53.4891 117.543 53.3622C117.479 53.2353 117.391 53.1345 117.281 53.0597C117.17 52.9848 117.045 52.9474 116.907 52.9474C116.762 52.9474 116.633 52.9882 116.519 53.0696C116.407 53.1501 116.317 53.259 116.251 53.3963C116.185 53.5336 116.151 53.687 116.148 53.8565V53.9276C116.148 54.1094 116.18 54.2727 116.244 54.4176C116.308 54.5616 116.4 54.6757 116.519 54.7599C116.639 54.8433 116.782 54.8849 116.948 54.8849C117.068 54.8849 117.169 54.8651 117.254 54.8253C117.339 54.7846 117.408 54.7353 117.462 54.6776C117.516 54.6198 117.557 54.5639 117.585 54.5099L117.742 54.5739C117.709 54.6468 117.657 54.7197 117.587 54.7926C117.518 54.8646 117.43 54.9247 117.323 54.973C117.217 55.0213 117.092 55.0455 116.948 55.0455ZM121.022 53.8281V53.9929H119.66V53.8281H121.022ZM119.708 52.8182V55H119.535V52.8182H119.708ZM121.14 52.8182V55H120.967V52.8182H121.14ZM122.445 55.0469C122.319 55.0469 122.204 55.0218 122.098 54.9716C121.994 54.9214 121.91 54.848 121.847 54.7514C121.784 54.6548 121.753 54.5374 121.753 54.3991C121.753 54.3082 121.769 54.2282 121.802 54.1591C121.834 54.09 121.883 54.0303 121.951 53.9801C122.018 53.9299 122.104 53.8887 122.209 53.8565C122.314 53.8234 122.44 53.7978 122.586 53.7798C122.696 53.7666 122.795 53.7538 122.882 53.7415C122.97 53.7282 123.038 53.7079 123.087 53.6804C123.137 53.6529 123.162 53.6113 123.162 53.5554V53.4645C123.162 53.3054 123.112 53.179 123.012 53.0852C122.911 52.9915 122.773 52.9446 122.597 52.9446C122.441 52.9446 122.309 52.9792 122.202 53.0483C122.096 53.1165 122.022 53.2045 121.979 53.3125L121.816 53.2514C121.857 53.1473 121.918 53.0606 121.996 52.9915C122.076 52.9223 122.167 52.8707 122.269 52.8366C122.372 52.8026 122.48 52.7855 122.593 52.7855C122.69 52.7855 122.783 52.7992 122.871 52.8267C122.96 52.8542 123.039 52.8958 123.108 52.9517C123.178 53.0076 123.234 53.0791 123.275 53.1662C123.315 53.2524 123.336 53.3556 123.336 53.4759V55H123.162V54.6065H123.15C123.112 54.688 123.06 54.7623 122.993 54.8295C122.928 54.8958 122.849 54.9489 122.756 54.9886C122.664 55.0275 122.561 55.0469 122.445 55.0469ZM122.462 54.8864C122.598 54.8864 122.719 54.8532 122.824 54.7869C122.93 54.7197 123.013 54.6278 123.073 54.5114C123.132 54.3949 123.162 54.2628 123.162 54.1151V53.794C123.141 53.813 123.109 53.83 123.067 53.8452C123.026 53.8594 122.98 53.8722 122.928 53.8835C122.877 53.8939 122.823 53.9034 122.766 53.9119C122.71 53.9195 122.656 53.9266 122.603 53.9332C122.444 53.9522 122.314 53.9815 122.213 54.0213C122.114 54.0601 122.041 54.1113 121.995 54.1747C121.949 54.2382 121.927 54.3149 121.927 54.4048C121.927 54.5535 121.978 54.6709 122.08 54.7571C122.182 54.8433 122.31 54.8864 122.462 54.8864ZM124.071 55V52.8182H125.657V55H125.485V52.983H124.243V55H124.071ZM126.386 55.8182V52.8182H126.555V53.3054H126.577C126.611 53.2116 126.659 53.1255 126.72 53.0469C126.783 52.9683 126.86 52.9053 126.952 52.858C127.045 52.8097 127.153 52.7855 127.278 52.7855C127.455 52.7855 127.608 52.8338 127.739 52.9304C127.869 53.027 127.971 53.1605 128.043 53.331C128.115 53.5005 128.151 53.6951 128.151 53.9148C128.151 54.1345 128.114 54.3295 128.041 54.5C127.969 54.6695 127.868 54.803 127.737 54.9006C127.608 54.9972 127.456 55.0455 127.281 55.0455C127.157 55.0455 127.048 55.0218 126.955 54.9744C126.862 54.9271 126.784 54.8641 126.72 54.7855C126.658 54.706 126.61 54.6188 126.577 54.5241H126.56V55.8182H126.386ZM126.557 53.9134C126.557 54.099 126.585 54.2652 126.642 54.4119C126.699 54.5578 126.78 54.6733 126.886 54.7585C126.992 54.8428 127.119 54.8849 127.266 54.8849C127.414 54.8849 127.542 54.8423 127.648 54.7571C127.755 54.6709 127.836 54.5545 127.892 54.4077C127.949 54.2609 127.977 54.0961 127.977 53.9134C127.977 53.7306 127.949 53.5663 127.894 53.4205C127.838 53.2746 127.757 53.1596 127.651 53.0753C127.545 52.9901 127.416 52.9474 127.266 52.9474C127.117 52.9474 126.99 52.9896 126.884 53.0739C126.778 53.1572 126.697 53.2718 126.641 53.4176C126.585 53.5625 126.557 53.7277 126.557 53.9134ZM130.062 55V52.9787L129.441 52.9815C129.259 52.9815 129.124 53.0156 129.037 53.0838C128.95 53.152 128.907 53.2618 128.907 53.4134C128.907 53.563 128.95 53.6719 129.035 53.7401C129.12 53.8082 129.252 53.8423 129.429 53.8423H130.122V54.0071H129.429C129.274 54.0071 129.146 53.9853 129.042 53.9418C128.94 53.8973 128.863 53.831 128.812 53.7429C128.761 53.6548 128.735 53.545 128.735 53.4134C128.735 53.2808 128.762 53.1705 128.814 53.0824C128.866 52.9943 128.944 52.9285 129.048 52.8849C129.153 52.8404 129.284 52.8182 129.441 52.8182H130.23V55H130.062ZM128.578 55L129.214 53.9148H129.406L128.77 55H128.578ZM130.82 55L131.863 53.9034L130.836 52.8182H131.053L132.001 53.8253H132.113V52.8182H132.285V53.8253H132.394L133.342 52.8182H133.559L132.535 53.9034L133.575 55H133.353L132.393 53.9901H132.285V55H132.113V53.9901H132.005L131.042 55H130.82ZM134.917 55.0455C134.72 55.0455 134.549 54.9967 134.403 54.8991C134.257 54.8016 134.144 54.6681 134.065 54.4986C133.985 54.3291 133.945 54.1359 133.945 53.919C133.945 53.7012 133.985 53.5071 134.065 53.3366C134.145 53.1662 134.255 53.0317 134.396 52.9332C134.536 52.8348 134.696 52.7855 134.876 52.7855C134.998 52.7855 135.113 52.8101 135.222 52.8594C135.332 52.9077 135.429 52.9777 135.512 53.0696C135.596 53.1615 135.662 53.2723 135.71 53.402C135.758 53.5317 135.782 53.6776 135.782 53.8395V53.9474H134.055V53.7898H135.609C135.609 53.6316 135.577 53.4891 135.512 53.3622C135.448 53.2353 135.36 53.1345 135.249 53.0597C135.139 52.9848 135.014 52.9474 134.876 52.9474C134.731 52.9474 134.602 52.9882 134.488 53.0696C134.375 53.1501 134.286 53.259 134.219 53.3963C134.154 53.5336 134.12 53.687 134.117 53.8565V53.9276C134.117 54.1094 134.149 54.2727 134.212 54.4176C134.277 54.5616 134.369 54.6757 134.488 54.7599C134.607 54.8433 134.75 54.8849 134.917 54.8849C135.036 54.8849 135.138 54.8651 135.222 54.8253C135.308 54.7846 135.377 54.7353 135.431 54.6776C135.485 54.6198 135.526 54.5639 135.553 54.5099L135.711 54.5739C135.678 54.6468 135.626 54.7197 135.556 54.7926C135.487 54.8646 135.399 54.9247 135.292 54.973C135.186 55.0213 135.061 55.0455 134.917 55.0455ZM137.866 53.8281V53.9929H136.504V53.8281H137.866ZM136.552 52.8182V55H136.379V52.8182H136.552ZM137.984 52.8182V55H137.81V52.8182H137.984ZM138.884 54.7741L140.135 52.8182H140.356V55H140.182V53.044L138.932 55H138.711V52.8182H138.884V54.7741ZM142.386 55V52.9787L141.766 52.9815C141.583 52.9815 141.448 53.0156 141.361 53.0838C141.275 53.152 141.232 53.2618 141.232 53.4134C141.232 53.563 141.274 53.6719 141.359 53.7401C141.445 53.8082 141.576 53.8423 141.753 53.8423H142.446V54.0071H141.753C141.599 54.0071 141.47 53.9853 141.367 53.9418C141.264 53.8973 141.188 53.831 141.136 53.7429C141.085 53.6548 141.06 53.545 141.06 53.4134C141.06 53.2808 141.086 53.1705 141.138 53.0824C141.19 52.9943 141.268 52.9285 141.372 52.8849C141.477 52.8404 141.608 52.8182 141.766 52.8182H142.554V55H142.386ZM140.902 55L141.538 53.9148H141.73L141.094 55H140.902ZM144.467 55V52.0909H145.412C145.588 52.0909 145.736 52.1222 145.858 52.1847C145.979 52.2472 146.071 52.3348 146.133 52.4474C146.197 52.5601 146.228 52.6913 146.228 52.8409C146.228 52.9583 146.209 53.0625 146.172 53.1534C146.134 53.2443 146.081 53.3196 146.012 53.3793C145.945 53.438 145.866 53.4787 145.775 53.5014V53.5185C145.876 53.526 145.969 53.5611 146.055 53.6236C146.141 53.6851 146.21 53.7689 146.262 53.875C146.315 53.9811 146.342 54.1046 146.342 54.2457C146.342 54.3944 146.31 54.5256 146.245 54.6392C146.182 54.7519 146.087 54.8404 145.96 54.9048C145.833 54.9683 145.676 55 145.488 55H144.467ZM144.645 54.8352H145.488C145.707 54.8352 145.875 54.7803 145.993 54.6705C146.111 54.5606 146.17 54.419 146.17 54.2457C146.17 54.1236 146.141 54.0142 146.083 53.9176C146.027 53.821 145.948 53.7448 145.846 53.6889C145.745 53.6321 145.628 53.6037 145.494 53.6037H144.645V54.8352ZM144.645 53.4418H145.473C145.597 53.4418 145.702 53.4148 145.788 53.3608C145.875 53.3068 145.941 53.2344 145.987 53.1435C146.033 53.0526 146.056 52.9517 146.056 52.8409C146.056 52.661 146.001 52.5185 145.889 52.4134C145.777 52.3082 145.618 52.2557 145.412 52.2557H144.645V53.4418ZM147.041 55V52.0909H147.986C148.162 52.0909 148.311 52.1222 148.432 52.1847C148.553 52.2472 148.645 52.3348 148.707 52.4474C148.771 52.5601 148.803 52.6913 148.803 52.8409C148.803 52.9583 148.784 53.0625 148.746 53.1534C148.708 53.2443 148.655 53.3196 148.587 53.3793C148.519 53.438 148.44 53.4787 148.349 53.5014V53.5185C148.45 53.526 148.543 53.5611 148.629 53.6236C148.715 53.6851 148.785 53.7689 148.837 53.875C148.89 53.9811 148.916 54.1046 148.916 54.2457C148.916 54.3944 148.884 54.5256 148.82 54.6392C148.756 54.7519 148.661 54.8404 148.534 54.9048C148.407 54.9683 148.25 55 148.063 55H147.041ZM147.219 54.8352H148.063C148.281 54.8352 148.449 54.7803 148.567 54.6705C148.685 54.5606 148.744 54.419 148.744 54.2457C148.744 54.1236 148.715 54.0142 148.658 53.9176C148.601 53.821 148.522 53.7448 148.42 53.6889C148.319 53.6321 148.202 53.6037 148.068 53.6037H147.219V54.8352ZM147.219 53.4418H148.047C148.171 53.4418 148.276 53.4148 148.362 53.3608C148.449 53.3068 148.516 53.2344 148.561 53.1435C148.608 53.0526 148.631 52.9517 148.631 52.8409C148.631 52.661 148.575 52.5185 148.463 52.4134C148.351 52.3082 148.192 52.2557 147.986 52.2557H147.219V53.4418ZM151.929 53.5455C151.929 53.8456 151.877 54.108 151.773 54.3324C151.669 54.5559 151.524 54.7296 151.338 54.8537C151.154 54.9777 150.941 55.0398 150.699 55.0398C150.457 55.0398 150.243 54.9777 150.057 54.8537C149.873 54.7287 149.728 54.5545 149.624 54.331C149.52 54.1065 149.468 53.8447 149.468 53.5455C149.468 53.2453 149.52 52.9834 149.624 52.7599C149.729 52.5365 149.874 52.3627 150.059 52.2386C150.243 52.1136 150.457 52.0511 150.699 52.0511C150.941 52.0511 151.154 52.1132 151.338 52.2372C151.524 52.3613 151.669 52.5355 151.773 52.7599C151.877 52.9834 151.929 53.2453 151.929 53.5455ZM151.756 53.5455C151.756 53.2756 151.711 53.0417 151.62 52.8438C151.53 52.6458 151.405 52.4929 151.246 52.3849C151.087 52.276 150.905 52.2216 150.699 52.2216C150.494 52.2216 150.311 52.2756 150.152 52.3835C149.993 52.4905 149.868 52.6435 149.777 52.8423C149.687 53.0402 149.642 53.2746 149.642 53.5455C149.642 53.8134 149.687 54.0469 149.776 54.2457C149.866 54.4437 149.99 54.5971 150.15 54.706C150.309 54.8149 150.492 54.8693 150.699 54.8693C150.905 54.8693 151.087 54.8153 151.246 54.7074C151.405 54.5985 151.53 54.4451 151.62 54.2472C151.711 54.0492 151.756 53.8153 151.756 53.5455ZM152.324 55.7088V54.8352H152.505C152.576 54.7528 152.64 54.651 152.696 54.5298C152.752 54.4077 152.798 54.2543 152.833 54.0696C152.87 53.8849 152.895 53.6586 152.906 53.3906L152.958 52.0909H154.559V54.8352H154.906V55.6989H154.733V55H152.497V55.7088H152.324ZM152.721 54.8352H154.386V52.2557H153.123L153.078 53.3906C153.068 53.6217 153.049 53.8258 153.021 54.0028C152.993 54.179 152.953 54.3348 152.903 54.4702C152.854 54.6046 152.793 54.7263 152.721 54.8352ZM156.565 55V54.8651L157.507 53.7798C157.641 53.6245 157.748 53.4929 157.826 53.3849C157.905 53.277 157.961 53.1795 157.995 53.0923C158.03 53.0052 158.047 52.9143 158.047 52.8196C158.047 52.7012 158.019 52.5966 157.963 52.5057C157.908 52.4138 157.833 52.3423 157.737 52.2912C157.642 52.2401 157.534 52.2145 157.413 52.2145C157.286 52.2145 157.175 52.2424 157.079 52.2983C156.984 52.3542 156.909 52.4299 156.855 52.5256C156.802 52.6212 156.775 52.7287 156.775 52.848H156.603C156.603 52.6974 156.638 52.562 156.708 52.4418C156.779 52.3215 156.875 52.2263 156.997 52.1562C157.12 52.0862 157.26 52.0511 157.417 52.0511C157.572 52.0511 157.709 52.0848 157.829 52.152C157.949 52.2192 158.044 52.3111 158.113 52.4276C158.182 52.5431 158.217 52.6738 158.217 52.8196C158.217 52.9266 158.199 53.0298 158.162 53.1293C158.126 53.2277 158.064 53.3381 157.976 53.4602C157.887 53.5814 157.766 53.7311 157.61 53.9091L156.821 54.8196V54.8352H158.348V55H156.565Z" fill="#1D3A6D"/>
<rect x="53.0233" y="60.2875" width="16.3556" height="6.16752" rx="0.9" stroke="#1D3A6D" stroke-width="0.2"/>
<path d="M56.017 62.6477H56.348C56.5544 62.6477 56.7372 62.6955 56.8963 62.7912C57.0553 62.8859 57.1799 63.0185 57.2698 63.1889C57.3607 63.3584 57.4057 63.5563 57.4048 63.7827C57.4048 64.008 57.3603 64.206 57.2713 64.3764C57.1822 64.5459 57.0591 64.678 56.9019 64.7727C56.7447 64.8674 56.5629 64.9148 56.3565 64.9148H56.0184C55.811 64.9148 55.6273 64.8674 55.4673 64.7727C55.3082 64.6771 55.1837 64.544 55.0937 64.3736C55.0037 64.2031 54.9592 64.0047 54.9602 63.7784C54.9611 63.554 55.0061 63.357 55.0951 63.1875C55.1851 63.018 55.3091 62.8859 55.4673 62.7912C55.6264 62.6955 55.8096 62.6477 56.017 62.6477ZM56.0213 62.8125C55.8309 62.8125 55.6699 62.8556 55.5383 62.9418C55.4067 63.027 55.3068 63.143 55.2386 63.2898C55.1713 63.4366 55.1377 63.6032 55.1377 63.7898C55.1387 63.9725 55.1728 64.1364 55.24 64.2812C55.3082 64.4261 55.4076 64.5407 55.5383 64.625C55.669 64.7083 55.829 64.75 56.0184 64.75H56.3522C56.5407 64.75 56.6998 64.7083 56.8295 64.625C56.9602 64.5407 57.0591 64.4257 57.1264 64.2798C57.1945 64.134 57.2282 63.9683 57.2272 63.7827C57.2263 63.5971 57.1922 63.4313 57.1249 63.2855C57.0577 63.1397 56.9588 63.0246 56.8281 62.9403C56.6974 62.8551 56.5364 62.8125 56.3451 62.8125H56.0213ZM56.2741 62.2273V65.3068H56.0965V62.2273H56.2741ZM58.6132 65.2344C58.4873 65.2344 58.3717 65.2093 58.2666 65.1591C58.1625 65.1089 58.0787 65.0355 58.0152 64.9389C57.9527 64.8423 57.9215 64.7249 57.9215 64.5866C57.9215 64.4957 57.9376 64.4157 57.9698 64.3466C58.002 64.2775 58.0517 64.2178 58.1189 64.1676C58.1861 64.1174 58.2723 64.0762 58.3774 64.044C58.4825 64.0109 58.608 63.9853 58.7539 63.9673C58.8646 63.9541 58.9636 63.9413 59.0507 63.929C59.1378 63.9157 59.206 63.8954 59.2553 63.8679C59.3055 63.8404 59.3306 63.7988 59.3306 63.7429V63.652C59.3306 63.4929 59.2804 63.3665 59.18 63.2727C59.0796 63.179 58.9414 63.1321 58.7652 63.1321C58.609 63.1321 58.4773 63.1667 58.3703 63.2358C58.2643 63.304 58.1899 63.392 58.1473 63.5L57.984 63.4389C58.0256 63.3348 58.0858 63.2481 58.1644 63.179C58.2439 63.1098 58.3348 63.0582 58.4371 63.0241C58.5403 62.9901 58.6483 62.973 58.761 62.973C58.8585 62.973 58.9513 62.9867 59.0394 63.0142C59.1284 63.0417 59.2075 63.0833 59.2766 63.1392C59.3467 63.1951 59.4021 63.2666 59.4428 63.3537C59.4835 63.4399 59.5039 63.5431 59.5039 63.6634V65.1875H59.3306V64.794H59.3178C59.2799 64.8755 59.2278 64.9498 59.1615 65.017C59.0962 65.0833 59.0171 65.1364 58.9243 65.1761C58.8325 65.215 58.7288 65.2344 58.6132 65.2344ZM58.6303 65.0739C58.7666 65.0739 58.8874 65.0407 58.9925 64.9744C59.0985 64.9072 59.1814 64.8153 59.2411 64.6989C59.3007 64.5824 59.3306 64.4503 59.3306 64.3026V63.9815C59.3088 64.0005 59.2771 64.0175 59.2354 64.0327C59.1947 64.0469 59.1483 64.0597 59.0962 64.071C59.045 64.0814 58.9911 64.0909 58.9342 64.0994C58.8784 64.107 58.8239 64.1141 58.7709 64.1207C58.6118 64.1397 58.4821 64.169 58.3817 64.2088C58.2823 64.2476 58.2093 64.2988 58.1629 64.3622C58.1175 64.4257 58.0948 64.5024 58.0948 64.5923C58.0948 64.741 58.1459 64.8584 58.2482 64.9446C58.3504 65.0308 58.4778 65.0739 58.6303 65.0739ZM60.0869 64.6307H60.2673C60.2749 64.7642 60.3303 64.8712 60.4335 64.9517C60.5377 65.0322 60.6755 65.0724 60.8469 65.0724C61.0249 65.0724 61.1684 65.0294 61.2773 64.9432C61.3862 64.857 61.4406 64.7401 61.4406 64.5923C61.4406 64.5024 61.4208 64.4238 61.381 64.3565C61.3412 64.2884 61.2882 64.2353 61.2219 64.1974C61.1556 64.1596 61.0827 64.1392 61.0031 64.1364H60.6168V63.9759H60.996C61.122 63.9607 61.22 63.9205 61.2901 63.8551C61.3601 63.7888 61.3952 63.6989 61.3952 63.5852C61.3952 63.4489 61.3478 63.34 61.2531 63.2585C61.1584 63.1771 61.033 63.1364 60.8767 63.1364C60.7176 63.1364 60.586 63.1776 60.4818 63.2599C60.3786 63.3423 60.3232 63.4489 60.3156 63.5795H60.1381C60.1428 63.4602 60.1774 63.3556 60.2418 63.2656C60.3071 63.1747 60.3938 63.1042 60.5017 63.054C60.6106 63.0028 60.7337 62.9773 60.871 62.9773C61.0121 62.9773 61.1348 63.0038 61.2389 63.0568C61.3441 63.1089 61.4255 63.1804 61.4833 63.2713C61.541 63.3622 61.5699 63.4654 61.5699 63.581C61.5699 63.6984 61.5382 63.7964 61.4747 63.875C61.4122 63.9536 61.3308 64.0085 61.2304 64.0398V64.0611C61.3033 64.0724 61.3687 64.1027 61.4264 64.152C61.4851 64.2012 61.5311 64.2642 61.5642 64.3409C61.5983 64.4167 61.6154 64.5005 61.6154 64.5923C61.6154 64.7173 61.5832 64.8281 61.5188 64.9247C61.4553 65.0213 61.3663 65.0971 61.2517 65.152C61.1371 65.206 61.0027 65.233 60.8483 65.233C60.7015 65.233 60.5713 65.2079 60.4577 65.1577C60.345 65.1075 60.256 65.0374 60.1906 64.9474C60.1262 64.8565 60.0917 64.7509 60.0869 64.6307ZM62.7578 65.2344C62.6318 65.2344 62.5163 65.2093 62.4112 65.1591C62.307 65.1089 62.2232 65.0355 62.1597 64.9389C62.0972 64.8423 62.066 64.7249 62.066 64.5866C62.066 64.4957 62.0821 64.4157 62.1143 64.3466C62.1465 64.2775 62.1962 64.2178 62.2634 64.1676C62.3307 64.1174 62.4168 64.0762 62.522 64.044C62.6271 64.0109 62.7525 63.9853 62.8984 63.9673C63.0092 63.9541 63.1081 63.9413 63.1953 63.929C63.2824 63.9157 63.3506 63.8954 63.3998 63.8679C63.45 63.8404 63.4751 63.7988 63.4751 63.7429V63.652C63.4751 63.4929 63.4249 63.3665 63.3245 63.2727C63.2241 63.179 63.0859 63.1321 62.9097 63.1321C62.7535 63.1321 62.6219 63.1667 62.5149 63.2358C62.4088 63.304 62.3345 63.392 62.2918 63.5L62.1285 63.4389C62.1702 63.3348 62.2303 63.2481 62.3089 63.179C62.3884 63.1098 62.4793 63.0582 62.5816 63.0241C62.6848 62.9901 62.7928 62.973 62.9055 62.973C63.003 62.973 63.0958 62.9867 63.1839 63.0142C63.2729 63.0417 63.352 63.0833 63.4211 63.1392C63.4912 63.1951 63.5466 63.2666 63.5873 63.3537C63.628 63.4399 63.6484 63.5431 63.6484 63.6634V65.1875H63.4751V64.794H63.4623C63.4244 64.8755 63.3723 64.9498 63.3061 65.017C63.2407 65.0833 63.1616 65.1364 63.0688 65.1761C62.977 65.215 62.8733 65.2344 62.7578 65.2344ZM62.7748 65.0739C62.9112 65.0739 63.0319 65.0407 63.137 64.9744C63.2431 64.9072 63.3259 64.8153 63.3856 64.6989C63.4453 64.5824 63.4751 64.4503 63.4751 64.3026V63.9815C63.4533 64.0005 63.4216 64.0175 63.3799 64.0327C63.3392 64.0469 63.2928 64.0597 63.2407 64.071C63.1896 64.0814 63.1356 64.0909 63.0788 64.0994C63.0229 64.107 62.9685 64.1141 62.9154 64.1207C62.7563 64.1397 62.6266 64.169 62.5262 64.2088C62.4268 64.2476 62.3539 64.2988 62.3075 64.3622C62.262 64.4257 62.2393 64.5024 62.2393 64.5923C62.2393 64.741 62.2904 64.8584 62.3927 64.9446C62.495 65.0308 62.6223 65.0739 62.7748 65.0739ZM65.561 65.1875V62.2784H66.5056C66.6818 62.2784 66.8304 62.3097 66.9517 62.3722C67.0729 62.4347 67.1647 62.5223 67.2272 62.6349C67.2907 62.7476 67.3224 62.8788 67.3224 63.0284C67.3224 63.1458 67.3034 63.25 67.2656 63.3409C67.2277 63.4318 67.1747 63.5071 67.1065 63.5668C67.0392 63.6255 66.9602 63.6662 66.8693 63.6889V63.706C66.9696 63.7135 67.0629 63.7486 67.1491 63.8111C67.2353 63.8726 67.3044 63.9564 67.3565 64.0625C67.4095 64.1686 67.436 64.2921 67.436 64.4332C67.436 64.5819 67.4038 64.7131 67.3394 64.8267C67.276 64.9394 67.1808 65.0279 67.0539 65.0923C66.927 65.1558 66.7698 65.1875 66.5823 65.1875H65.561ZM65.7386 65.0227H66.5823C66.8011 65.0227 66.9692 64.9678 67.0866 64.858C67.205 64.7481 67.2642 64.6065 67.2642 64.4332C67.2642 64.3111 67.2353 64.2017 67.1775 64.1051C67.1207 64.0085 67.0416 63.9323 66.9403 63.8764C66.839 63.8196 66.7215 63.7912 66.588 63.7912H65.7386V65.0227ZM65.7386 63.6293H66.5667C66.6908 63.6293 66.7959 63.6023 66.882 63.5483C66.9692 63.4943 67.0355 63.4219 67.0809 63.331C67.1273 63.2401 67.1505 63.1392 67.1505 63.0284C67.1505 62.8485 67.0946 62.706 66.9829 62.6009C66.8712 62.4957 66.7121 62.4432 66.5056 62.4432H65.7386V63.6293Z" fill="#1D3A6D"/>
<rect x="75.9462" y="60.2875" width="16.3556" height="6.16752" rx="0.9" stroke="#1D3A6D" stroke-width="0.2"/>
<path d="M78.7777 62.6477H79.1087C79.3151 62.6477 79.4979 62.6955 79.657 62.7912C79.8161 62.8859 79.9406 63.0185 80.0306 63.1889C80.1215 63.3584 80.1665 63.5563 80.1655 63.7827C80.1655 64.008 80.121 64.206 80.032 64.3764C79.943 64.5459 79.8199 64.678 79.6627 64.7727C79.5055 64.8674 79.3237 64.9148 79.1172 64.9148H78.7792C78.5718 64.9148 78.3881 64.8674 78.228 64.7727C78.0689 64.6771 77.9444 64.544 77.8544 64.3736C77.7645 64.2031 77.72 64.0047 77.7209 63.7784C77.7219 63.554 77.7668 63.357 77.8559 63.1875C77.9458 63.018 78.0699 62.8859 78.228 62.7912C78.3871 62.6955 78.5703 62.6477 78.7777 62.6477ZM78.782 62.8125C78.5917 62.8125 78.4307 62.8556 78.299 62.9418C78.1674 63.027 78.0675 63.143 77.9993 63.2898C77.9321 63.4366 77.8985 63.6032 77.8985 63.7898C77.8994 63.9725 77.9335 64.1364 78.0007 64.2812C78.0689 64.4261 78.1684 64.5407 78.299 64.625C78.4297 64.7083 78.5898 64.75 78.7792 64.75H79.113C79.3014 64.75 79.4605 64.7083 79.5902 64.625C79.7209 64.5407 79.8199 64.4257 79.8871 64.2798C79.9553 64.134 79.9889 63.9683 79.988 63.7827C79.987 63.5971 79.9529 63.4313 79.8857 63.2855C79.8185 63.1397 79.7195 63.0246 79.5888 62.9403C79.4581 62.8551 79.2971 62.8125 79.1059 62.8125H78.782ZM79.0348 62.2273V65.3068H78.8573V62.2273H79.0348ZM81.374 65.2344C81.248 65.2344 81.1325 65.2093 81.0274 65.1591C80.9232 65.1089 80.8394 65.0355 80.776 64.9389C80.7135 64.8423 80.6822 64.7249 80.6822 64.5866C80.6822 64.4957 80.6983 64.4157 80.7305 64.3466C80.7627 64.2775 80.8124 64.2178 80.8797 64.1676C80.9469 64.1174 81.0331 64.0762 81.1382 64.044C81.2433 64.0109 81.3688 63.9853 81.5146 63.9673C81.6254 63.9541 81.7243 63.9413 81.8115 63.929C81.8986 63.9157 81.9668 63.8954 82.016 63.8679C82.0662 63.8404 82.0913 63.7988 82.0913 63.7429V63.652C82.0913 63.4929 82.0411 63.3665 81.9407 63.2727C81.8404 63.179 81.7021 63.1321 81.526 63.1321C81.3697 63.1321 81.2381 63.1667 81.1311 63.2358C81.025 63.304 80.9507 63.392 80.9081 63.5L80.7447 63.4389C80.7864 63.3348 80.8465 63.2481 80.9251 63.179C81.0047 63.1098 81.0956 63.0582 81.1978 63.0241C81.3011 62.9901 81.409 62.973 81.5217 62.973C81.6192 62.973 81.712 62.9867 81.8001 63.0142C81.8891 63.0417 81.9682 63.0833 82.0373 63.1392C82.1074 63.1951 82.1628 63.2666 82.2035 63.3537C82.2442 63.4399 82.2646 63.5431 82.2646 63.6634V65.1875H82.0913V64.794H82.0785C82.0406 64.8755 81.9886 64.9498 81.9223 65.017C81.8569 65.0833 81.7779 65.1364 81.685 65.1761C81.5932 65.215 81.4895 65.2344 81.374 65.2344ZM81.391 65.0739C81.5274 65.0739 81.6481 65.0407 81.7532 64.9744C81.8593 64.9072 81.9422 64.8153 82.0018 64.6989C82.0615 64.5824 82.0913 64.4503 82.0913 64.3026V63.9815C82.0695 64.0005 82.0378 64.0175 81.9961 64.0327C81.9554 64.0469 81.909 64.0597 81.8569 64.071C81.8058 64.0814 81.7518 64.0909 81.695 64.0994C81.6391 64.107 81.5847 64.1141 81.5316 64.1207C81.3725 64.1397 81.2428 64.169 81.1424 64.2088C81.043 64.2476 80.9701 64.2988 80.9237 64.3622C80.8782 64.4257 80.8555 64.5024 80.8555 64.5923C80.8555 64.741 80.9066 64.8584 81.0089 64.9446C81.1112 65.0308 81.2386 65.0739 81.391 65.0739ZM82.8477 64.6307H83.0281C83.0357 64.7642 83.0911 64.8712 83.1943 64.9517C83.2984 65.0322 83.4362 65.0724 83.6076 65.0724C83.7857 65.0724 83.9291 65.0294 84.038 64.9432C84.1469 64.857 84.2014 64.7401 84.2014 64.5923C84.2014 64.5024 84.1815 64.4238 84.1417 64.3565C84.102 64.2884 84.0489 64.2353 83.9826 64.1974C83.9163 64.1596 83.8434 64.1392 83.7639 64.1364H83.3775V63.9759H83.7568C83.8827 63.9607 83.9807 63.9205 84.0508 63.8551C84.1209 63.7888 84.1559 63.6989 84.1559 63.5852C84.1559 63.4489 84.1086 63.34 84.0139 63.2585C83.9192 63.1771 83.7937 63.1364 83.6375 63.1364C83.4784 63.1364 83.3467 63.1776 83.2426 63.2599C83.1394 63.3423 83.084 63.4489 83.0764 63.5795H82.8988C82.9036 63.4602 82.9381 63.3556 83.0025 63.2656C83.0679 63.1747 83.1545 63.1042 83.2625 63.054C83.3714 63.0028 83.4945 62.9773 83.6318 62.9773C83.7729 62.9773 83.8955 63.0038 83.9997 63.0568C84.1048 63.1089 84.1862 63.1804 84.244 63.2713C84.3018 63.3622 84.3306 63.4654 84.3306 63.581C84.3306 63.6984 84.2989 63.7964 84.2355 63.875C84.173 63.9536 84.0915 64.0085 83.9912 64.0398V64.0611C84.0641 64.0724 84.1294 64.1027 84.1872 64.152C84.2459 64.2012 84.2918 64.2642 84.325 64.3409C84.3591 64.4167 84.3761 64.5005 84.3761 64.5923C84.3761 64.7173 84.3439 64.8281 84.2795 64.9247C84.2161 65.0213 84.127 65.0971 84.0125 65.152C83.8979 65.206 83.7634 65.233 83.6091 65.233C83.4623 65.233 83.3321 65.2079 83.2184 65.1577C83.1057 65.1075 83.0167 65.0374 82.9514 64.9474C82.887 64.8565 82.8524 64.7509 82.8477 64.6307ZM85.5185 65.2344C85.3926 65.2344 85.277 65.2093 85.1719 65.1591C85.0677 65.1089 84.9839 65.0355 84.9205 64.9389C84.858 64.8423 84.8267 64.7249 84.8267 64.5866C84.8267 64.4957 84.8428 64.4157 84.875 64.3466C84.9072 64.2775 84.9569 64.2178 85.0242 64.1676C85.0914 64.1174 85.1776 64.0762 85.2827 64.044C85.3878 64.0109 85.5133 63.9853 85.6591 63.9673C85.7699 63.9541 85.8689 63.9413 85.956 63.929C86.0431 63.9157 86.1113 63.8954 86.1605 63.8679C86.2107 63.8404 86.2358 63.7988 86.2358 63.7429V63.652C86.2358 63.4929 86.1856 63.3665 86.0853 63.2727C85.9849 63.179 85.8466 63.1321 85.6705 63.1321C85.5142 63.1321 85.3826 63.1667 85.2756 63.2358C85.1695 63.304 85.0952 63.392 85.0526 63.5L84.8892 63.4389C84.9309 63.3348 84.991 63.2481 85.0696 63.179C85.1492 63.1098 85.2401 63.0582 85.3424 63.0241C85.4456 62.9901 85.5535 62.973 85.6662 62.973C85.7638 62.973 85.8566 62.9867 85.9446 63.0142C86.0337 63.0417 86.1127 63.0833 86.1819 63.1392C86.2519 63.1951 86.3073 63.2666 86.348 63.3537C86.3888 63.4399 86.4091 63.5431 86.4091 63.6634V65.1875H86.2358V64.794H86.223C86.1852 64.8755 86.1331 64.9498 86.0668 65.017C86.0015 65.0833 85.9224 65.1364 85.8296 65.1761C85.7377 65.215 85.634 65.2344 85.5185 65.2344ZM85.5355 65.0739C85.6719 65.0739 85.7926 65.0407 85.8978 64.9744C86.0038 64.9072 86.0867 64.8153 86.1463 64.6989C86.206 64.5824 86.2358 64.4503 86.2358 64.3026V63.9815C86.214 64.0005 86.1823 64.0175 86.1407 64.0327C86.0999 64.0469 86.0535 64.0597 86.0015 64.071C85.9503 64.0814 85.8963 64.0909 85.8395 64.0994C85.7837 64.107 85.7292 64.1141 85.6762 64.1207C85.5171 64.1397 85.3873 64.169 85.287 64.2088C85.1875 64.2476 85.1146 64.2988 85.0682 64.3622C85.0228 64.4257 85 64.5024 85 64.5923C85 64.741 85.0512 64.8584 85.1534 64.9446C85.2557 65.0308 85.3831 65.0739 85.5355 65.0739ZM90.5377 63.1875H90.3559C90.3369 63.089 90.3014 62.9938 90.2493 62.902C90.1972 62.8092 90.13 62.7259 90.0476 62.652C89.9662 62.5772 89.8715 62.518 89.7635 62.4744C89.6556 62.4309 89.5363 62.4091 89.4056 62.4091C89.2143 62.4091 89.0382 62.4602 88.8772 62.5625C88.7171 62.6638 88.5888 62.813 88.4922 63.0099C88.3966 63.2069 88.3488 63.4479 88.3488 63.733C88.3488 64.0199 88.3966 64.2618 88.4922 64.4588C88.5888 64.6558 88.7171 64.8049 88.8772 64.9062C89.0382 65.0066 89.2143 65.0568 89.4056 65.0568C89.5363 65.0568 89.6556 65.0355 89.7635 64.9929C89.8715 64.9493 89.9662 64.8906 90.0476 64.8168C90.13 64.742 90.1972 64.6581 90.2493 64.5653C90.3014 64.4725 90.3369 64.3769 90.3559 64.2784H90.5377C90.5168 64.3958 90.4766 64.5109 90.4169 64.6236C90.3582 64.7363 90.2806 64.8385 90.184 64.9304C90.0883 65.0213 89.9752 65.0937 89.8445 65.1477C89.7148 65.2008 89.5685 65.2273 89.4056 65.2273C89.1631 65.2273 88.9496 65.1657 88.7649 65.0426C88.5803 64.9186 88.4354 64.7443 88.3303 64.5199C88.2261 64.2955 88.174 64.0331 88.174 63.733C88.174 63.4328 88.2261 63.1705 88.3303 62.946C88.4354 62.7216 88.5803 62.5478 88.7649 62.4247C88.9496 62.3007 89.1631 62.2386 89.4056 62.2386C89.5685 62.2386 89.7148 62.2656 89.8445 62.3196C89.9752 62.3726 90.0883 62.4446 90.184 62.5355C90.2806 62.6255 90.3582 62.7268 90.4169 62.8395C90.4766 62.9522 90.5168 63.0682 90.5377 63.1875Z" fill="#1D3A6D"/>
<rect x="98.8695" y="60.2875" width="16.3556" height="6.16752" rx="0.9" stroke="#1D3A6D" stroke-width="0.2"/>
<path d="M101.877 62.6477H102.208C102.414 62.6477 102.597 62.6955 102.756 62.7912C102.915 62.8859 103.04 63.0185 103.13 63.1889C103.221 63.3584 103.266 63.5563 103.265 63.7827C103.265 64.008 103.22 64.206 103.131 64.3764C103.042 64.5459 102.919 64.678 102.762 64.7727C102.605 64.8674 102.423 64.9148 102.216 64.9148H101.878C101.671 64.9148 101.487 64.8674 101.327 64.7727C101.168 64.6771 101.044 64.544 100.954 64.3736C100.864 64.2031 100.819 64.0047 100.82 63.7784C100.821 63.554 100.866 63.357 100.955 63.1875C101.045 63.018 101.169 62.8859 101.327 62.7912C101.486 62.6955 101.669 62.6477 101.877 62.6477ZM101.881 62.8125C101.691 62.8125 101.53 62.8556 101.398 62.9418C101.267 63.027 101.167 63.143 101.098 63.2898C101.031 63.4366 100.998 63.6032 100.998 63.7898C100.999 63.9725 101.033 64.1364 101.1 64.2812C101.168 64.4261 101.267 64.5407 101.398 64.625C101.529 64.7083 101.689 64.75 101.878 64.75H102.212C102.401 64.75 102.56 64.7083 102.689 64.625C102.82 64.5407 102.919 64.4257 102.986 64.2798C103.054 64.134 103.088 63.9683 103.087 63.7827C103.086 63.5971 103.052 63.4313 102.985 63.2855C102.918 63.1397 102.819 63.0246 102.688 62.9403C102.557 62.8551 102.396 62.8125 102.205 62.8125H101.881ZM102.134 62.2273V65.3068H101.956V62.2273H102.134ZM104.473 65.2344C104.347 65.2344 104.232 65.2093 104.126 65.1591C104.022 65.1089 103.939 65.0355 103.875 64.9389C103.813 64.8423 103.781 64.7249 103.781 64.5866C103.781 64.4957 103.797 64.4157 103.83 64.3466C103.862 64.2775 103.912 64.2178 103.979 64.1676C104.046 64.1174 104.132 64.0762 104.237 64.044C104.342 64.0109 104.468 63.9853 104.614 63.9673C104.725 63.9541 104.823 63.9413 104.911 63.929C104.998 63.9157 105.066 63.8954 105.115 63.8679C105.165 63.8404 105.19 63.7988 105.19 63.7429V63.652C105.19 63.4929 105.14 63.3665 105.04 63.2727C104.939 63.179 104.801 63.1321 104.625 63.1321C104.469 63.1321 104.337 63.1667 104.23 63.2358C104.124 63.304 104.05 63.392 104.007 63.5L103.844 63.4389C103.885 63.3348 103.946 63.2481 104.024 63.179C104.104 63.1098 104.195 63.0582 104.297 63.0241C104.4 62.9901 104.508 62.973 104.621 62.973C104.718 62.973 104.811 62.9867 104.899 63.0142C104.988 63.0417 105.067 63.0833 105.136 63.1392C105.207 63.1951 105.262 63.2666 105.303 63.3537C105.343 63.4399 105.364 63.5431 105.364 63.6634V65.1875H105.19V64.794H105.178C105.14 64.8755 105.088 64.9498 105.021 65.017C104.956 65.0833 104.877 65.1364 104.784 65.1761C104.692 65.215 104.589 65.2344 104.473 65.2344ZM104.49 65.0739C104.626 65.0739 104.747 65.0407 104.852 64.9744C104.958 64.9072 105.041 64.8153 105.101 64.6989C105.161 64.5824 105.19 64.4503 105.19 64.3026V63.9815C105.169 64.0005 105.137 64.0175 105.095 64.0327C105.055 64.0469 105.008 64.0597 104.956 64.071C104.905 64.0814 104.851 64.0909 104.794 64.0994C104.738 64.107 104.684 64.1141 104.631 64.1207C104.472 64.1397 104.342 64.169 104.242 64.2088C104.142 64.2476 104.069 64.2988 104.023 64.3622C103.977 64.4257 103.955 64.5024 103.955 64.5923C103.955 64.741 104.006 64.8584 104.108 64.9446C104.21 65.0308 104.338 65.0739 104.49 65.0739ZM105.947 64.6307H106.127C106.135 64.7642 106.19 64.8712 106.293 64.9517C106.398 65.0322 106.535 65.0724 106.707 65.0724C106.885 65.0724 107.028 65.0294 107.137 64.9432C107.246 64.857 107.301 64.7401 107.301 64.5923C107.301 64.5024 107.281 64.4238 107.241 64.3565C107.201 64.2884 107.148 64.2353 107.082 64.1974C107.015 64.1596 106.943 64.1392 106.863 64.1364H106.477V63.9759H106.856C106.982 63.9607 107.08 63.9205 107.15 63.8551C107.22 63.7888 107.255 63.6989 107.255 63.5852C107.255 63.4489 107.208 63.34 107.113 63.2585C107.018 63.1771 106.893 63.1364 106.737 63.1364C106.577 63.1364 106.446 63.1776 106.342 63.2599C106.238 63.3423 106.183 63.4489 106.176 63.5795H105.998C106.003 63.4602 106.037 63.3556 106.102 63.2656C106.167 63.1747 106.254 63.1042 106.362 63.054C106.47 63.0028 106.594 62.9773 106.731 62.9773C106.872 62.9773 106.995 63.0038 107.099 63.0568C107.204 63.1089 107.285 63.1804 107.343 63.2713C107.401 63.3622 107.43 63.4654 107.43 63.581C107.43 63.6984 107.398 63.7964 107.335 63.875C107.272 63.9536 107.191 64.0085 107.09 64.0398V64.0611C107.163 64.0724 107.229 64.1027 107.286 64.152C107.345 64.2012 107.391 64.2642 107.424 64.3409C107.458 64.4167 107.475 64.5005 107.475 64.5923C107.475 64.7173 107.443 64.8281 107.379 64.9247C107.315 65.0213 107.226 65.0971 107.112 65.152C106.997 65.206 106.863 65.233 106.708 65.233C106.561 65.233 106.431 65.2079 106.318 65.1577C106.205 65.1075 106.116 65.0374 106.051 64.9474C105.986 64.8565 105.952 64.7509 105.947 64.6307ZM108.618 65.2344C108.492 65.2344 108.376 65.2093 108.271 65.1591C108.167 65.1089 108.083 65.0355 108.02 64.9389C107.957 64.8423 107.926 64.7249 107.926 64.5866C107.926 64.4957 107.942 64.4157 107.974 64.3466C108.006 64.2775 108.056 64.2178 108.123 64.1676C108.191 64.1174 108.277 64.0762 108.382 64.044C108.487 64.0109 108.612 63.9853 108.758 63.9673C108.869 63.9541 108.968 63.9413 109.055 63.929C109.142 63.9157 109.21 63.8954 109.26 63.8679C109.31 63.8404 109.335 63.7988 109.335 63.7429V63.652C109.335 63.4929 109.285 63.3665 109.184 63.2727C109.084 63.179 108.946 63.1321 108.77 63.1321C108.613 63.1321 108.482 63.1667 108.375 63.2358C108.269 63.304 108.194 63.392 108.152 63.5L107.988 63.4389C108.03 63.3348 108.09 63.2481 108.169 63.179C108.248 63.1098 108.339 63.0582 108.441 63.0241C108.545 62.9901 108.653 62.973 108.765 62.973C108.863 62.973 108.956 62.9867 109.044 63.0142C109.133 63.0417 109.212 63.0833 109.281 63.1392C109.351 63.1951 109.406 63.2666 109.447 63.3537C109.488 63.4399 109.508 63.5431 109.508 63.6634V65.1875H109.335V64.794H109.322C109.284 64.8755 109.232 64.9498 109.166 65.017C109.101 65.0833 109.022 65.1364 108.929 65.1761C108.837 65.215 108.733 65.2344 108.618 65.2344ZM108.635 65.0739C108.771 65.0739 108.892 65.0407 108.997 64.9744C109.103 64.9072 109.186 64.8153 109.245 64.6989C109.305 64.5824 109.335 64.4503 109.335 64.3026V63.9815C109.313 64.0005 109.281 64.0175 109.24 64.0327C109.199 64.0469 109.153 64.0597 109.101 64.071C109.049 64.0814 108.995 64.0909 108.939 64.0994C108.883 64.107 108.828 64.1141 108.775 64.1207C108.616 64.1397 108.486 64.169 108.386 64.2088C108.287 64.2476 108.214 64.2988 108.167 64.3622C108.122 64.4257 108.099 64.5024 108.099 64.5923C108.099 64.741 108.15 64.8584 108.253 64.9446C108.355 65.0308 108.482 65.0739 108.635 65.0739ZM111.309 65.1875H111.121L112.171 62.2784H112.375L113.425 65.1875H113.238L112.28 62.5071H112.266L111.309 65.1875ZM111.574 64.0923H112.972V64.2571H111.574V64.0923Z" fill="#1D3A6D"/>
<rect x="121.792" y="60.2875" width="16.3556" height="6.16752" rx="0.9" stroke="#1D3A6D" stroke-width="0.2"/>
<path d="M124.786 62.6477H125.117C125.323 62.6477 125.506 62.6955 125.665 62.7912C125.824 62.8859 125.949 63.0185 126.039 63.1889C126.13 63.3584 126.175 63.5563 126.174 63.7827C126.174 64.008 126.129 64.206 126.04 64.3764C125.951 64.5459 125.828 64.678 125.671 64.7727C125.514 64.8674 125.332 64.9148 125.126 64.9148H124.787C124.58 64.9148 124.396 64.8674 124.236 64.7727C124.077 64.6771 123.953 64.544 123.863 64.3736C123.773 64.2031 123.728 64.0047 123.729 63.7784C123.73 63.554 123.775 63.357 123.864 63.1875C123.954 63.018 124.078 62.8859 124.236 62.7912C124.395 62.6955 124.579 62.6477 124.786 62.6477ZM124.79 62.8125C124.6 62.8125 124.439 62.8556 124.307 62.9418C124.176 63.027 124.076 63.143 124.008 63.2898C123.94 63.4366 123.907 63.6032 123.907 63.7898C123.908 63.9725 123.942 64.1364 124.009 64.2812C124.077 64.4261 124.177 64.5407 124.307 64.625C124.438 64.7083 124.598 64.75 124.787 64.75H125.121C125.31 64.75 125.469 64.7083 125.599 64.625C125.729 64.5407 125.828 64.4257 125.895 64.2798C125.964 64.134 125.997 63.9683 125.996 63.7827C125.995 63.5971 125.961 63.4313 125.894 63.2855C125.827 63.1397 125.728 63.0246 125.597 62.9403C125.466 62.8551 125.305 62.8125 125.114 62.8125H124.79ZM125.043 62.2273V65.3068H124.866V62.2273H125.043ZM127.382 65.2344C127.256 65.2344 127.141 65.2093 127.036 65.1591C126.932 65.1089 126.848 65.0355 126.784 64.9389C126.722 64.8423 126.691 64.7249 126.691 64.5866C126.691 64.4957 126.707 64.4157 126.739 64.3466C126.771 64.2775 126.821 64.2178 126.888 64.1676C126.955 64.1174 127.041 64.0762 127.146 64.044C127.252 64.0109 127.377 63.9853 127.523 63.9673C127.634 63.9541 127.733 63.9413 127.82 63.929C127.907 63.9157 127.975 63.8954 128.024 63.8679C128.075 63.8404 128.1 63.7988 128.1 63.7429V63.652C128.1 63.4929 128.049 63.3665 127.949 63.2727C127.849 63.179 127.71 63.1321 127.534 63.1321C127.378 63.1321 127.246 63.1667 127.139 63.2358C127.033 63.304 126.959 63.392 126.916 63.5L126.753 63.4389C126.795 63.3348 126.855 63.2481 126.933 63.179C127.013 63.1098 127.104 63.0582 127.206 63.0241C127.309 62.9901 127.417 62.973 127.53 62.973C127.628 62.973 127.72 62.9867 127.808 63.0142C127.897 63.0417 127.976 63.0833 128.046 63.1392C128.116 63.1951 128.171 63.2666 128.212 63.3537C128.253 63.4399 128.273 63.5431 128.273 63.6634V65.1875H128.1V64.794H128.087C128.049 64.8755 127.997 64.9498 127.931 65.017C127.865 65.0833 127.786 65.1364 127.693 65.1761C127.601 65.215 127.498 65.2344 127.382 65.2344ZM127.399 65.0739C127.536 65.0739 127.656 65.0407 127.762 64.9744C127.868 64.9072 127.95 64.8153 128.01 64.6989C128.07 64.5824 128.1 64.4503 128.1 64.3026V63.9815C128.078 64.0005 128.046 64.0175 128.004 64.0327C127.964 64.0469 127.917 64.0597 127.865 64.071C127.814 64.0814 127.76 64.0909 127.703 64.0994C127.647 64.107 127.593 64.1141 127.54 64.1207C127.381 64.1397 127.251 64.169 127.151 64.2088C127.051 64.2476 126.978 64.2988 126.932 64.3622C126.887 64.4257 126.864 64.5024 126.864 64.5923C126.864 64.741 126.915 64.8584 127.017 64.9446C127.119 65.0308 127.247 65.0739 127.399 65.0739ZM128.856 64.6307H129.036C129.044 64.7642 129.099 64.8712 129.203 64.9517C129.307 65.0322 129.445 65.0724 129.616 65.0724C129.794 65.0724 129.937 65.0294 130.046 64.9432C130.155 64.857 130.21 64.7401 130.21 64.5923C130.21 64.5024 130.19 64.4238 130.15 64.3565C130.11 64.2884 130.057 64.2353 129.991 64.1974C129.925 64.1596 129.852 64.1392 129.772 64.1364H129.386V63.9759H129.765C129.891 63.9607 129.989 63.9205 130.059 63.8551C130.129 63.7888 130.164 63.6989 130.164 63.5852C130.164 63.4489 130.117 63.34 130.022 63.2585C129.927 63.1771 129.802 63.1364 129.646 63.1364C129.487 63.1364 129.355 63.1776 129.251 63.2599C129.148 63.3423 129.092 63.4489 129.085 63.5795H128.907C128.912 63.4602 128.946 63.3556 129.011 63.2656C129.076 63.1747 129.163 63.1042 129.271 63.054C129.38 63.0028 129.503 62.9773 129.64 62.9773C129.781 62.9773 129.904 63.0038 130.008 63.0568C130.113 63.1089 130.195 63.1804 130.252 63.2713C130.31 63.3622 130.339 63.4654 130.339 63.581C130.339 63.6984 130.307 63.7964 130.244 63.875C130.181 63.9536 130.1 64.0085 129.999 64.0398V64.0611C130.072 64.0724 130.138 64.1027 130.195 64.152C130.254 64.2012 130.3 64.2642 130.333 64.3409C130.367 64.4167 130.384 64.5005 130.384 64.5923C130.384 64.7173 130.352 64.8281 130.288 64.9247C130.224 65.0213 130.135 65.0971 130.021 65.152C129.906 65.206 129.772 65.233 129.617 65.233C129.471 65.233 129.34 65.2079 129.227 65.1577C129.114 65.1075 129.025 65.0374 128.96 64.9474C128.895 64.8565 128.861 64.7509 128.856 64.6307ZM131.527 65.2344C131.401 65.2344 131.285 65.2093 131.18 65.1591C131.076 65.1089 130.992 65.0355 130.929 64.9389C130.866 64.8423 130.835 64.7249 130.835 64.5866C130.835 64.4957 130.851 64.4157 130.883 64.3466C130.916 64.2775 130.965 64.2178 131.032 64.1676C131.1 64.1174 131.186 64.0762 131.291 64.044C131.396 64.0109 131.522 63.9853 131.667 63.9673C131.778 63.9541 131.877 63.9413 131.964 63.929C132.051 63.9157 132.12 63.8954 132.169 63.8679C132.219 63.8404 132.244 63.7988 132.244 63.7429V63.652C132.244 63.4929 132.194 63.3665 132.094 63.2727C131.993 63.179 131.855 63.1321 131.679 63.1321C131.523 63.1321 131.391 63.1667 131.284 63.2358C131.178 63.304 131.104 63.392 131.061 63.5L130.898 63.4389C130.939 63.3348 130.999 63.2481 131.078 63.179C131.157 63.1098 131.248 63.0582 131.351 63.0241C131.454 62.9901 131.562 62.973 131.675 62.973C131.772 62.973 131.865 62.9867 131.953 63.0142C132.042 63.0417 132.121 63.0833 132.19 63.1392C132.26 63.1951 132.316 63.2666 132.356 63.3537C132.397 63.4399 132.417 63.5431 132.417 63.6634V65.1875H132.244V64.794H132.231C132.193 64.8755 132.141 64.9498 132.075 65.017C132.01 65.0833 131.931 65.1364 131.838 65.1761C131.746 65.215 131.642 65.2344 131.527 65.2344ZM131.544 65.0739C131.68 65.0739 131.801 65.0407 131.906 64.9744C132.012 64.9072 132.095 64.8153 132.155 64.6989C132.214 64.5824 132.244 64.4503 132.244 64.3026V63.9815C132.222 64.0005 132.191 64.0175 132.149 64.0327C132.108 64.0469 132.062 64.0597 132.01 64.071C131.959 64.0814 131.905 64.0909 131.848 64.0994C131.792 64.107 131.738 64.1141 131.684 64.1207C131.525 64.1397 131.396 64.169 131.295 64.2088C131.196 64.2476 131.123 64.2988 131.077 64.3622C131.031 64.4257 131.008 64.5024 131.008 64.5923C131.008 64.741 131.059 64.8584 131.162 64.9446C131.264 65.0308 131.391 65.0739 131.544 65.0739ZM134.33 65.1875V62.2784H135.275C135.451 62.2784 135.599 62.3097 135.721 62.3722C135.842 62.4347 135.934 62.5223 135.996 62.6349C136.06 62.7476 136.091 62.8788 136.091 63.0284C136.091 63.1458 136.072 63.25 136.035 63.3409C135.997 63.4318 135.944 63.5071 135.876 63.5668C135.808 63.6255 135.729 63.6662 135.638 63.6889V63.706C135.739 63.7135 135.832 63.7486 135.918 63.8111C136.004 63.8726 136.073 63.9564 136.126 64.0625C136.179 64.1686 136.205 64.2921 136.205 64.4332C136.205 64.5819 136.173 64.7131 136.108 64.8267C136.045 64.9394 135.95 65.0279 135.823 65.0923C135.696 65.1558 135.539 65.1875 135.351 65.1875H134.33ZM134.508 65.0227H135.351C135.57 65.0227 135.738 64.9678 135.856 64.858C135.974 64.7481 136.033 64.6065 136.033 64.4332C136.033 64.3111 136.004 64.2017 135.947 64.1051C135.89 64.0085 135.811 63.9323 135.709 63.8764C135.608 63.8196 135.491 63.7912 135.357 63.7912H134.508V65.0227ZM134.508 63.6293H135.336C135.46 63.6293 135.565 63.6023 135.651 63.5483C135.738 63.4943 135.805 63.4219 135.85 63.331C135.896 63.2401 135.92 63.1392 135.92 63.0284C135.92 62.8485 135.864 62.706 135.752 62.6009C135.64 62.4957 135.481 62.4432 135.275 62.4432H134.508V63.6293Z" fill="#1D3A6D"/>
<rect x="144.716" y="60.2875" width="16.3556" height="6.16752" rx="0.9" stroke="#1D3A6D" stroke-width="0.2"/>
<path d="M147.547 62.6477H147.878C148.085 62.6477 148.267 62.6955 148.427 62.7912C148.586 62.8859 148.71 63.0185 148.8 63.1889C148.891 63.3584 148.936 63.5563 148.935 63.7827C148.935 64.008 148.891 64.206 148.802 64.3764C148.713 64.5459 148.589 64.678 148.432 64.7727C148.275 64.8674 148.093 64.9148 147.887 64.9148H147.549C147.341 64.9148 147.158 64.8674 146.998 64.7727C146.838 64.6771 146.714 64.544 146.624 64.3736C146.534 64.2031 146.489 64.0047 146.49 63.7784C146.491 63.554 146.536 63.357 146.625 63.1875C146.715 63.018 146.839 62.8859 146.998 62.7912C147.157 62.6955 147.34 62.6477 147.547 62.6477ZM147.552 62.8125C147.361 62.8125 147.2 62.8556 147.069 62.9418C146.937 63.027 146.837 63.143 146.769 63.2898C146.702 63.4366 146.668 63.6032 146.668 63.7898C146.669 63.9725 146.703 64.1364 146.77 64.2812C146.838 64.4261 146.938 64.5407 147.069 64.625C147.199 64.7083 147.359 64.75 147.549 64.75H147.882C148.071 64.75 148.23 64.7083 148.36 64.625C148.49 64.5407 148.589 64.4257 148.657 64.2798C148.725 64.134 148.758 63.9683 148.757 63.7827C148.757 63.5971 148.722 63.4313 148.655 63.2855C148.588 63.1397 148.489 63.0246 148.358 62.9403C148.228 62.8551 148.067 62.8125 147.875 62.8125H147.552ZM147.804 62.2273V65.3068H147.627V62.2273H147.804ZM150.144 65.2344C150.018 65.2344 149.902 65.2093 149.797 65.1591C149.693 65.1089 149.609 65.0355 149.545 64.9389C149.483 64.8423 149.452 64.7249 149.452 64.5866C149.452 64.4957 149.468 64.4157 149.5 64.3466C149.532 64.2775 149.582 64.2178 149.649 64.1676C149.716 64.1174 149.803 64.0762 149.908 64.044C150.013 64.0109 150.138 63.9853 150.284 63.9673C150.395 63.9541 150.494 63.9413 150.581 63.929C150.668 63.9157 150.736 63.8954 150.786 63.8679C150.836 63.8404 150.861 63.7988 150.861 63.7429V63.652C150.861 63.4929 150.811 63.3665 150.71 63.2727C150.61 63.179 150.472 63.1321 150.295 63.1321C150.139 63.1321 150.008 63.1667 149.901 63.2358C149.795 63.304 149.72 63.392 149.678 63.5L149.514 63.4389C149.556 63.3348 149.616 63.2481 149.695 63.179C149.774 63.1098 149.865 63.0582 149.967 63.0241C150.071 62.9901 150.179 62.973 150.291 62.973C150.389 62.973 150.482 62.9867 150.57 63.0142C150.659 63.0417 150.738 63.0833 150.807 63.1392C150.877 63.1951 150.932 63.2666 150.973 63.3537C151.014 63.4399 151.034 63.5431 151.034 63.6634V65.1875H150.861V64.794H150.848C150.81 64.8755 150.758 64.9498 150.692 65.017C150.626 65.0833 150.547 65.1364 150.455 65.1761C150.363 65.215 150.259 65.2344 150.144 65.2344ZM150.161 65.0739C150.297 65.0739 150.418 65.0407 150.523 64.9744C150.629 64.9072 150.712 64.8153 150.771 64.6989C150.831 64.5824 150.861 64.4503 150.861 64.3026V63.9815C150.839 64.0005 150.807 64.0175 150.766 64.0327C150.725 64.0469 150.679 64.0597 150.626 64.071C150.575 64.0814 150.521 64.0909 150.465 64.0994C150.409 64.107 150.354 64.1141 150.301 64.1207C150.142 64.1397 150.012 64.169 149.912 64.2088C149.813 64.2476 149.74 64.2988 149.693 64.3622C149.648 64.4257 149.625 64.5024 149.625 64.5923C149.625 64.741 149.676 64.8584 149.778 64.9446C149.881 65.0308 150.008 65.0739 150.161 65.0739ZM151.617 64.6307H151.798C151.805 64.7642 151.861 64.8712 151.964 64.9517C152.068 65.0322 152.206 65.0724 152.377 65.0724C152.555 65.0724 152.699 65.0294 152.808 64.9432C152.916 64.857 152.971 64.7401 152.971 64.5923C152.971 64.5024 152.951 64.4238 152.911 64.3565C152.871 64.2884 152.818 64.2353 152.752 64.1974C152.686 64.1596 152.613 64.1392 152.533 64.1364H152.147V63.9759H152.526C152.652 63.9607 152.75 63.9205 152.82 63.8551C152.89 63.7888 152.925 63.6989 152.925 63.5852C152.925 63.4489 152.878 63.34 152.783 63.2585C152.689 63.1771 152.563 63.1364 152.407 63.1364C152.248 63.1364 152.116 63.1776 152.012 63.2599C151.909 63.3423 151.853 63.4489 151.846 63.5795H151.668C151.673 63.4602 151.708 63.3556 151.772 63.2656C151.837 63.1747 151.924 63.1042 152.032 63.054C152.141 63.0028 152.264 62.9773 152.401 62.9773C152.542 62.9773 152.665 63.0038 152.769 63.0568C152.874 63.1089 152.956 63.1804 153.014 63.2713C153.071 63.3622 153.1 63.4654 153.1 63.581C153.1 63.6984 153.068 63.7964 153.005 63.875C152.943 63.9536 152.861 64.0085 152.761 64.0398V64.0611C152.834 64.0724 152.899 64.1027 152.957 64.152C153.015 64.2012 153.061 64.2642 153.094 64.3409C153.129 64.4167 153.146 64.5005 153.146 64.5923C153.146 64.7173 153.113 64.8281 153.049 64.9247C152.986 65.0213 152.897 65.0971 152.782 65.152C152.667 65.206 152.533 65.233 152.379 65.233C152.232 65.233 152.102 65.2079 151.988 65.1577C151.875 65.1075 151.786 65.0374 151.721 64.9474C151.657 64.8565 151.622 64.7509 151.617 64.6307ZM154.288 65.2344C154.162 65.2344 154.047 65.2093 153.941 65.1591C153.837 65.1089 153.753 65.0355 153.69 64.9389C153.628 64.8423 153.596 64.7249 153.596 64.5866C153.596 64.4957 153.612 64.4157 153.645 64.3466C153.677 64.2775 153.726 64.2178 153.794 64.1676C153.861 64.1174 153.947 64.0762 154.052 64.044C154.157 64.0109 154.283 63.9853 154.429 63.9673C154.539 63.9541 154.638 63.9413 154.726 63.929C154.813 63.9157 154.881 63.8954 154.93 63.8679C154.98 63.8404 155.005 63.7988 155.005 63.7429V63.652C155.005 63.4929 154.955 63.3665 154.855 63.2727C154.754 63.179 154.616 63.1321 154.44 63.1321C154.284 63.1321 154.152 63.1667 154.045 63.2358C153.939 63.304 153.865 63.392 153.822 63.5L153.659 63.4389C153.7 63.3348 153.761 63.2481 153.839 63.179C153.919 63.1098 154.01 63.0582 154.112 63.0241C154.215 62.9901 154.323 62.973 154.436 62.973C154.533 62.973 154.626 62.9867 154.714 63.0142C154.803 63.0417 154.882 63.0833 154.951 63.1392C155.021 63.1951 155.077 63.2666 155.118 63.3537C155.158 63.4399 155.179 63.5431 155.179 63.6634V65.1875H155.005V64.794H154.993C154.955 64.8755 154.903 64.9498 154.836 65.017C154.771 65.0833 154.692 65.1364 154.599 65.1761C154.507 65.215 154.404 65.2344 154.288 65.2344ZM154.305 65.0739C154.441 65.0739 154.562 65.0407 154.667 64.9744C154.773 64.9072 154.856 64.8153 154.916 64.6989C154.976 64.5824 155.005 64.4503 155.005 64.3026V63.9815C154.984 64.0005 154.952 64.0175 154.91 64.0327C154.869 64.0469 154.823 64.0597 154.771 64.071C154.72 64.0814 154.666 64.0909 154.609 64.0994C154.553 64.107 154.499 64.1141 154.446 64.1207C154.287 64.1397 154.157 64.169 154.056 64.2088C153.957 64.2476 153.884 64.2988 153.838 64.3622C153.792 64.4257 153.77 64.5024 153.77 64.5923C153.77 64.741 153.821 64.8584 153.923 64.9446C154.025 65.0308 154.153 65.0739 154.305 65.0739ZM159.307 63.1875H159.125C159.106 63.089 159.071 62.9938 159.019 62.902C158.967 62.8092 158.9 62.7259 158.817 62.652C158.736 62.5772 158.641 62.518 158.533 62.4744C158.425 62.4309 158.306 62.4091 158.175 62.4091C157.984 62.4091 157.808 62.4602 157.647 62.5625C157.487 62.6638 157.358 62.813 157.262 63.0099C157.166 63.2069 157.118 63.4479 157.118 63.733C157.118 64.0199 157.166 64.2618 157.262 64.4588C157.358 64.6558 157.487 64.8049 157.647 64.9062C157.808 65.0066 157.984 65.0568 158.175 65.0568C158.306 65.0568 158.425 65.0355 158.533 64.9929C158.641 64.9493 158.736 64.8906 158.817 64.8168C158.9 64.742 158.967 64.6581 159.019 64.5653C159.071 64.4725 159.106 64.3769 159.125 64.2784H159.307C159.286 64.3958 159.246 64.5109 159.186 64.6236C159.128 64.7363 159.05 64.8385 158.954 64.9304C158.858 65.0213 158.745 65.0937 158.614 65.1477C158.484 65.2008 158.338 65.2273 158.175 65.2273C157.933 65.2273 157.719 65.1657 157.534 65.0426C157.35 64.9186 157.205 64.7443 157.1 64.5199C156.996 64.2955 156.944 64.0331 156.944 63.733C156.944 63.4328 156.996 63.1705 157.1 62.946C157.205 62.7216 157.35 62.5478 157.534 62.4247C157.719 62.3007 157.933 62.2386 158.175 62.2386C158.338 62.2386 158.484 62.2656 158.614 62.3196C158.745 62.3726 158.858 62.4446 158.954 62.5355C159.05 62.6255 159.128 62.7268 159.186 62.8395C159.246 62.9522 159.286 63.0682 159.307 63.1875Z" fill="#1D3A6D"/>
<rect x="101.98" y="153.638" width="16.3556" height="6.16752" rx="0.9" stroke="#1D3A6D" stroke-width="0.2"/>
<path d="M103.661 158.538V155.629H104.557C104.742 155.629 104.9 155.667 105.031 155.743C105.164 155.818 105.266 155.922 105.337 156.054C105.408 156.185 105.443 156.335 105.443 156.504C105.443 156.671 105.408 156.82 105.337 156.951C105.266 157.083 105.164 157.187 105.031 157.264C104.9 157.34 104.742 157.378 104.558 157.378H103.786V157.213H104.554C104.704 157.213 104.832 157.182 104.938 157.122C105.044 157.06 105.125 156.977 105.182 156.87C105.239 156.763 105.267 156.641 105.267 156.504C105.267 156.366 105.239 156.243 105.182 156.136C105.125 156.029 105.043 155.945 104.936 155.885C104.83 155.824 104.702 155.794 104.553 155.794H103.838V158.538H103.661ZM106.204 159.356C106.16 159.356 106.117 159.352 106.074 159.342C106.032 159.333 105.993 159.32 105.959 159.305L106.01 159.153C106.099 159.187 106.18 159.2 106.252 159.19C106.325 159.181 106.389 159.147 106.445 159.091C106.501 159.034 106.548 158.95 106.587 158.841L106.687 158.568L105.887 156.356H106.073L106.766 158.315H106.78L107.473 156.356H107.66L106.739 158.909C106.704 159.007 106.66 159.09 106.607 159.156C106.554 159.222 106.493 159.272 106.425 159.305C106.358 159.339 106.284 159.356 106.204 159.356ZM109.673 156.356V158.538H109.501V156.356H109.673ZM109.616 157.474V157.645C109.519 157.678 109.43 157.705 109.349 157.727C109.27 157.749 109.193 157.765 109.119 157.775C109.045 157.785 108.969 157.79 108.89 157.79C108.648 157.789 108.461 157.73 108.331 157.615C108.2 157.498 108.135 157.317 108.135 157.072V156.346H108.308V157.072C108.308 157.203 108.33 157.309 108.375 157.39C108.419 157.471 108.485 157.53 108.571 157.568C108.657 157.606 108.762 157.625 108.885 157.625C109.01 157.625 109.131 157.611 109.25 157.585C109.369 157.557 109.491 157.521 109.616 157.474ZM111.888 157.366V157.531H110.525V157.366H111.888ZM110.574 156.356V158.538H110.4V156.356H110.574ZM112.005 156.356V158.538H111.832V156.356H112.005ZM113.543 158.584C113.364 158.584 113.203 158.535 113.063 158.439C112.923 158.341 112.813 158.207 112.732 158.037C112.652 157.866 112.612 157.672 112.612 157.454C112.612 157.236 112.652 157.041 112.732 156.872C112.813 156.701 112.923 156.567 113.063 156.47C113.203 156.372 113.364 156.324 113.543 156.324C113.723 156.324 113.883 156.372 114.024 156.47C114.164 156.567 114.274 156.701 114.355 156.872C114.435 157.042 114.475 157.236 114.475 157.454C114.475 157.672 114.435 157.866 114.355 158.037C114.274 158.207 114.164 158.341 114.024 158.439C113.883 158.535 113.723 158.584 113.543 158.584ZM113.543 158.423C113.696 158.423 113.829 158.38 113.943 158.294C114.057 158.208 114.146 158.091 114.208 157.944C114.272 157.798 114.303 157.634 114.303 157.454C114.303 157.274 114.272 157.111 114.208 156.966C114.145 156.819 114.056 156.702 113.943 156.616C113.829 156.529 113.696 156.486 113.543 156.486C113.391 156.486 113.258 156.529 113.144 156.616C113.031 156.702 112.942 156.819 112.879 156.966C112.815 157.111 112.784 157.274 112.784 157.454C112.784 157.634 112.815 157.798 112.877 157.944C112.941 158.091 113.029 158.208 113.143 158.294C113.257 158.38 113.391 158.423 113.543 158.423ZM115.246 158.312L116.497 156.356H116.717V158.538H116.544V156.582L115.294 158.538H115.072V156.356H115.246V158.312ZM116.139 155.629H116.304C116.304 155.747 116.267 155.842 116.194 155.913C116.121 155.984 116.022 156.02 115.895 156.02C115.769 156.02 115.669 155.984 115.596 155.913C115.523 155.842 115.487 155.747 115.487 155.629H115.652C115.652 155.704 115.672 155.764 115.711 155.809C115.751 155.855 115.812 155.878 115.895 155.878C115.977 155.878 116.038 155.855 116.078 155.809C116.119 155.764 116.139 155.704 116.139 155.629Z" fill="#1D3A6D"/>
<rect x="77.6841" y="180.282" width="35.6581" height="39.4786" rx="1" fill="#9A9BA0"/>
<rect x="80.2314" y="181.556" width="30.5641" height="36.9316" rx="1" fill="#F1F1F1"/>
<rect x="84.1018" y="184.153" width="22.8231" height="11.3615" rx="0.95" fill="#9A9BA0" stroke="#F27437" stroke-width="0.1"/>
<rect x="85.3752" y="185.426" width="20.2761" height="8.81453" rx="0.95" fill="#606060" stroke="#F27437" stroke-width="0.1"/>
<circle cx="82.1411" cy="203.842" r="0.636752" fill="#AAAAAA"/>
<path d="M83.8322 204.205H83.7853L84.0478 203.478H84.0989L84.3613 204.205H84.3145L84.0751 203.535H84.0716L83.8322 204.205ZM83.8986 203.931H84.2481V203.972H83.8986V203.931ZM84.9195 203.478H84.9639V203.959C84.9639 204.009 84.9524 204.053 84.9295 204.092C84.9065 204.13 84.8748 204.161 84.8343 204.183C84.7941 204.206 84.7478 204.217 84.6955 204.217C84.6434 204.217 84.5971 204.206 84.5566 204.183C84.5161 204.161 84.4843 204.13 84.4611 204.091C84.4381 204.053 84.4268 204.009 84.427 203.959V203.478H84.4714V203.957C84.4714 203.999 84.4809 204.036 84.4998 204.069C84.519 204.101 84.5454 204.127 84.579 204.146C84.6126 204.165 84.6514 204.174 84.6955 204.174C84.7395 204.174 84.7783 204.165 84.8119 204.146C84.8456 204.127 84.8718 204.101 84.8908 204.069C84.9099 204.036 84.9195 203.999 84.9195 203.957V203.478ZM85.0558 203.519V203.478H85.5654V203.519H85.3328V204.205H85.2884V203.519H85.0558Z" fill="#575757"/>
<path d="M82.7779 207.025C82.7779 207.377 82.4928 207.662 82.1411 207.662C81.7895 207.662 81.5044 207.377 81.5044 207.025C81.5044 206.674 81.7895 206.389 82.1411 206.389C82.4928 206.389 82.7779 206.674 82.7779 207.025Z" fill="#AAAAAA"/>
<path d="M85.1715 206.32L85.169 206.835H85.1264L85.1239 206.32H85.1715ZM85.1477 207.051C85.1371 207.051 85.1279 207.048 85.1204 207.04C85.113 207.033 85.1094 207.024 85.1094 207.013C85.1094 207.003 85.1132 206.994 85.1207 206.986C85.1283 206.979 85.1373 206.975 85.1477 206.975C85.1581 206.975 85.1671 206.979 85.1747 206.986C85.1823 206.994 85.1861 207.003 85.1861 207.013C85.1861 207.02 85.1843 207.027 85.1807 207.033C85.1774 207.038 85.1728 207.043 85.1669 207.047C85.1612 207.05 85.1548 207.051 85.1477 207.051Z" fill="#575757"/>
<path d="M85.1113 205.927C85.1306 205.894 85.1787 205.894 85.1979 205.927L86.1276 207.537C86.1469 207.571 86.1228 207.612 86.0843 207.612H84.225C84.1865 207.612 84.1624 207.571 84.1817 207.537L85.1113 205.927L85.068 205.902L85.1113 205.927Z" stroke="#575757" stroke-width="0.1"/>
<path d="M89.05 199.05H101.95V209.45H89.05V199.05Z" fill="#F3F5FA" stroke="#F27437" stroke-width="0.1"/>
<path d="M90 205.5V203.5V203H94V203.5V205.5H92H90Z" fill="#F27437"/>
<path d="M91.2061 203.955C91.2024 203.909 91.1839 203.873 91.1507 203.845C91.1178 203.817 91.0752 203.803 91.0229 203.803C90.9876 203.803 90.9563 203.809 90.9288 203.822C90.9013 203.835 90.8798 203.853 90.8642 203.876C90.8485 203.898 90.8407 203.924 90.8407 203.953C90.8407 203.972 90.8443 203.989 90.8514 204.004C90.8587 204.019 90.869 204.032 90.8823 204.044C90.8955 204.056 90.9113 204.066 90.9295 204.075C90.9477 204.083 90.9679 204.091 90.9899 204.098L91.0694 204.121C91.0967 204.129 91.1217 204.139 91.1447 204.15C91.1679 204.161 91.188 204.174 91.2051 204.189C91.2224 204.204 91.2357 204.221 91.2452 204.241C91.2549 204.262 91.2598 204.285 91.2598 204.311C91.2598 204.349 91.2498 204.384 91.2299 204.414C91.2103 204.444 91.1822 204.468 91.1458 204.486C91.1096 204.503 91.0668 204.512 91.0176 204.512C90.9707 204.512 90.9299 204.504 90.8951 204.488C90.8605 204.472 90.8332 204.45 90.813 204.422C90.7929 204.393 90.7815 204.361 90.7789 204.324H90.8244C90.8268 204.354 90.8364 204.38 90.8532 204.402C90.8702 204.424 90.8928 204.441 90.921 204.452C90.9492 204.464 90.9814 204.47 91.0176 204.47C91.0566 204.47 91.0911 204.464 91.1209 204.45C91.1507 204.437 91.1741 204.418 91.1909 204.394C91.2077 204.37 91.2161 204.342 91.2161 204.311C91.2161 204.285 91.21 204.263 91.198 204.245C91.1859 204.227 91.168 204.211 91.1444 204.198C91.1209 204.185 91.0918 204.173 91.057 204.162L90.9721 204.137C90.9153 204.119 90.8719 204.096 90.8418 204.066C90.812 204.036 90.7971 203.999 90.7971 203.955C90.7971 203.917 90.807 203.884 90.8269 203.855C90.8468 203.826 90.8738 203.803 90.9078 203.787C90.9422 203.77 90.9809 203.762 91.024 203.762C91.0673 203.762 91.1055 203.77 91.1387 203.787C91.1718 203.804 91.1981 203.826 91.2175 203.855C91.2369 203.884 91.2477 203.917 91.2498 203.955H91.2061ZM91.3869 203.814V203.773H91.8965V203.814H91.6639V204.5H91.6195V203.814H91.3869ZM92.6064 204.136C92.6064 204.211 92.5934 204.277 92.5674 204.333C92.5413 204.389 92.5051 204.432 92.4587 204.463C92.4126 204.494 92.3593 204.51 92.2989 204.51C92.2383 204.51 92.1848 204.494 92.1384 204.463C92.0922 204.432 92.0561 204.389 92.0301 204.333C92.0041 204.277 91.991 204.211 91.991 204.136C91.991 204.061 92.0041 203.996 92.0301 203.94C92.0564 203.884 92.0926 203.841 92.1388 203.81C92.1849 203.778 92.2383 203.763 92.2989 203.763C92.3593 203.763 92.4126 203.778 92.4587 203.809C92.5051 203.84 92.5413 203.884 92.5674 203.94C92.5934 203.996 92.6064 204.061 92.6064 204.136ZM92.5631 204.136C92.5631 204.069 92.5518 204.01 92.529 203.961C92.5065 203.911 92.4754 203.873 92.4356 203.846C92.3959 203.819 92.3503 203.805 92.2989 203.805C92.2475 203.805 92.202 203.819 92.1622 203.846C92.1224 203.873 92.0912 203.911 92.0684 203.961C92.046 204.01 92.0347 204.069 92.0347 204.136C92.0347 204.203 92.0458 204.262 92.0681 204.311C92.0906 204.361 92.1217 204.399 92.1615 204.426C92.2013 204.454 92.2471 204.467 92.2989 204.467C92.3503 204.467 92.3959 204.454 92.4356 204.427C92.4754 204.4 92.5065 204.361 92.529 204.312C92.5518 204.262 92.5631 204.204 92.5631 204.136ZM92.7799 204.5V203.773H93.004C93.0502 203.773 93.0897 203.782 93.1226 203.801C93.1557 203.82 93.1812 203.846 93.199 203.879C93.2167 203.912 93.2256 203.949 93.2256 203.991C93.2256 204.033 93.2167 204.07 93.199 204.103C93.1812 204.136 93.1557 204.162 93.1226 204.181C93.0897 204.2 93.0503 204.21 93.0044 204.21H92.8112V204.169H93.0033C93.0407 204.169 93.0727 204.161 93.0992 204.146C93.1257 204.131 93.146 204.11 93.1602 204.083C93.1744 204.056 93.1816 204.026 93.1816 203.991C93.1816 203.957 93.1744 203.926 93.1602 203.9C93.146 203.873 93.1256 203.852 93.0988 203.837C93.0723 203.821 93.0403 203.814 93.0029 203.814H92.8243V204.5H92.7799Z" fill="#F3F5FA"/>
<path d="M97 205.5V203.5V203H99H100.5H101V205.5H99H97Z" fill="#F27437"/>
<path d="M98.0262 203.955C98.0224 203.909 98.0039 203.873 97.9708 203.845C97.9379 203.817 97.8952 203.803 97.8429 203.803C97.8076 203.803 97.7763 203.809 97.7488 203.822C97.7214 203.835 97.6998 203.853 97.6842 203.876C97.6686 203.898 97.6608 203.924 97.6608 203.953C97.6608 203.972 97.6643 203.989 97.6714 204.004C97.6787 204.019 97.689 204.032 97.7023 204.044C97.7156 204.056 97.7313 204.066 97.7495 204.075C97.7678 204.083 97.7879 204.091 97.8099 204.098L97.8894 204.121C97.9167 204.129 97.9418 204.139 97.9647 204.15C97.9879 204.161 98.0081 204.174 98.0251 204.189C98.0424 204.204 98.0558 204.221 98.0652 204.241C98.0749 204.262 98.0798 204.285 98.0798 204.311C98.0798 204.349 98.0698 204.384 98.05 204.414C98.0303 204.444 98.0023 204.468 97.9658 204.486C97.9296 204.503 97.8868 204.512 97.8376 204.512C97.7907 204.512 97.7499 204.504 97.7151 204.488C97.6805 204.472 97.6532 204.45 97.6331 204.422C97.6129 204.393 97.6016 204.361 97.599 204.324H97.6444C97.6468 204.354 97.6564 204.38 97.6732 204.402C97.6902 204.424 97.7128 204.441 97.741 204.452C97.7692 204.464 97.8014 204.47 97.8376 204.47C97.8767 204.47 97.9111 204.464 97.9409 204.45C97.9708 204.437 97.9941 204.418 98.0109 204.394C98.0277 204.37 98.0361 204.342 98.0361 204.311C98.0361 204.285 98.0301 204.263 98.018 204.245C98.0059 204.227 97.988 204.211 97.9644 204.198C97.9409 204.185 97.9118 204.173 97.877 204.162L97.7921 204.137C97.7353 204.119 97.6919 204.096 97.6618 204.066C97.632 204.036 97.6171 203.999 97.6171 203.955C97.6171 203.917 97.627 203.884 97.6469 203.855C97.6668 203.826 97.6938 203.803 97.7279 203.787C97.7622 203.77 97.8009 203.762 97.844 203.762C97.8873 203.762 97.9255 203.77 97.9587 203.787C97.9918 203.804 98.0181 203.826 98.0375 203.855C98.0569 203.884 98.0677 203.917 98.0698 203.955H98.0262ZM98.1819 203.814V203.773H98.6915V203.814H98.4589V204.5H98.4145V203.814H98.1819ZM98.7152 204.5H98.6684L98.9308 203.773H98.9819L99.2444 204.5H99.1975L98.9581 203.83H98.9546L98.7152 204.5ZM98.7816 204.226H99.1311V204.267H98.7816V204.226ZM99.355 204.5V203.773H99.5791C99.625 203.773 99.6646 203.782 99.6977 203.8C99.7308 203.818 99.7563 203.843 99.774 203.875C99.7918 203.906 99.8007 203.943 99.8007 203.985C99.8007 204.027 99.7918 204.064 99.774 204.096C99.7563 204.127 99.7308 204.152 99.6977 204.169C99.6648 204.187 99.6254 204.196 99.5794 204.196H99.3788V204.154H99.5784C99.6158 204.154 99.6477 204.147 99.6743 204.134C99.7008 204.12 99.7211 204.1 99.7353 204.075C99.7495 204.05 99.7566 204.02 99.7566 203.985C99.7566 203.951 99.7495 203.921 99.7353 203.895C99.7211 203.869 99.7007 203.849 99.6739 203.835C99.6474 203.821 99.6154 203.814 99.578 203.814H99.3994V204.5H99.355ZM99.6537 204.17L99.8326 204.5H99.7815L99.6036 204.17H99.6537ZM99.9048 203.814V203.773H100.414V203.814H100.182V204.5H100.137V203.814H99.9048Z" fill="#F3F5FA"/>
<path d="M94 200H96.547V202.547H95.2735H94V200Z" fill="#F27437"/>
<path d="M95.2735 200.511L95.9102 201.784H94.6367L95.2735 200.511Z" fill="#F3F5FA"/>
<path d="M94 206H96.547V208.547H94V206Z" fill="#F27437"/>
<path d="M95.2735 207.91L95.9102 206.637H94.6367L95.2735 207.91Z" fill="#F3F5FA"/>
<defs>
<radialGradient id="paint0_radial_915_4543" cx="0" cy="0" r="1" gradientUnits="userSpaceOnUse" gradientTransform="translate(38.2781 73.5588) rotate(90) scale(4.45726)">
<stop offset="0.770833" stop-color="#E5EA0E"/>
<stop offset="1"/>
</radialGradient>
<radialGradient id="paint1_radial_915_4543" cx="0" cy="0" r="1" gradientUnits="userSpaceOnUse" gradientTransform="translate(61.2014 73.5588) rotate(90) scale(4.45726)">
<stop offset="0.770833" stop-color="#61EA0E"/>
<stop offset="1"/>
</radialGradient>
<radialGradient id="paint2_radial_915_4543" cx="0" cy="0" r="1" gradientUnits="userSpaceOnUse" gradientTransform="translate(84.1243 73.5588) rotate(90) scale(4.45726)">
<stop offset="0.770833" stop-color="#EA0E0E"/>
<stop offset="1"/>
</radialGradient>
<radialGradient id="paint3_radial_915_4543" cx="0" cy="0" r="1" gradientUnits="userSpaceOnUse" gradientTransform="translate(107.457 73.4573) rotate(90) scale(4.45726)">
<stop offset="0.770833" stop-color="#E5EA0E"/>
<stop offset="1"/>
</radialGradient>
<radialGradient id="paint4_radial_915_4543" cx="0" cy="0" r="1" gradientUnits="userSpaceOnUse" gradientTransform="translate(130.38 73.4573) rotate(90) scale(4.45726)">
<stop offset="0.770833" stop-color="#61EA0E"/>
<stop offset="1"/>
</radialGradient>
<radialGradient id="paint5_radial_915_4543" cx="0" cy="0" r="1" gradientUnits="userSpaceOnUse" gradientTransform="translate(153.303 73.4573) rotate(90) scale(4.45726)">
<stop offset="0.770833" stop-color="#EA0E0E"/>
<stop offset="1"/>
</radialGradient>
<radialGradient id="paint6_radial_915_4543" cx="0" cy="0" r="1" gradientUnits="userSpaceOnUse" gradientTransform="translate(117.757 92.4573) rotate(90) scale(4.45726)">
<stop offset="0.90615" stop-color="#EA0E0E"/>
<stop offset="0.90625" stop-color="#737373"/>
<stop offset="1" stop-color="#607DB0"/>
</radialGradient>
<radialGradient id="paint7_radial_915_4543" cx="0" cy="0" r="1" gradientUnits="userSpaceOnUse" gradientTransform="translate(96.1072 92.4573) rotate(90) scale(4.45726)">
<stop offset="0.90615" stop-color="#EA0E0E"/>
<stop offset="0.90625" stop-color="#737373"/>
<stop offset="1" stop-color="#607DB0"/>
</radialGradient>
<radialGradient id="paint8_radial_915_4543" cx="0" cy="0" r="1" gradientUnits="userSpaceOnUse" gradientTransform="translate(74.4573 92.4573) rotate(90) scale(4.45726)">
<stop offset="0.90615" stop-color="#EA0E0E"/>
<stop offset="0.90625" stop-color="#737373"/>
<stop offset="1" stop-color="#607DB0"/>
</radialGradient>
</defs>
</svg>
