<svg width="211" height="281" viewBox="0 0 211 281" fill="none" xmlns="http://www.w3.org/2000/svg">
<circle cx="29" cy="36" r="2" fill="#1D3A6D"/>
<circle cx="29" cy="52" r="2" fill="#1D3A6D"/>
<circle cx="29" cy="68" r="2" fill="#1D3A6D"/>
<circle cx="29" cy="84" r="2" fill="#1D3A6D"/>
<circle cx="29" cy="100" r="2" fill="#1D3A6D"/>
<circle cx="29" cy="116" r="2" fill="#1D3A6D"/>
<circle cx="29" cy="132" r="2" fill="#1D3A6D"/>
<circle cx="61" cy="20" r="2" transform="rotate(-90 61 20)" fill="#1D3A6D"/>
<circle cx="45" cy="20" r="2" transform="rotate(-90 45 20)" fill="#1D3A6D"/>
<circle cx="45" cy="20" r="2" transform="rotate(-90 45 20)" fill="#1D3A6D"/>
<circle cx="33" cy="24" r="2" transform="rotate(-90 33 24)" fill="#1D3A6D"/>
<circle cx="77" cy="20" r="2" transform="rotate(-90 77 20)" fill="#1D3A6D"/>
<circle cx="93" cy="20" r="2" transform="rotate(-90 93 20)" fill="#1D3A6D"/>
<circle cx="109" cy="20.1953" r="2" transform="rotate(-90 109 20.1953)" fill="#1D3A6D"/>
<circle cx="125" cy="20" r="2" transform="rotate(-90 125 20)" fill="#1D3A6D"/>
<circle cx="141" cy="20" r="2" transform="rotate(-90 141 20)" fill="#1D3A6D"/>
<circle cx="157" cy="20" r="2" transform="rotate(-90 157 20)" fill="#1D3A6D"/>
<circle cx="173" cy="20" r="2" transform="rotate(-90 173 20)" fill="#1D3A6D"/>
<circle cx="185" cy="24" r="2" transform="rotate(-90 185 24)" fill="#1D3A6D"/>
<circle cx="61" cy="260" r="2" transform="rotate(-90 61 260)" fill="#1D3A6D"/>
<circle cx="45" cy="260" r="2" transform="rotate(-90 45 260)" fill="#1D3A6D"/>
<circle cx="77" cy="260" r="2" transform="rotate(-90 77 260)" fill="#1D3A6D"/>
<circle cx="93" cy="260" r="2" transform="rotate(-90 93 260)" fill="#1D3A6D"/>
<circle cx="109" cy="260.195" r="2" transform="rotate(-90 109 260.195)" fill="#1D3A6D"/>
<circle cx="125" cy="260" r="2" transform="rotate(-90 125 260)" fill="#1D3A6D"/>
<circle cx="141" cy="260.064" r="2" transform="rotate(-90 141 260.064)" fill="#1D3A6D"/>
<circle cx="156.999" cy="260" r="2" transform="rotate(-90 156.999 260)" fill="#1D3A6D"/>
<circle cx="173" cy="260" r="2" transform="rotate(-90 173 260)" fill="#1D3A6D"/>
<circle cx="29" cy="148" r="2" fill="#1D3A6D"/>
<circle cx="29" cy="164" r="2" fill="#1D3A6D"/>
<circle cx="29" cy="180" r="2" fill="#1D3A6D"/>
<circle cx="29" cy="196" r="2" fill="#1D3A6D"/>
<circle cx="29" cy="212" r="2" fill="#1D3A6D"/>
<circle cx="29" cy="228" r="2" fill="#1D3A6D"/>
<circle cx="29" cy="244" r="2" fill="#1D3A6D"/>
<circle cx="33" cy="256" r="2" fill="#1D3A6D"/>
<path d="M85.4105 87V63.7273H98.3651V65.0455H86.831V74.6932H97.6719V76.0114H86.831V85.6818H98.6378V87H85.4105ZM104.288 69.5455L109.107 77.3068L113.925 69.5455H115.527L109.936 78.2727L115.527 87H113.925L109.107 79.3636L104.288 87H102.675L108.243 78.2727L102.675 69.5455H104.288ZM125.442 87.3636C124.04 87.3636 122.817 86.9773 121.771 86.2045C120.726 85.4318 119.915 84.3674 119.339 83.0114C118.771 81.6477 118.487 80.0833 118.487 78.3182C118.487 76.5682 118.775 75.0152 119.351 73.6591C119.934 72.2955 120.749 71.2273 121.794 70.4545C122.839 69.6742 124.059 69.2841 125.453 69.2841C126.453 69.2841 127.321 69.4773 128.055 69.8636C128.798 70.2424 129.419 70.7462 129.919 71.375C130.427 72.0038 130.813 72.6932 131.078 73.4432H131.214V63.7273H132.589V87H131.249V83.1932H131.078C130.798 83.9432 130.408 84.6364 129.908 85.2727C129.408 85.9015 128.786 86.4091 128.044 86.7955C127.302 87.1742 126.434 87.3636 125.442 87.3636ZM125.567 86.0795C126.749 86.0795 127.76 85.7424 128.601 85.0682C129.449 84.3864 130.097 83.4621 130.544 82.2955C130.999 81.1212 131.226 79.7917 131.226 78.3068C131.226 76.822 130.999 75.5 130.544 74.3409C130.097 73.1742 129.449 72.2576 128.601 71.5909C127.76 70.9167 126.749 70.5795 125.567 70.5795C124.37 70.5795 123.343 70.9205 122.487 71.6023C121.639 72.2765 120.987 73.197 120.533 74.3636C120.086 75.5303 119.862 76.8447 119.862 78.3068C119.862 79.7689 120.086 81.0871 120.533 82.2614C120.987 83.4356 121.639 84.3674 122.487 85.0568C123.343 85.7386 124.37 86.0795 125.567 86.0795Z" fill="#1D3A6D"/>
<circle cx="78.5" cy="191.5" r="6.5" fill="#1D3A6D"/>
<path d="M84 190L95 190V193H84V190Z" fill="#D5E4FF"/>
<path d="M83.3755 188.346L87.0558 188.346L87.0556 195.037L83.3757 195.036L83.3755 188.346Z" fill="#1D3A6D"/>
<path d="M104 191.5C104 194 104 194 98.6228 194C92.9999 194 92.9998 194 92.9998 191.5C92.9998 189 92.9998 189 98.6228 189C104 189 104 189.034 104 191.5Z" fill="#1D3A6D"/>
<circle cx="72" cy="124" r="5" fill="url(#paint0_radial_915_4435)"/>
<circle cx="146" cy="124" r="5" fill="url(#paint1_radial_915_4435)"/>
<rect x="63.25" y="167.25" width="25.5" height="9.5" stroke="#1D3A6D" stroke-width="0.5"/>
<path d="M71.6379 174V170.364H72.8186C73.0388 170.364 73.2246 170.403 73.3762 170.481C73.5277 170.559 73.6425 170.668 73.7206 170.809C73.7999 170.95 73.8396 171.114 73.8396 171.301C73.8396 171.448 73.8159 171.578 73.7686 171.692C73.7212 171.805 73.6549 171.9 73.5697 171.974C73.4856 172.047 73.3868 172.098 73.2732 172.127V172.148C73.3986 172.158 73.5152 172.201 73.623 172.279C73.7307 172.356 73.8171 172.461 73.8822 172.594C73.9485 172.726 73.9816 172.881 73.9816 173.057C73.9816 173.243 73.9414 173.407 73.8609 173.549C73.7816 173.69 73.6626 173.801 73.504 173.881C73.3454 173.96 73.1489 174 72.9145 174H71.6379ZM71.8598 173.794H72.9145C73.1879 173.794 73.3981 173.725 73.5448 173.588C73.6928 173.451 73.7668 173.274 73.7668 173.057C73.7668 172.904 73.7307 172.768 73.6585 172.647C73.5874 172.526 73.4886 172.431 73.3619 172.361C73.2353 172.29 73.0885 172.255 72.9216 172.255H71.8598V173.794ZM71.8598 172.052H72.895C73.05 172.052 73.1814 172.018 73.2892 171.951C73.3981 171.884 73.4809 171.793 73.5377 171.679C73.5957 171.566 73.6247 171.44 73.6247 171.301C73.6247 171.076 73.5549 170.898 73.4152 170.767C73.2755 170.635 73.0767 170.57 72.8186 170.57H71.8598V172.052ZM76.9348 174L75.6795 172.239H75.0776V174H74.8556V170.364H75.0776V172.034H75.5446L76.7679 170.364H77.0343L75.8074 172.042L77.2012 174H76.9348ZM77.5083 174V173.789H77.5971C77.7463 173.789 77.8658 173.737 77.9558 173.634C78.0469 173.531 78.115 173.367 78.16 173.142C78.2061 172.917 78.2351 172.622 78.247 172.255L78.3145 170.364H80.3635V174H80.1415V170.57H78.5275L78.4654 172.317C78.4524 172.704 78.4163 173.022 78.3571 173.27C78.2991 173.519 78.2079 173.703 78.0836 173.822C77.9593 173.941 77.7907 174 77.5776 174H77.5083Z" fill="#1D3A6D"/>
<rect x="59.25" y="104.25" width="25.5" height="9.5" stroke="#1D3A6D" stroke-width="0.5"/>
<path d="M63.7037 111H63.4693L64.7814 107.364H65.0371L66.3493 111H66.1149L64.9181 107.65H64.9004L63.7037 111ZM64.0357 109.631H65.7828V109.837H64.0357V109.631ZM66.9512 111V108.273H67.9863C68.274 108.273 68.4989 108.333 68.661 108.452C68.8232 108.57 68.9037 108.733 68.9025 108.94C68.9013 109.099 68.8564 109.23 68.7676 109.335C68.6788 109.437 68.5551 109.513 68.3965 109.56C68.5066 109.583 68.6042 109.625 68.6895 109.686C68.7759 109.748 68.8439 109.826 68.8936 109.922C68.9434 110.017 68.9682 110.128 68.9682 110.254C68.9682 110.399 68.9333 110.527 68.8635 110.64C68.7936 110.751 68.6954 110.839 68.5687 110.904C68.4432 110.968 68.2965 111 68.1284 111H66.9512ZM67.1607 110.796H68.1284C68.3166 110.796 68.4675 110.745 68.5811 110.643C68.6948 110.541 68.7516 110.406 68.7516 110.238C68.7516 110.074 68.7001 109.94 68.5971 109.837C68.4953 109.733 68.3627 109.681 68.1994 109.681H67.1607V110.796ZM67.1607 109.485H68.0236C68.1574 109.485 68.274 109.464 68.3734 109.42C68.474 109.375 68.5516 109.312 68.606 109.232C68.6605 109.15 68.6877 109.056 68.6877 108.949C68.6865 108.799 68.6249 108.683 68.503 108.601C68.3823 108.518 68.21 108.477 67.9863 108.477H67.1607V109.485ZM70.4424 111.059C70.2849 111.059 70.1405 111.027 70.0091 110.964C69.8789 110.902 69.7742 110.81 69.6949 110.689C69.6167 110.569 69.5777 110.422 69.5777 110.249C69.5777 110.135 69.5978 110.035 69.6381 109.949C69.6783 109.862 69.7404 109.788 69.8245 109.725C69.9085 109.662 70.0162 109.611 70.1476 109.571C70.279 109.529 70.4359 109.497 70.6182 109.475C70.7567 109.458 70.8804 109.442 70.9893 109.427C71.0982 109.41 71.1834 109.385 71.2449 109.35C71.3077 109.316 71.339 109.264 71.339 109.194V109.081C71.339 108.882 71.2763 108.724 71.1508 108.607C71.0254 108.489 70.8525 108.431 70.6324 108.431C70.4371 108.431 70.2725 108.474 70.1388 108.56C70.0062 108.646 69.9133 108.756 69.86 108.891L69.6558 108.814C69.7079 108.684 69.7831 108.576 69.8813 108.489C69.9807 108.403 70.0944 108.338 70.2222 108.296C70.3512 108.253 70.4862 108.232 70.627 108.232C70.749 108.232 70.865 108.249 70.9751 108.283C71.0863 108.318 71.1852 108.37 71.2716 108.44C71.3592 108.509 71.4284 108.599 71.4793 108.708C71.5302 108.815 71.5557 108.944 71.5557 109.095V111H71.339V110.508H71.3231C71.2757 110.61 71.2106 110.703 71.1278 110.787C71.0461 110.87 70.9472 110.936 70.8312 110.986C70.7164 111.034 70.5868 111.059 70.4424 111.059ZM70.4637 110.858C70.6341 110.858 70.7851 110.817 70.9165 110.734C71.049 110.65 71.1526 110.535 71.2272 110.389C71.3018 110.244 71.339 110.078 71.339 109.894V109.493C71.3118 109.516 71.2722 109.538 71.2201 109.556C71.1692 109.574 71.1112 109.59 71.0461 109.604C70.9822 109.617 70.9147 109.629 70.8437 109.64C70.7738 109.649 70.7058 109.658 70.6395 109.667C70.4406 109.69 70.2784 109.727 70.153 109.777C70.0287 109.825 69.9375 109.889 69.8795 109.968C69.8227 110.048 69.7943 110.144 69.7943 110.256C69.7943 110.442 69.8582 110.589 69.9861 110.696C70.1139 110.804 70.2731 110.858 70.4637 110.858ZM72.4639 112.023V108.273H72.6752V108.882H72.7018C72.7444 108.765 72.8042 108.657 72.8811 108.559C72.9593 108.46 73.0557 108.382 73.1705 108.322C73.2865 108.262 73.4227 108.232 73.5789 108.232C73.7991 108.232 73.9909 108.292 74.1542 108.413C74.3176 108.534 74.4442 108.701 74.5342 108.914C74.6241 109.126 74.6691 109.369 74.6691 109.643C74.6691 109.918 74.6235 110.162 74.5324 110.375C74.4424 110.587 74.3158 110.754 74.1524 110.876C73.9903 110.996 73.8003 111.057 73.5825 111.057C73.4274 111.057 73.2913 111.027 73.1741 110.968C73.0581 110.909 72.9604 110.83 72.8811 110.732C72.803 110.632 72.7432 110.524 72.7018 110.405H72.6805V112.023H72.4639ZM72.6769 109.642C72.6769 109.874 72.7124 110.081 72.7835 110.265C72.8545 110.447 72.9563 110.592 73.0889 110.698C73.2214 110.804 73.3795 110.856 73.5629 110.856C73.7488 110.856 73.908 110.803 74.0406 110.696C74.1743 110.589 74.2761 110.443 74.346 110.26C74.417 110.076 74.4525 109.87 74.4525 109.642C74.4525 109.413 74.4176 109.208 74.3477 109.026C74.2779 108.843 74.1767 108.699 74.0441 108.594C73.9115 108.488 73.7512 108.434 73.5629 108.434C73.3771 108.434 73.2179 108.487 73.0853 108.592C72.9539 108.696 72.8527 108.84 72.7817 109.022C72.7119 109.203 72.6769 109.41 72.6769 109.642ZM75.6346 110.718L77.1989 108.273H77.4741V111H77.2575V108.555L75.695 111H75.418V108.273H75.6346V110.718ZM80.0127 111V108.473L79.2368 108.477C79.0083 108.477 78.8396 108.52 78.7307 108.605C78.623 108.69 78.5692 108.827 78.5692 109.017C78.5692 109.204 78.6224 109.34 78.729 109.425C78.8355 109.51 78.9994 109.553 79.2208 109.553H80.0873V109.759H79.2208C79.0278 109.759 78.8669 109.732 78.7378 109.677C78.61 109.622 78.5141 109.539 78.4502 109.429C78.3863 109.319 78.3543 109.181 78.3543 109.017C78.3543 108.851 78.3869 108.713 78.452 108.603C78.5171 108.493 78.6147 108.411 78.7449 108.356C78.8763 108.301 79.0403 108.273 79.2368 108.273H80.2222V111H80.0127ZM78.1572 111L78.9527 109.643H79.1924L78.3969 111H78.1572Z" fill="#1D3A6D"/>
<rect x="133.25" y="104.25" width="25.5" height="9.5" stroke="#1D3A6D" stroke-width="0.5"/>
<path d="M143.46 108.5H143.233C143.21 108.377 143.165 108.258 143.1 108.143C143.035 108.027 142.951 107.923 142.848 107.831C142.746 107.737 142.628 107.663 142.493 107.609C142.358 107.554 142.209 107.527 142.045 107.527C141.806 107.527 141.586 107.591 141.385 107.719C141.185 107.845 141.024 108.032 140.904 108.278C140.784 108.524 140.724 108.826 140.724 109.182C140.724 109.54 140.784 109.843 140.904 110.089C141.024 110.335 141.185 110.522 141.385 110.648C141.586 110.774 141.806 110.837 142.045 110.837C142.209 110.837 142.358 110.81 142.493 110.757C142.628 110.702 142.746 110.629 142.848 110.537C142.951 110.443 143.035 110.338 143.1 110.222C143.165 110.106 143.21 109.987 143.233 109.864H143.46C143.434 110.01 143.384 110.154 143.31 110.295C143.236 110.436 143.139 110.564 143.018 110.679C142.899 110.792 142.757 110.883 142.594 110.95C142.432 111.017 142.249 111.05 142.045 111.05C141.742 111.05 141.475 110.973 141.245 110.819C141.014 110.664 140.833 110.446 140.701 110.165C140.571 109.885 140.506 109.557 140.506 109.182C140.506 108.807 140.571 108.479 140.701 108.198C140.833 107.918 141.014 107.7 141.245 107.547C141.475 107.391 141.742 107.314 142.045 107.314C142.249 107.314 142.432 107.348 142.594 107.415C142.757 107.481 142.899 107.571 143.018 107.685C143.139 107.797 143.236 107.924 143.31 108.065C143.384 108.206 143.434 108.351 143.46 108.5ZM145.301 111.057C145.055 111.057 144.84 110.996 144.658 110.874C144.476 110.752 144.335 110.585 144.236 110.373C144.136 110.161 144.086 109.92 144.086 109.649C144.086 109.377 144.136 109.134 144.236 108.921C144.336 108.708 144.474 108.54 144.649 108.417C144.824 108.293 145.024 108.232 145.249 108.232C145.402 108.232 145.546 108.263 145.683 108.324C145.82 108.385 145.941 108.472 146.045 108.587C146.15 108.702 146.232 108.84 146.292 109.002C146.352 109.165 146.382 109.347 146.382 109.549V109.684H144.223V109.487H146.166C146.166 109.29 146.125 109.111 146.045 108.953C145.964 108.794 145.855 108.668 145.716 108.575C145.578 108.481 145.422 108.434 145.249 108.434C145.068 108.434 144.907 108.485 144.765 108.587C144.624 108.688 144.512 108.824 144.429 108.995C144.347 109.167 144.305 109.359 144.301 109.571V109.659C144.301 109.887 144.341 110.091 144.42 110.272C144.501 110.452 144.616 110.595 144.765 110.7C144.914 110.804 145.093 110.856 145.301 110.856C145.45 110.856 145.577 110.831 145.683 110.782C145.789 110.731 145.876 110.669 145.944 110.597C146.011 110.525 146.062 110.455 146.096 110.387L146.293 110.467C146.252 110.558 146.187 110.65 146.1 110.741C146.013 110.831 145.903 110.906 145.77 110.966C145.637 111.027 145.481 111.057 145.301 111.057ZM146.856 108.479V108.273H148.902V108.479H147.993V111H147.776V108.479H146.856ZM149.786 109.393H150.601C150.896 109.393 151.126 109.461 151.29 109.596C151.455 109.73 151.537 109.929 151.537 110.19C151.537 110.364 151.5 110.512 151.425 110.632C151.351 110.753 151.244 110.845 151.104 110.908C150.964 110.969 150.797 111 150.601 111H149.623V108.273H149.84V110.794H150.601C150.822 110.794 150.996 110.746 151.125 110.65C151.255 110.553 151.32 110.402 151.32 110.197C151.32 109.994 151.255 109.844 151.125 109.746C150.996 109.648 150.822 109.599 150.601 109.599H149.786V109.393Z" fill="#1D3A6D"/>
<rect x="106.25" y="186.25" width="25.5" height="9.5" stroke="#1D3A6D" stroke-width="0.5"/>
<path d="M112.528 193V189.364H113.709C113.929 189.364 114.115 189.403 114.267 189.481C114.418 189.559 114.533 189.668 114.611 189.809C114.691 189.95 114.73 190.114 114.73 190.301C114.73 190.448 114.707 190.578 114.659 190.692C114.612 190.805 114.546 190.9 114.46 190.974C114.376 191.047 114.277 191.098 114.164 191.127V191.148C114.289 191.158 114.406 191.201 114.514 191.279C114.621 191.356 114.708 191.461 114.773 191.594C114.839 191.726 114.872 191.881 114.872 192.057C114.872 192.243 114.832 192.407 114.752 192.549C114.672 192.69 114.553 192.801 114.395 192.881C114.236 192.96 114.04 193 113.805 193H112.528ZM112.75 192.794H113.805C114.079 192.794 114.289 192.725 114.435 192.588C114.583 192.451 114.657 192.274 114.657 192.057C114.657 191.904 114.621 191.768 114.549 191.647C114.478 191.526 114.379 191.431 114.253 191.361C114.126 191.29 113.979 191.255 113.812 191.255H112.75V192.794ZM112.75 191.052H113.786C113.941 191.052 114.072 191.018 114.18 190.951C114.289 190.884 114.372 190.793 114.428 190.679C114.486 190.566 114.515 190.44 114.515 190.301C114.515 190.076 114.446 189.898 114.306 189.767C114.166 189.635 113.967 189.57 113.709 189.57H112.75V191.052ZM115.897 191.033H117.11C117.334 191.033 117.526 191.072 117.687 191.15C117.849 191.228 117.973 191.339 118.06 191.482C118.146 191.624 118.189 191.791 118.189 191.984C118.189 192.189 118.146 192.368 118.06 192.521C117.975 192.673 117.852 192.792 117.691 192.876C117.53 192.959 117.336 193 117.11 193H115.746V189.364H115.968V192.796H117.11C117.291 192.796 117.445 192.761 117.573 192.693C117.702 192.624 117.801 192.528 117.868 192.405C117.936 192.282 117.969 192.139 117.969 191.977C117.97 191.761 117.894 191.584 117.738 191.446C117.585 191.308 117.375 191.239 117.11 191.239H115.897V191.033ZM118.914 189.364V193H118.692V189.364H118.914ZM122.044 193L120.789 191.239H120.187V193H119.965V189.364H120.187V191.034H120.654L121.877 189.364H122.144L120.917 191.042L122.311 193H122.044ZM122.618 193V192.789H122.706C122.856 192.789 122.975 192.737 123.065 192.634C123.156 192.531 123.224 192.367 123.269 192.142C123.316 191.917 123.345 191.622 123.356 191.255L123.424 189.364H125.473V193H125.251V189.57H123.637L123.575 191.317C123.562 191.704 123.526 192.022 123.466 192.27C123.408 192.519 123.317 192.703 123.193 192.822C123.069 192.941 122.9 193 122.687 193H122.618Z" fill="#1D3A6D"/>
<path d="M95.2106 148.75L109.5 124L123.789 148.75H95.2106Z" fill="#E7E202" stroke="black"/>
<path d="M108.5 132.333H110L108.5 137.583L111.5 135.833L110.5 139.916L110 142.25L111 141.666L109.5 144.583L109 141.666L109.5 142.25L110 138.166L107 139.916L108.5 132.333Z" fill="black"/>
<circle cx="189" cy="36" r="2" fill="#1D3A6D"/>
<circle cx="189" cy="52" r="2" fill="#1D3A6D"/>
<circle cx="189" cy="68" r="2" fill="#1D3A6D"/>
<circle cx="189" cy="84" r="2" fill="#1D3A6D"/>
<circle cx="189" cy="100" r="2" fill="#1D3A6D"/>
<circle cx="189" cy="116" r="2" fill="#1D3A6D"/>
<circle cx="189" cy="132" r="2" fill="#1D3A6D"/>
<circle cx="189" cy="148" r="2" fill="#1D3A6D"/>
<circle cx="189" cy="164" r="2" fill="#1D3A6D"/>
<circle cx="189" cy="180" r="2" fill="#1D3A6D"/>
<circle cx="189" cy="196" r="2" fill="#1D3A6D"/>
<circle cx="189" cy="212" r="2" fill="#1D3A6D"/>
<circle cx="189" cy="228" r="2" fill="#1D3A6D"/>
<circle cx="189" cy="244" r="2" fill="#1D3A6D"/>
<circle cx="185" cy="256" r="2" fill="#1D3A6D"/>
<path d="M87 277H95V279C95 280.105 94.1046 281 93 281H89C87.8954 281 87 280.105 87 279V277Z" fill="#1D3A6D"/>
<path d="M70 277H78V279C78 280.105 77.1046 281 76 281H72C70.8954 281 70 280.105 70 279V277Z" fill="#1D3A6D"/>
<path d="M104 277H112V279C112 280.105 111.105 281 110 281H106C104.895 281 104 280.105 104 279V277Z" fill="#1D3A6D"/>
<path d="M95 4L87 4V2C87 0.895431 87.8954 0 89 0L93 0C94.1046 0 95 0.895431 95 2V4Z" fill="#1D3A6D"/>
<path d="M78 4L70 4V2C70 0.895431 70.8954 0 72 0L76 0C77.1046 0 78 0.895431 78 2V4Z" fill="#1D3A6D"/>
<path d="M112 4L104 4V2C104 0.895431 104.895 0 106 0L110 0C111.105 0 112 0.895431 112 2V4Z" fill="#1D3A6D"/>
<path d="M2.35294 57H8V78H3.29412L0 74.5V67.5H2.35294V57Z" fill="#1D3A6D"/>
<path d="M2.35294 209H8V188H3.29412L0 191.5L0 198.5H2.35294V209Z" fill="#1D3A6D"/>
<rect x="8.5" y="4.5" width="202" height="272" rx="35.5" stroke="#1D3A6D"/>
<rect x="11.5" y="7.5" width="196" height="266" rx="32.5" stroke="#1D3A6D"/>
<defs>
<radialGradient id="paint0_radial_915_4435" cx="0" cy="0" r="1" gradientUnits="userSpaceOnUse" gradientTransform="translate(72 124) rotate(90) scale(5)">
<stop offset="0.8125" stop-color="#D52D2D"/>
<stop offset="1" stop-color="#1B1B1B"/>
</radialGradient>
<radialGradient id="paint1_radial_915_4435" cx="0" cy="0" r="1" gradientUnits="userSpaceOnUse" gradientTransform="translate(146 124) rotate(90) scale(5)">
<stop offset="0.817708" stop-color="#45D52D"/>
<stop offset="1"/>
</radialGradient>
</defs>
</svg>
