<svg width="251" height="229" viewBox="0 0 251 229" fill="none" xmlns="http://www.w3.org/2000/svg">
<path d="M176.672 36.6644C176.672 53.6834 152.704 67.4801 123.138 67.4801C93.5722 67.4801 69.1544 53.2335 69.1544 36.2145C68.0298 14.1711 93.5722 5.84863 123.138 5.84863C152.704 5.84863 176.672 19.6453 176.672 36.6644Z" stroke="#1D3A6D"/>
<path d="M176.172 30.8157C176.172 39.0739 170.351 46.8118 160.737 52.5131C151.138 58.2059 137.846 61.8062 123.138 61.8062C108.431 61.8062 95.1386 58.2059 85.5392 52.5131C75.9256 46.8118 70.1045 39.0739 70.1045 30.8157C70.1045 22.5612 75.9211 14.9923 85.5336 9.45905C95.1327 3.93354 108.427 0.5 123.138 0.5C137.85 0.5 151.144 3.93354 160.743 9.45905C170.356 14.9923 176.172 22.5612 176.172 30.8157Z" fill="white" stroke="#1D3A6D"/>
<path d="M160.427 30.1411C160.427 36.293 156.348 41.7794 149.503 45.7544C142.666 49.7254 133.141 52.1359 122.464 52.1359C111.787 52.1359 102.319 49.7254 95.5378 45.7553C88.7515 41.7819 84.7251 36.2959 84.7251 30.1411C84.7251 23.9863 88.7515 18.5011 95.5377 14.5285C102.319 10.5591 111.787 8.14941 122.464 8.14941C133.141 8.14941 142.666 10.5591 149.503 14.5294C156.348 18.5035 160.427 23.9892 160.427 30.1411Z" fill="white" stroke="#1D3A6D"/>
<path d="M158.926 36.4031C156.495 40.3798 152.935 44.1356 147.332 46.9578C141.723 49.7833 134.041 51.6853 123.353 51.9092C101.978 52.3568 91.0728 45.4234 86.4693 36.4359C85.391 34.3305 85.6917 31.9752 87.1732 29.5548C88.6607 27.1246 91.3153 24.6793 94.8224 22.4958C101.832 18.1317 112.115 14.8955 122.8 14.8955C133.477 14.8955 143.759 18.408 150.744 22.9133C154.239 25.1676 156.876 27.649 158.333 30.0293C159.789 32.4063 160.028 34.5985 158.926 36.4031Z" stroke="#1D3A6D"/>
<path d="M112.742 38.2243L97.952 47.0983L92.8452 43.8829L108.053 35.2231L112.742 38.2243Z" fill="white" stroke="#1D3A6D"/>
<path d="M112.966 44.7111L104.866 49.8269L98.6304 47.3706L112.966 38.8905L112.966 44.7111Z" fill="white" stroke="#1D3A6D"/>
<mask id="path-7-inside-1_915_5077" fill="white">
<path d="M151.93 15.5205L151.48 23.1682L140.683 29.0164L139.783 26.3173L137.984 24.0679L151.93 15.5205Z"/>
</mask>
<path d="M151.93 15.5205L151.48 23.1682L140.683 29.0164L139.783 26.3173L137.984 24.0679L151.93 15.5205Z" fill="white"/>
<path d="M151.93 15.5205L152.928 15.5792L153.04 13.6668L151.407 14.6679L151.93 15.5205ZM151.48 23.1682L151.956 24.0475L152.445 23.7825L152.478 23.2269L151.48 23.1682ZM140.683 29.0164L139.734 29.3327L140.111 30.4634L141.159 29.8957L140.683 29.0164ZM137.984 24.0679L137.461 23.2153L136.495 23.8076L137.203 24.6926L137.984 24.0679ZM139.783 26.3173L140.732 26.001L140.564 25.6926L139.783 26.3173ZM150.931 15.4618L150.482 23.1095L152.478 23.2269L152.928 15.5792L150.931 15.4618ZM151.004 22.2889L140.207 28.1372L141.159 29.8957L151.956 24.0475L151.004 22.2889ZM138.506 24.9205L152.452 16.3731L151.407 14.6679L137.461 23.2153L138.506 24.9205ZM141.632 28.7002L140.732 26.001L138.835 26.6335L139.734 29.3327L141.632 28.7002ZM140.564 25.6926L138.765 23.4432L137.203 24.6926L139.002 26.942L140.564 25.6926Z" fill="#1D3A6D" mask="url(#path-7-inside-1_915_5077)"/>
<path d="M135.987 22.2865L135.979 22.2822L135.972 22.2782L133.805 21.1115L146.493 13.1736L151.374 15.7757L138.428 23.7104L135.987 22.2865Z" fill="white" stroke="#1D3A6D"/>
<path d="M139.361 34.5754L152.838 43.209L148.982 45.9631L135.27 37.7361L139.361 34.5754Z" fill="white" stroke="#1D3A6D"/>
<path d="M134.885 44.0236L134.885 38.2152L148.262 46.12L146.081 47.4625L142.972 48.7058L134.885 44.0236Z" fill="white" stroke="#1D3A6D"/>
<path d="M100.832 12.0456L114.128 20.7711L111.733 21.5695L111.666 21.5921L111.607 21.6328L108.958 23.4668L95.3658 14.6843L100.832 12.0456Z" fill="white" stroke="#1D3A6D"/>
<path d="M95.2966 21.7406L95.2969 15.3027L108.621 23.7077L107.039 25.2895L106.996 25.3331L106.964 25.3859L105.857 27.2318L95.2966 21.7406Z" fill="white" stroke="#1D3A6D"/>
<path d="M140.633 29.6899C140.633 32.3853 138.833 34.8351 135.706 36.6378C132.587 38.4362 128.222 39.5375 123.311 39.5375C118.4 39.5375 114.062 38.4363 110.969 36.6386C107.871 34.8375 106.093 32.3882 106.093 29.6899C106.093 26.9917 107.871 24.5427 110.969 22.7419C114.062 20.9447 118.4 19.8438 123.311 19.8438C128.222 19.8438 132.587 20.9447 135.706 22.7428C138.833 24.5451 140.633 26.9946 140.633 29.6899Z" stroke="#1D3A6D"/>
<path d="M130.736 31.062C130.736 32.3902 130.017 33.4773 128.747 34.2555C127.465 35.0407 125.645 35.4895 123.566 35.4895C121.486 35.4895 119.679 35.0407 118.409 34.2565C117.151 33.4797 116.44 32.393 116.44 31.062C116.44 29.7183 117.165 28.5027 118.435 27.6043C119.708 26.7039 121.509 26.1426 123.566 26.1426C125.623 26.1426 127.436 26.704 128.721 27.6055C130.003 28.5052 130.736 29.721 130.736 31.062Z" stroke="#1D3A6D"/>
<path d="M130.736 28.8123C130.736 30.1405 130.017 31.2276 128.747 32.0059C127.465 32.7911 125.645 33.2398 123.566 33.2398C121.486 33.2398 119.679 32.7911 118.409 32.0068C117.151 31.23 116.44 30.1434 116.44 28.8123C116.44 27.4801 117.152 26.3825 118.411 25.5954C119.681 24.8012 121.488 24.3428 123.566 24.3428C125.643 24.3428 127.462 24.8012 128.744 25.5963C130.016 26.3849 130.736 27.483 130.736 28.8123Z" fill="white" stroke="#1D3A6D"/>
<line x1="106.093" y1="29.6914" x2="106.093" y2="35.9895" stroke="#1D3A6D"/>
<line x1="115.986" y1="45.5026" x2="115.087" y2="52.2506" stroke="#1D3A6D"/>
<line x1="133.084" y1="44.9507" x2="133.534" y2="51.2488" stroke="#1D3A6D"/>
<path d="M140.908 29.2412V35.0894" stroke="#1D3A6D"/>
<path d="M136.859 88.1731L149.422 80.6758C150.342 80.1269 151.312 79.6679 152.32 79.3051L153.381 78.9233C155.397 78.1974 157.524 77.8262 159.667 77.8262H159.896C162.959 77.8262 166 78.3568 168.882 79.3945V79.3945C169.724 79.6975 170.529 80.0955 171.281 80.5806L175.894 83.557C176.712 84.0844 177.49 84.6708 178.222 85.3114L182.794 89.312C183.809 90.1999 184.731 91.1882 185.547 92.2618L188.594 96.2706L192.834 102.17C193.455 103.034 194.006 103.947 194.482 104.899L196.916 109.767L199.247 115.095C199.791 116.338 200.207 117.633 200.489 118.961L201.64 124.387L202.539 132.035V132.035C202.539 136.496 201.729 140.921 200.146 145.092L200.065 145.306V145.306C198.881 147.822 197.137 150.033 194.966 151.77L193.767 152.729L189.268 155.428L183.42 158.802L178.472 161.726L175.323 163.525L172.623 165.1L170.881 166.116C170.245 166.487 169.572 166.792 168.873 167.025V167.025C167.782 167.389 166.639 167.574 165.488 167.574H164.976V167.574C163.188 167.574 161.412 167.286 159.716 166.721L158.903 166.449M92.7725 122.363L92.0945 122.702C91.0505 123.224 90.0703 123.865 89.1736 124.612V124.612L87.824 125.737L86.6993 126.861L85.3497 128.436L84.9055 129.028C84.3031 129.831 83.7743 130.687 83.3254 131.585V131.585L82.8755 132.71" stroke="#1D3A6D"/>
<path d="M137.084 88.8486L140.008 89.7484L142.707 90.6481L145.856 91.9977L149.005 93.3473L151.03 94.4719L153.729 96.2714L156.203 98.0709L158.003 99.6454L160.477 101.895L163.851 105.494L166.1 108.418L168.125 111.117L169.699 113.591L171.049 115.841L173.073 119.439L174.873 123.263L176.447 127.087L178.022 131.361L179.146 135.635L179.821 139.458L180.046 142.607V145.756V147.556L179.989 148.529C179.877 150.425 179.58 152.305 179.1 154.143V154.143C178.682 155.747 178.127 157.312 177.441 158.821L177.347 159.027L176.211 161.014C175.77 161.787 175.252 162.514 174.666 163.184V163.184C174.205 163.711 173.703 164.201 173.164 164.65L172.623 165.101" stroke="#1D3A6D"/>
<path d="M134.61 44.0869C130.786 45.8864 126.607 46.5612 123.588 46.5612C120.214 46.5612 116.84 46.1113 113.241 44.7617" stroke="#1D3A6D"/>
<path d="M138.5 107C138.5 109.485 134.16 115.973 122.688 115.615C108.293 115.165 106.5 108.985 106.5 106.5" stroke="#1D3A6D"/>
<line x1="135.333" y1="66.5413" x2="138.482" y2="107.029" stroke="#1D3A6D"/>
<line x1="111.488" y1="66.6414" x2="106.539" y2="106.679" stroke="#1D3A6D"/>
<path d="M146.981 82.3252H150.685C151.962 82.3252 153.238 82.4308 154.498 82.6408V82.6408C155.931 82.8797 157.339 83.2529 158.703 83.7553L160.927 84.5745L162.933 85.6212C165.041 86.7213 167.064 87.9783 168.985 89.3815V89.3815C170.958 90.8233 172.816 92.4152 174.544 94.1432L176.672 96.271L180.946 101.894L184.32 106.843L187.019 111.341L189.943 117.64L191.967 123.038L193.317 129.111L193.625 130.96C194.019 133.322 194.217 135.713 194.217 138.108V138.108V138.108C194.217 140.5 193.955 142.885 193.436 145.221L193.317 145.756L192.923 146.937C192.289 148.84 191.403 150.651 190.291 152.32V152.32C189.61 153.341 188.848 154.304 188.011 155.201L186.119 157.228" stroke="#1D3A6D"/>
<path d="M142.033 85.249H145.407H145.746C148.21 85.249 150.664 85.5512 153.054 86.1488V86.1488L157.103 87.7233L160.702 89.7477L161.196 90.0563C163.262 91.3474 165.205 92.8252 167 94.4712V94.4712L169.699 96.9455L172.623 100.095L176.222 104.593L178.922 108.642L182.071 114.04L184.545 119.439L186.569 124.837L187.919 128.886L188.819 133.16L189.268 136.983V142.607L189.044 145.081L188.369 148.23L187.469 151.154L187.075 152.139C186.738 152.981 186.34 153.797 185.883 154.58L185.655 154.97C185.216 155.723 184.706 156.433 184.131 157.09V157.09C183.658 157.63 183.143 158.133 182.591 158.593L180.721 160.151L179.596 161.051" stroke="#1D3A6D"/>
<path d="M152 112.5V112.5C153.305 112.826 154.485 113.527 155.397 114.516L156.203 115.39L158.002 117.64L159.577 119.664L161.376 122.363L163.176 125.962L164.525 129.561L165.425 133.16L165.65 134.959V137.434V139.432C165.65 139.899 165.617 140.365 165.551 140.827V140.827C165.467 141.413 165.331 141.99 165.144 142.551L165.042 142.855C164.848 143.438 164.6 144.002 164.302 144.539V144.539C163.853 145.347 163.294 146.087 162.641 146.74L161.826 147.556L161.449 147.932C160.507 148.875 159.723 149.963 159.127 151.154V151.154L159.117 151.178C158.678 152.201 158.452 153.303 158.452 154.416V154.416C158.452 155.088 158.535 155.758 158.698 156.41L158.902 157.228V157.228C159.201 158.423 159.352 159.65 159.352 160.882V161.501V162.265C159.352 163.104 159.277 163.941 159.126 164.766V164.766C158.977 165.587 158.755 166.393 158.462 167.174L158.164 167.968C157.757 169.054 157.27 170.108 156.707 171.121L156.428 171.623L155.377 173.069C154.879 173.754 154.328 174.398 153.729 174.997V174.997L152.154 176.572L150.13 178.146L148.78 179.046L147.206 179.946L145.856 180.846L144.506 181.745L142.707 182.87L141.132 183.77L139.333 184.894L137.983 185.569L136.634 186.244L134.834 187.144L132.585 188.043L130.336 188.943L128.986 189.393L127.637 189.843L126.287 190.293L124.263 190.967V190.967C123.365 191.267 122.442 191.485 121.505 191.619L121.338 191.642L118.639 191.867H117.29V191.867C116.394 191.867 115.503 191.742 114.642 191.496L114.366 191.417L113.241 190.967L112.791 190.743" stroke="#1D3A6D"/>
<path d="M92.5474 117.19L92.8199 117.69C93.537 119.004 94.348 120.266 95.2466 121.464V121.464L96.8211 123.263L98.8455 125.063L101.095 126.637L102.894 127.762L104.694 128.662L106.943 129.561L108.742 130.236L110.542 130.686L112.341 131.136L114.141 131.361L116.165 131.586L118.864 131.811L122.688 132.036L126.737 131.811L128.761 131.586L131.686 131.136L134.835 130.461L137.534 129.561L138.213 129.319C139.855 128.732 141.436 127.985 142.932 127.087V127.087L145.182 125.513L145.454 125.308C146.471 124.546 147.432 123.712 148.331 122.813V122.813L148.827 122.235C149.395 121.572 149.906 120.863 150.355 120.114V120.114L150.394 120.037C150.817 119.19 151.18 118.314 151.48 117.415V117.415L151.705 116.74" stroke="#1D3A6D"/>
<path d="M152.604 176.122V176.122C152.217 175.724 152 175.189 152 174.633V171.5V167.5L151.93 165.5V153.63C151.93 152.884 151.81 152.144 151.574 151.437L151.511 151.249C151.341 150.739 151.098 150.256 150.79 149.816L150.702 149.69C150.04 148.745 149.079 148.05 147.974 147.719V147.719C147.613 147.611 147.241 147.542 146.866 147.516L146.585 147.496C145.083 147.388 143.582 147.725 142.27 148.464L125.509 157.905C124.982 158.201 124.515 158.59 124.128 159.054V159.054C123.771 159.483 123.488 159.969 123.292 160.492L123.19 160.764C123.006 161.254 122.881 161.764 122.816 162.283L122.688 163.301V174.098V185.345V189.807C122.688 190.278 122.764 190.746 122.913 191.193V191.193" stroke="#F24E4E" stroke-opacity="0.68" stroke-width="7"/>
<path d="M191.068 99.8705L191.968 99.1957L204.339 92.2228L216.936 84.8L235.983 73.6709C236.619 73.2993 237.343 73.1035 238.079 73.1035V73.1035" stroke="#F24E4E" stroke-opacity="0.68" stroke-width="7"/>
<path d="M192.643 101.895V101.895C192.197 102.192 191.815 102.574 191.518 103.019L191.431 103.15C190.901 103.945 190.148 104.565 189.266 104.932L188.454 105.27C188.098 105.419 187.753 105.594 187.423 105.794L179.372 110.667L179.061 110.853C177.784 111.619 176.354 112.093 174.873 112.241V112.241L174.551 112.294C173.852 112.409 173.144 112.466 172.436 112.466V112.466C170.631 112.466 168.846 112.84 167.193 113.563L166.101 114.041L162.277 116.29L158.228 118.764L156.348 119.619C155.955 119.798 155.535 119.913 155.105 119.961L154.445 120.034C153.981 120.086 153.512 119.984 153.112 119.743V119.743C152.78 119.544 152.4 119.439 152.014 119.439H151.705" stroke="#F24E4E" stroke-opacity="0.68" stroke-width="7"/>
<path d="M53.6371 135.855L53.648 135.849L53.6586 135.843C59.3011 132.602 66.8493 133.758 74.5221 138.338C82.1777 142.909 89.8455 150.832 95.6164 160.879C101.387 170.924 104.233 181.356 104.191 190.088C104.148 198.834 101.218 205.767 95.5659 209.014C90.7638 211.772 86.5089 212.871 82.6572 212.693C78.8077 212.515 75.3118 211.059 72.0293 208.621C65.4364 203.725 59.7736 194.926 53.9608 184.806C51.0249 179.695 46.9963 175.32 43.2818 171.339C43.1676 171.216 43.0538 171.094 42.9403 170.973C39.3377 167.113 36.1033 163.648 34.3782 160.188C33.495 158.417 33.0221 156.673 33.092 154.901C33.1617 153.132 33.7736 151.295 35.1255 149.338C37.8454 145.401 43.5293 141.021 53.6371 135.855Z" fill="white" stroke="#1D3A6D"/>
<path d="M90.8318 211.4L90.8158 211.409L90.8005 211.419C84.1719 215.908 79.0173 217.844 74.8473 217.979C70.708 218.112 67.4714 216.471 64.6526 213.634C61.8161 210.779 59.4207 206.73 56.9951 202.088C56.1961 200.559 55.3933 198.964 54.5711 197.331C52.9109 194.033 51.172 190.579 49.2267 187.193C47.1817 183.633 44.9316 180.232 42.7866 176.99C41.878 175.617 40.9883 174.272 40.141 172.956C37.2792 168.51 34.9003 164.388 33.8 160.488C32.7068 156.612 32.8828 152.984 35.1058 149.476C37.3467 145.939 41.7053 142.464 49.1215 139.011L49.1409 139.002L49.1595 138.991C54.8107 135.745 62.3054 136.722 69.912 141.109C77.5052 145.489 85.1123 153.22 90.8823 163.265C96.6526 173.31 99.4985 183.742 99.4565 192.474C99.4143 201.22 96.4838 208.153 90.8318 211.4Z" fill="white" stroke="#1D3A6D"/>
<path d="M104.328 203.752L104.32 203.756L104.313 203.761C93.3823 210.575 86.0795 213.667 81.0921 214.224C78.6137 214.501 76.7386 214.149 75.276 213.344C73.8121 212.538 72.7088 211.251 71.8265 209.565C70.9416 207.874 70.291 205.804 69.7241 203.468C69.3032 201.732 68.9332 199.872 68.5463 197.926C68.4119 197.25 68.2755 196.564 68.1341 195.869C67.0425 190.502 65.6699 184.675 62.7229 179.545C59.7875 174.435 55.7463 170.009 52.0153 165.973C51.9065 165.855 51.798 165.738 51.6899 165.621C48.0644 161.7 44.8017 158.173 43.0607 154.689C42.1706 152.908 41.6938 151.166 41.7621 149.413C41.8301 147.665 42.4419 145.865 43.7967 143.967C46.5241 140.145 52.232 135.966 62.3963 131.136L62.4139 131.128L62.4307 131.118C68.0795 127.874 75.629 128.904 83.2947 133.349C90.9454 137.785 98.6087 145.573 104.378 155.617C110.149 165.662 112.995 176.095 112.953 184.826C112.911 193.572 109.98 200.505 104.328 203.752Z" stroke="#1D3A6D"/>
<path d="M81.8348 215.899C76.1828 219.145 68.7173 218.184 61.1412 213.814C53.5777 209.451 46 201.737 40.2297 191.692C34.4594 181.646 31.6135 171.214 31.6555 162.483C31.6976 153.737 34.6281 146.803 40.2802 143.557C45.9322 140.31 53.3977 141.272 60.9738 145.642C68.5373 150.004 76.115 157.718 81.8853 167.764C87.6556 177.809 90.5015 188.241 90.4595 196.973C90.4174 205.719 87.4868 212.652 81.8348 215.899Z" fill="white" stroke="#1D3A6D"/>
<path d="M103.569 153.629L101.995 154.753L99.2954 156.553L94.7968 159.252L91.6477 161.051L88.7236 162.851L87.5989 163.526V163.526C87.0072 163.821 86.3548 163.975 85.6933 163.975H83.1003H80.1462C79.8673 163.975 79.5895 164.01 79.3189 164.077V164.077C78.9925 164.159 78.6799 164.288 78.3914 164.461L68.7046 170.274L53.8591 178.821L37.664 188.043L21.4688 197.49L9.62916 204.287C9.42561 204.404 9.23842 204.547 9.07245 204.713V204.713C8.93964 204.846 8.82183 204.993 8.72116 205.152L8.5 205.5M87 127L91.6477 132.5L96 136.5L99.5 139.5L102.061 141.703C102.942 142.461 103.179 143.729 102.631 144.755V144.755C102.544 144.918 102.439 145.071 102.318 145.21L101.577 146.064C101.107 146.607 100.59 147.109 100.033 147.564L99.5 148" stroke="#F24E4E" stroke-opacity="0.68" stroke-width="7"/>
<path d="M107.618 92.2217L106.043 92.6715L104.694 93.1214L103.569 93.5713L101.77 94.471L99.7452 95.8206V95.8206C98.5471 96.7192 97.4142 97.7017 96.3552 98.7607L96.1463 98.9696L95.5387 99.7291C94.748 100.717 94.0998 101.812 93.613 102.98V102.98C93.3528 103.605 93.1398 104.248 92.9757 104.904L92.7723 105.718L92.5474 107.517V109.541V112.241V114.715V116.289V119.214V121.013V121.543C92.5474 121.938 92.5865 122.333 92.6641 122.721V122.721C92.7361 123.081 92.8409 123.434 92.9772 123.775L93.1939 124.316C93.5118 125.111 93.9113 125.871 94.3861 126.583L94.7326 127.103C95.2246 127.84 95.7693 128.542 96.3625 129.201L96.4229 129.268C97.137 130.061 97.9148 130.795 98.7483 131.462L99.7452 132.26L99.9352 132.402C101.006 133.205 102.147 133.91 103.344 134.509V134.509L106.493 135.859L109.192 136.758L111.442 137.208L113.691 137.658L116.84 138.108L119.539 138.333H122.238H124.713L127.637 138.108L130.786 137.658L133.035 137.208L135.284 136.758L135.532 136.688C137.462 136.136 139.337 135.407 141.133 134.509V134.509L144.282 132.709L146.081 131.36L146.322 131.154C147.21 130.393 148.032 129.559 148.78 128.661V128.661L150.13 126.861L150.432 126.359C151.122 125.208 151.556 123.921 151.705 122.588V122.588V116.064V112.241V108.867V105.493V105.493C151.705 104.749 151.571 104.011 151.31 103.315L151.03 102.569L150.916 102.34C150.394 101.296 149.753 100.316 149.005 99.4195V99.4195L147.431 97.845L146.081 96.7203L144.732 95.5957L143.382 94.6959L142.032 93.7962L140.683 93.1214L139.333 92.4466L138.209 91.9967L137.797 91.8938C137.473 91.8127 137.158 91.6964 136.859 91.5469V91.5469" stroke="#1D3A6D"/>
<path d="M92.5474 114.265L93.0616 115.551C93.6161 116.937 94.3507 118.244 95.2466 119.439V119.439L96.8211 121.238L98.8455 123.038L101.095 124.612L102.894 125.737L104.694 126.637L106.943 127.536L108.742 128.211L110.542 128.661L112.341 129.111L114.141 129.336L116.165 129.561L119.539 129.786H122.463H126.737L128.761 129.561L131.686 129.111L134.835 128.436L137.534 127.536L138.213 127.294C139.855 126.707 141.436 125.96 142.932 125.062V125.062L145.182 123.488L145.454 123.283C146.471 122.521 147.432 121.687 148.331 120.788V120.788L148.827 120.21C149.395 119.547 149.906 118.838 150.355 118.089V118.089L150.749 117.3C150.936 116.927 151.096 116.541 151.228 116.145V116.145C151.395 115.643 151.517 115.126 151.592 114.602L151.705 113.815" stroke="#1D3A6D"/>
<path d="M151.5 109L151.371 109.394C150.996 110.539 150.507 111.644 149.911 112.691V112.691L149.717 112.982C149.25 113.686 148.715 114.342 148.118 114.94V114.94L147.222 115.84L146.326 116.739L145.205 117.639V117.639C144.461 118.237 143.655 118.755 142.801 119.184L142.741 119.214L141.396 119.889L139.604 120.788V120.788C138.41 121.387 137.175 121.901 135.909 122.324L135.794 122.363L134.002 122.813L131.761 123.263L129.744 123.712V123.712C128.583 123.903 127.409 124 126.232 124H126H124.5H123C122.701 124 121.679 124 121.5 124C121.321 124 120.299 124 120 124H119.604H118L115.179 123.712L111.594 123.038L109.353 122.588L106.664 121.688L104.423 120.788L102.631 119.889L100.39 118.539V118.539C99.0489 117.641 97.7997 116.614 96.6608 115.47L96.5807 115.39L95.4604 114.04L95.1905 113.702C94.774 113.179 94.4138 112.614 94.1159 112.016V112.016L93.6677 111.116L93.2196 110.216L92.7714 109.092L92.5474 108.417" stroke="#1D3A6D"/>
<path d="M102.394 106.168C102.394 106.57 102.15 106.995 101.629 107.343C101.111 107.688 100.367 107.918 99.5205 107.918C98.6737 107.918 97.9297 107.688 97.4121 107.343C96.8909 106.995 96.6465 106.57 96.6465 106.168C96.6465 105.766 96.8909 105.341 97.4121 104.994C97.9297 104.649 98.6737 104.419 99.5205 104.419C100.367 104.419 101.111 104.649 101.629 104.994C102.15 105.341 102.394 105.766 102.394 106.168Z" stroke="#1D3A6D"/>
<path d="M125.337 119.664C125.337 120.066 125.093 120.491 124.572 120.839C124.054 121.184 123.31 121.414 122.463 121.414C121.617 121.414 120.873 121.184 120.355 120.839C119.834 120.491 119.589 120.066 119.589 119.664C119.589 119.262 119.834 118.837 120.355 118.49C120.873 118.145 121.617 117.915 122.463 117.915C123.31 117.915 124.054 118.145 124.572 118.49C125.093 118.837 125.337 119.262 125.337 119.664Z" stroke="#1D3A6D"/>
<path d="M147.83 104.368C147.83 104.77 147.586 105.195 147.065 105.543C146.547 105.888 145.803 106.118 144.957 106.118C144.11 106.118 143.366 105.888 142.848 105.543C142.327 105.195 142.083 104.77 142.083 104.368C142.083 103.967 142.327 103.541 142.848 103.194C143.366 102.849 144.11 102.619 144.957 102.619C145.803 102.619 146.547 102.849 147.065 103.194C147.586 103.541 147.83 103.967 147.83 104.368Z" stroke="#1D3A6D"/>
<path d="M44.3421 153.035C45.0111 154.305 45.2994 155.595 45.247 156.64C45.1939 157.697 44.8052 158.405 44.2331 158.706C43.661 159.008 42.8571 158.927 41.9553 158.373C41.0645 157.825 40.1642 156.857 39.4952 155.587C38.8262 154.316 38.5378 153.026 38.5902 151.982C38.6433 150.924 39.0321 150.216 39.6042 149.915C40.1763 149.614 40.9802 149.694 41.8819 150.248C42.7728 150.796 43.6731 151.764 44.3421 153.035Z" stroke="#1D3A6D"/>
<path d="M78.7908 169.272C79.4598 170.542 79.7481 171.832 79.6957 172.877C79.6427 173.934 79.2539 174.642 78.6818 174.944C78.1097 175.245 77.3058 175.165 76.4041 174.61C75.5132 174.062 74.6129 173.095 73.9439 171.824C73.2749 170.553 72.9866 169.263 73.039 168.219C73.092 167.162 73.4808 166.453 74.0529 166.152C74.625 165.851 75.4289 165.931 76.3306 166.486C77.2215 167.034 78.1218 168.001 78.7908 169.272Z" stroke="#1D3A6D"/>
<path d="M170.113 153.976C170.782 155.247 171.07 156.536 171.018 157.581C170.965 158.638 170.576 159.346 170.004 159.648C169.432 159.949 168.628 159.869 167.726 159.314C166.835 158.766 165.935 157.799 165.266 156.528C164.597 155.257 164.309 153.968 164.361 152.923C164.414 151.866 164.803 151.158 165.375 150.856C165.947 150.555 166.751 150.635 167.653 151.19C168.544 151.738 169.444 152.705 170.113 153.976Z" stroke="#1D3A6D"/>
<path d="M168.314 117.538C168.983 118.808 169.271 120.098 169.219 121.143C169.166 122.2 168.777 122.908 168.205 123.209C167.633 123.51 166.829 123.43 165.927 122.876C165.036 122.328 164.136 121.36 163.467 120.09C162.798 118.819 162.51 117.529 162.562 116.485C162.615 115.427 163.004 114.719 163.576 114.418C164.148 114.117 164.952 114.197 165.854 114.751C166.744 115.299 167.645 116.267 168.314 117.538Z" stroke="#1D3A6D"/>
<path d="M80.1404 205.71C80.8094 206.981 81.0978 208.271 81.0453 209.315C80.9923 210.373 80.6035 211.081 80.0314 211.382C79.4593 211.683 78.6554 211.603 77.7537 211.049C76.8628 210.501 75.9625 209.533 75.2935 208.262C74.6245 206.992 74.3362 205.702 74.3886 204.657C74.4416 203.6 74.8304 202.892 75.4025 202.591C75.9746 202.289 76.7785 202.37 77.6802 202.924C78.5711 203.472 79.4714 204.44 80.1404 205.71Z" stroke="#1D3A6D"/>
<path d="M51.3848 160.826L44.187 164.65L36.7642 169.149L30.4661 172.748L25.0677 175.672L18.5447 179.271L12.0217 183.319L5.94851 186.918L4.17489 187.953C3.56191 188.31 3.01102 188.765 2.54372 189.299L2.32167 189.553C1.8947 190.041 1.5692 190.609 1.36416 191.224V191.224C1.27153 191.502 1.20409 191.788 1.16267 192.078L1.09914 192.522C1.03313 192.985 1 193.451 1 193.917V194.143C1 194.574 1.03561 195.005 1.10648 195.43V195.43C1.18528 195.903 1.30736 196.367 1.47117 196.818L2.12466 198.615V198.615C2.7234 199.962 3.43548 201.256 4.25323 202.482L4.37398 202.664L5.61258 204.212C5.98566 204.678 6.40167 205.109 6.85512 205.497L6.87757 205.516C7.45565 206.012 8.09232 206.435 8.77332 206.775V206.775C9.28828 207.033 9.82601 207.242 10.3796 207.4L11.122 207.612V207.612C12.0155 207.761 12.9276 207.761 13.8211 207.612V207.612L14.7209 207.387L15.2246 207.303C15.7852 207.21 16.3568 207.203 16.9194 207.283V207.283C17.401 207.352 17.8715 207.484 18.3187 207.676L18.5744 207.785C19.0036 207.969 19.415 208.192 19.8035 208.451L20.0742 208.632C20.851 209.15 21.5598 209.763 22.1843 210.456L23.2683 211.661L24.6179 213.46L25.7425 215.485L26.4173 217.059V217.059C26.7168 218.107 26.9351 219.177 27.0703 220.259L27.0921 220.433V220.433C27.0921 220.883 27.0602 221.331 26.9967 221.776L26.8672 222.683L26.8208 222.915C26.7021 223.508 26.5221 224.088 26.2837 224.644L26.068 225.147C26.0011 225.303 25.9201 225.453 25.8259 225.594V225.594C25.6224 225.899 25.3604 226.161 25.0551 226.365L24.8428 226.506V226.506C24.2511 226.802 23.5987 226.956 22.9372 226.956H22.8184H22.184C21.8584 226.956 21.534 226.916 21.2181 226.837V226.837C20.9363 226.767 20.6629 226.666 20.403 226.536L19.8943 226.281V226.281C19.1457 225.832 18.4328 225.326 17.7621 224.767L17.4201 224.482L16.0705 223.132V223.132C15.4721 222.534 14.9343 221.878 14.4649 221.174L14.271 220.883L13.3713 219.309L12.6965 217.734L12.4068 216.865C12.1509 216.097 11.981 215.303 11.9005 214.498V214.498C11.8315 213.808 11.8284 213.113 11.8911 212.422L11.9716 211.537C12.0049 211.17 12.0666 210.807 12.1559 210.449V210.449C12.3646 209.614 12.7222 208.824 13.2113 208.116L13.5254 207.661" stroke="#1D3A6D"/>
<path d="M24.8428 226.507L27.9918 224.932L30.691 223.358L35.8645 220.434L41.2628 217.284L51.3848 211.436L60.607 206.038L71.1788 199.965L72.0758 199.367C72.8212 198.87 73.4701 198.242 73.9907 197.513V197.513C74.2151 197.198 74.4146 196.867 74.5873 196.522L74.8 196.096C75.0847 195.527 75.3286 194.938 75.53 194.334L75.9024 193.217V193.217C76.2008 192.172 76.3523 191.091 76.3523 190.005V189.618V189.433C76.3523 187.76 76.2017 186.091 75.9024 184.444V184.444V184.444C75.6029 182.947 75.1905 181.474 74.6686 180.039L74.5528 179.721L73.4281 177.022L71.8536 174.097L70.0542 171.398L67.8048 168.474L66.279 166.821C65.4982 165.975 64.6469 165.197 63.7345 164.495V164.495C62.7016 163.701 61.5947 163.007 60.4291 162.425L59.0325 161.726L57.233 161.051L56.3065 160.846C55.5768 160.683 54.8315 160.602 54.084 160.602V160.602H53.1842V160.602C52.5867 160.602 51.9914 160.675 51.4116 160.82L51.3848 160.826" stroke="#1D3A6D"/>
<path d="M179.596 86.3737L183.42 84.1244L191.967 79.1759L200.515 74.2274L211.312 67.9293L224.808 60.2816L225.885 59.7428C226.066 59.6524 226.256 59.582 226.452 59.533V59.533C226.85 59.4335 227.266 59.4236 227.668 59.5041L228.182 59.6068L228.713 59.7397C229.554 59.9498 230.359 60.2832 231.102 60.729V60.729C231.85 61.178 232.527 61.736 233.111 62.3846L234.255 63.6555L235.829 65.9049L236.729 67.2545L237.404 68.6041V68.6041C237.703 69.3517 237.92 70.1293 238.053 70.9235L238.079 71.0783L238.081 71.0941C238.229 72.132 238.304 73.179 238.304 74.2274V74.2274V75.0567C238.304 75.549 238.21 76.0367 238.027 76.4938V76.4938C237.912 76.7813 237.763 77.0539 237.583 77.3058L236.729 78.5011M236.729 78.5011L235.987 79.2432C235.732 79.4976 235.504 79.7765 235.304 80.0759V80.0759C234.908 80.6698 234.633 81.3354 234.493 82.0353L234.405 82.4743C234.305 82.9733 234.255 83.481 234.255 83.9898V84.1808C234.255 85.0391 234.369 85.8935 234.595 86.7216L234.671 86.9996C234.843 87.6309 235.067 88.2469 235.342 88.841L236.279 90.8724L237.077 92.2402C237.593 93.1253 238.201 93.9538 238.89 94.712L239.236 95.0923C239.812 95.7256 240.463 96.2859 241.175 96.7606L241.715 97.1207C242.434 97.5996 243.234 97.9413 244.077 98.1286L244.313 98.181C244.654 98.2568 245.003 98.2951 245.353 98.2951H245.632C246.284 98.2951 246.923 98.1252 247.489 97.8021V97.8021C247.958 97.5341 248.363 97.1678 248.677 96.7283L248.803 96.5518C249.148 96.0688 249.399 95.5252 249.543 94.9494L249.686 94.3789C249.894 93.5464 249.964 92.6854 249.892 91.8302L249.879 91.6734C249.81 90.8437 249.623 90.028 249.324 89.2509L248.65 87.4984V87.4984C248.052 86.1512 247.34 84.8573 246.522 83.6307L246.401 83.4496L245.051 81.8751L243.702 80.5255L242.577 79.6257L241.758 79.1341C241.555 79.0122 241.342 78.9067 241.122 78.8188V78.8188C240.597 78.6089 240.038 78.5011 239.473 78.5011H239.203H238.304H236.729Z" stroke="#1D3A6D"/>
<path d="M201.64 124.612L205.913 122.363L247.076 98.0703" stroke="#1D3A6D"/>
</svg>
