<svg width="449" height="659" viewBox="0 0 449 659" fill="none" xmlns="http://www.w3.org/2000/svg">
<rect x="17.5" y="16.5" width="430" height="626" rx="73.5" stroke="#6C7FA0" stroke-width="3"/>
<rect x="32.5" y="26.5" width="400" height="606" rx="73.5" stroke="#6C7FA0" stroke-width="3"/>
<rect x="108" width="17" height="15" fill="#6C7FA0"/>
<rect x="207" width="17" height="15" fill="#6C7FA0"/>
<rect x="174" width="17" height="15" fill="#6C7FA0"/>
<rect x="141" width="17" height="15" fill="#6C7FA0"/>
<rect x="108" y="644" width="17" height="15" fill="#6C7FA0"/>
<rect x="207" y="644" width="17" height="15" fill="#6C7FA0"/>
<rect x="174" y="644" width="17" height="15" fill="#6C7FA0"/>
<rect x="141" y="644" width="17" height="15" fill="#6C7FA0"/>
<path d="M0 139L16 130V178H7.75758H0V162V139Z" fill="#6C7FA0"/>
<path d="M0.340406 446.138L16.4183 454.998L15.9995 407L7.75735 407.072L7.15941e-05 407.14L0.139696 423.139L0.340406 446.138Z" fill="#6C7FA0"/>
<rect x="150" y="243" width="166" height="86" rx="9" fill="#B3BDCE" stroke="#6C7FA0" stroke-width="4"/>
<rect x="125" y="185" width="28" height="28" rx="10" fill="#B3BDCE" stroke="#6C7FA0" stroke-width="2"/>
<rect x="172" y="185" width="28" height="28" rx="10" fill="#B3BDCE" stroke="#6C7FA0" stroke-width="2"/>
<rect x="219" y="185" width="28" height="28" rx="10" fill="#B3BDCE" stroke="#6C7FA0" stroke-width="2"/>
<rect x="266" y="185" width="27" height="28" rx="10" fill="#B3BDCE" stroke="#6C7FA0" stroke-width="2"/>
<rect x="312" y="185" width="28" height="28" rx="10" fill="#B3BDCE" stroke="#6C7FA0" stroke-width="2"/>
</svg>
